<svg width="500" height="300" viewBox="0 0 500 300" fill="none" xmlns="http://www.w3.org/2000/svg">
<path opacity="0.199346" d="M349.761 255.591C304.898 262.528 252.964 264.579 203.343 261.375C153.721 258.172 109.686 249.924 79.1934 238.123C48.7009 226.321 33.7626 211.744 37.0778 197.026C40.393 182.308 61.7429 168.419 97.2699 157.87C132.797 147.32 180.157 140.806 230.794 139.503C281.43 138.2 332.002 142.196 373.372 150.767C414.742 159.339 444.181 171.921 456.37 186.24C468.558 200.559 462.692 215.671 439.831 228.845" fill="url(#paint0_linear)"/>
<path d="M252.617 88.6288C252.617 88.6288 427.966 103.393 429.603 104.946C438.304 142.392 429.603 204.88 429.603 204.88L252.617 187.539V88.6288Z" fill="#F8EDC7" stroke="black" stroke-opacity="0.434211" stroke-width="2.29569" stroke-linecap="round" stroke-linejoin="bevel"/>
<path opacity="0.941176" d="M337.5 109C334.989 111.273 329.973 116.511 324.961 116.5C319.949 116.489 305.109 124.939 300.501 122.651C295.893 120.363 292.448 117.261 290.916 114.022C289.384 110.783 289.888 107.668 292.32 105.356C294.752 103.044 310.533 109.045 315.519 109C320.504 108.955 316.811 99.4278 321.461 101.676C326.111 103.925 375.343 107.762 376.961 111C378.579 114.238 339.851 106.649 337.5 109Z" fill="url(#paint1_linear)" stroke="black" stroke-opacity="0.434211" stroke-width="1.56577" stroke-linecap="round" stroke-linejoin="bevel"/>
<path d="M341.132 129.944C302.119 135.26 257.068 136.924 213.767 134.648C170.465 132.372 131.634 126.299 103.983 117.479C76.3318 108.658 61.5992 97.6448 62.3311 86.3416C63.063 75.0384 79.2133 64.1557 107.991 55.5743C136.769 46.9929 176.365 41.2521 219.938 39.3439C263.51 37.4358 308.32 39.4802 346.624 45.1239C384.927 50.7676 414.318 59.656 429.715 70.2528C445.113 80.8497 445.55 92.4892 430.951 103.16L251.948 87.1445L341.132 129.944Z" fill="#F0E2B0" stroke="black" stroke-opacity="0.493421" stroke-width="3" stroke-linecap="round" stroke-linejoin="bevel"/>
<g opacity="0.941176">
<path d="M261.17 126.035C257.763 124.755 265.037 124.741 264.221 122.255C263.405 119.768 263.587 118.512 265.835 116.261C268.083 114.009 262.57 108.845 266.579 108.134C270.587 107.424 271.122 111.722 274.568 112.964C278.014 114.206 284.092 112.29 284.977 114.765C285.862 117.239 276.7 117.424 274.512 119.696C272.323 121.969 277.286 126.146 273.293 126.899C269.299 127.653 265.104 127.401 261.621 126.198" fill="#BBD1EB"/>
<path d="M261.17 126.035C257.763 124.755 265.037 124.741 264.221 122.255C263.405 119.768 263.587 118.512 265.835 116.261C268.083 114.009 262.57 108.845 266.579 108.134C270.587 107.424 271.122 111.722 274.568 112.964C278.014 114.206 284.092 112.29 284.977 114.765C285.862 117.239 276.7 117.424 274.512 119.696C272.323 121.969 277.286 126.146 273.293 126.899C269.299 127.653 265.104 127.401 261.621 126.198" stroke="black" stroke-opacity="0.434211" stroke-width="2.1797" stroke-linecap="round" stroke-linejoin="bevel"/>
</g>
<g opacity="0.941176">
<path d="M413.79 151.557C410.281 154.909 410.004 147.163 403 147.5C395.996 147.837 392.439 147.374 386 144.5C379.561 141.626 365.141 146.388 363 141.97C360.859 137.551 372.996 137.902 376.394 134.5C379.791 131.098 374.175 124.219 381.142 123.806C388.109 123.394 388.931 133.185 395.428 136C401.925 138.815 413.572 134.427 415.833 138.839C418.095 143.25 417.52 147.661 414.234 151.112" fill="url(#paint2_linear)"/>
<path d="M413.79 151.557C410.281 154.909 410.004 147.163 403 147.5C395.996 147.837 392.439 147.374 386 144.5C379.561 141.626 365.141 146.388 363 141.97C360.859 137.551 372.996 137.902 376.394 134.5C379.791 131.098 374.175 124.219 381.142 123.806C388.109 123.394 388.931 133.185 395.428 136C401.925 138.815 413.572 134.427 415.833 138.839C418.095 143.25 417.52 147.661 414.234 151.112" stroke="black" stroke-opacity="0.434211" stroke-width="2.1797" stroke-linecap="round" stroke-linejoin="bevel"/>
</g>
<path opacity="0.941176" d="M371.784 182.523C369.273 184.796 364.512 177.011 359.5 177C354.488 176.989 349.63 184.753 345.022 182.464C340.414 180.176 336.969 177.075 335.437 173.835C333.905 170.596 334.409 167.481 336.841 165.169C339.272 162.857 347.514 167.045 352.5 167C357.486 166.955 361.85 166.752 366.5 169C371.15 171.249 388.382 173.762 390 177C391.618 180.238 374.135 180.172 371.784 182.523Z" fill="url(#paint3_linear)" stroke="black" stroke-opacity="0.434211" stroke-width="1.56577" stroke-linecap="round" stroke-linejoin="bevel"/>
<path d="M61.1875 90.4925C149.268 152.606 300.819 133.787 341.127 131.027C346.691 181.83 346.691 184.997 341.127 234.353C254.494 243.174 109.227 253.54 61.1875 198.161C52.7279 153.148 54.3794 130.627 61.1875 90.4925Z" fill="#F0E2B0" stroke="black" stroke-opacity="0.427632" stroke-width="3.058" stroke-linecap="round" stroke-linejoin="bevel"/>
<g opacity="0.941176">
<path d="M100.07 179.166C93.8365 177.224 107.028 177.23 105.441 173.481C103.854 169.731 104.13 167.84 108.109 164.456C112.089 161.073 101.869 153.272 109.109 152.216C116.348 151.16 117.502 157.638 123.804 159.521C130.107 161.405 141.046 158.54 142.758 162.271C144.471 166.002 127.863 166.247 123.992 169.663C120.122 173.079 129.301 179.39 122.092 180.51C114.882 181.631 107.264 181.236 100.895 179.412" fill="#BBD1EB"/>
<path d="M100.07 179.166C93.8365 177.224 107.028 177.23 105.441 173.481C103.854 169.731 104.13 167.84 108.109 164.456C112.089 161.073 101.869 153.272 109.109 152.216C116.348 151.16 117.502 157.638 123.804 159.521C130.107 161.405 141.046 158.54 142.758 162.271C144.471 166.002 127.863 166.247 123.992 169.663C120.122 173.079 129.301 179.39 122.092 180.51C114.882 181.631 107.264 181.236 100.895 179.412" stroke="black" stroke-opacity="0.434211" stroke-width="2.1797" stroke-linecap="round" stroke-linejoin="bevel"/>
</g>
<g opacity="0.941176">
<path d="M74.8111 170.321C71.5406 169.939 76.7747 166.998 74.6038 163.926C72.4329 160.855 71.7647 159.064 71.9518 155.084C72.1389 151.103 64.8792 146.258 67.3159 143.676C69.7525 141.093 66.6093 111.89 69.8829 112.204C73.1566 112.517 82.5822 142.321 84.7951 145.348C87.0081 148.375 80.5222 152.308 80.3915 156.294C80.2609 160.28 86.496 163.997 84.0975 166.631C81.699 169.265 78.5153 170.606 75.2393 170.362" fill="#BBD1EB"/>
<path d="M74.8111 170.321C71.5406 169.939 76.7747 166.998 74.6038 163.926C72.4329 160.855 71.7647 159.064 71.9518 155.084C72.1389 151.103 64.8792 146.258 67.3159 143.676C69.7525 141.093 66.6093 111.89 69.8829 112.204C73.1566 112.517 82.5822 142.321 84.7951 145.348C87.0081 148.375 80.5222 152.308 80.3915 156.294C80.2609 160.28 86.496 163.997 84.0975 166.631C81.699 169.265 78.5153 170.606 75.2393 170.362" stroke="black" stroke-opacity="0.434211" stroke-width="2.1797" stroke-linecap="round" stroke-linejoin="bevel"/>
</g>
<g opacity="0.941176">
<path d="M230.35 128C226.259 135.485 225.344 119.458 216.708 121.215C208.072 122.971 203.639 122.549 195.465 117.56C187.29 112.57 169.811 124.629 166.837 115.786C163.863 106.942 178.896 105.836 182.846 98.2648C186.797 90.6938 179.344 77.2711 187.928 75.3617C196.513 73.4523 198.252 93.6412 206.495 98.5002C214.737 103.359 228.815 92.495 231.937 101.306C235.059 110.116 234.675 119.355 230.866 127.009" fill="#BBD1EB"/>
<path d="M230.35 128C226.259 135.485 225.344 119.458 216.708 121.215C208.072 122.971 203.639 122.549 195.465 117.56C187.29 112.57 169.811 124.629 166.837 115.786C163.863 106.942 178.896 105.836 182.846 98.2648C186.797 90.6938 179.344 77.2711 187.928 75.3617C196.513 73.4523 198.252 93.6412 206.495 98.5002C214.737 103.359 228.815 92.495 231.937 101.306C235.059 110.116 234.675 119.355 230.866 127.009" stroke="black" stroke-opacity="0.434211" stroke-width="2.1797" stroke-linecap="round" stroke-linejoin="bevel"/>
</g>
<g opacity="0.941176">
<path d="M181.936 226.609C177.747 231.461 177.416 220.491 169.055 221.168C160.693 221.846 156.446 221.293 148.759 217.403C141.072 213.514 123.856 220.677 121.3 214.476C118.744 208.274 133.234 208.423 137.29 203.504C141.347 198.585 134.642 188.996 142.959 188.211C151.277 187.426 161.298 175.752 169.055 179.556C176.812 183.361 181.677 202.336 184.376 208.524C187.076 214.712 186.389 220.981 182.467 225.966" fill="#BBD1EB"/>
<path d="M181.936 226.609C177.747 231.461 177.416 220.491 169.055 221.168C160.693 221.846 156.446 221.293 148.759 217.403C141.072 213.514 123.856 220.677 121.3 214.476C118.744 208.274 133.234 208.423 137.29 203.504C141.347 198.585 134.642 188.996 142.959 188.211C151.277 187.426 161.298 175.752 169.055 179.556C176.812 183.361 181.677 202.336 184.376 208.524C187.076 214.712 186.389 220.981 182.467 225.966" stroke="black" stroke-opacity="0.434211" stroke-width="2.1797" stroke-linecap="round" stroke-linejoin="bevel"/>
</g>
<g opacity="0.941176">
<path d="M321.025 189.136C316.198 189.641 320.718 183.345 314.971 179.327C309.225 175.309 306.694 172.766 303.359 166.554C300.023 160.342 285.703 155.287 286.712 150.482C287.722 145.677 297.108 153.379 301.877 152.767C306.646 152.154 306.411 143.277 312.175 147.213C317.939 151.148 312.599 159.396 316.016 165.598C319.434 171.799 331.332 175.453 330.422 180.326C329.512 185.199 326.359 188.337 321.649 189.056" fill="#BBD1EB"/>
<path d="M321.025 189.136C316.198 189.641 320.718 183.345 314.971 179.327C309.225 175.309 306.694 172.766 303.359 166.554C300.023 160.342 285.703 155.287 286.712 150.482C287.722 145.677 297.108 153.379 301.877 152.767C306.646 152.154 306.411 143.277 312.175 147.213C317.939 151.148 312.599 159.396 316.016 165.598C319.434 171.799 331.332 175.453 330.422 180.326C329.512 185.199 326.359 188.337 321.649 189.056" stroke="black" stroke-opacity="0.434211" stroke-width="2.1797" stroke-linecap="round" stroke-linejoin="bevel"/>
</g>
<g opacity="0.941176">
<path d="M340.417 85.3032C336.002 87.3183 338.283 79.911 331.556 77.9308C324.83 75.9505 321.621 74.3462 316.482 69.5185C311.343 64.6907 296.158 64.4574 295.586 59.5809C295.013 54.7043 306.363 59.0183 310.689 56.9199C315.015 54.8215 311.967 46.4805 318.683 48.3767C325.4 50.2728 322.963 59.7913 328.177 64.5828C333.391 69.3743 345.833 69.0509 346.521 73.9601C347.209 78.8694 345.219 82.8476 340.983 85.0286" fill="#BBD1EB"/>
<path d="M340.417 85.3032C336.002 87.3183 338.283 79.911 331.556 77.9308C324.83 75.9505 321.621 74.3462 316.482 69.5185C311.343 64.6907 296.158 64.4574 295.586 59.5809C295.013 54.7043 306.363 59.0183 310.689 56.9199C315.015 54.8215 311.967 46.4805 318.683 48.3767C325.4 50.2728 322.963 59.7913 328.177 64.5828C333.391 69.3743 345.833 69.0509 346.521 73.9601C347.209 78.8694 345.219 82.8476 340.983 85.0286" stroke="black" stroke-opacity="0.434211" stroke-width="2.1797" stroke-linecap="round" stroke-linejoin="bevel"/>
</g>
<path opacity="0.941176" d="M138.534 107.389C133.655 110.033 136.435 101.13 129.208 99.18C121.981 97.2298 118.561 95.5186 113.175 90.1044C107.789 84.6902 91.3007 85.304 90.8782 79.5643C90.4556 73.8247 102.61 78.2667 107.396 75.5288C112.182 72.791 109.212 63.0951 116.431 64.9462C123.651 66.7973 120.614 78.2088 126.083 83.5758C131.552 88.9427 160.29 86.7883 160.837 92.5599C161.384 98.3315 143.226 104.558 138.534 107.389Z" fill="#BBD1EB" stroke="black" stroke-opacity="0.434211" stroke-width="2.1797" stroke-linecap="round" stroke-linejoin="bevel"/>
<g opacity="0.941176">
<path d="M279.915 81.1587C272.152 83.9657 271.54 76.1774 256.046 75.4258C240.551 74.6742 232.682 73.6589 218.438 69.7844C204.194 65.91 172.293 68.4317 167.556 63.6804C162.82 58.9291 189.669 61.1656 197.186 58.2918C204.703 55.418 192.278 47.6665 207.691 48.3361C223.103 49.0057 224.921 58.9244 239.294 62.7493C253.668 66.5742 279.434 63.9955 284.436 68.7584C289.438 73.5212 288.167 77.843 280.898 80.7828" fill="#BBD1EB"/>
<path d="M279.915 81.1587C272.152 83.9657 271.54 76.1774 256.046 75.4258C240.551 74.6742 232.682 73.6589 218.438 69.7844C204.194 65.91 172.293 68.4317 167.556 63.6804C162.82 58.9291 189.669 61.1656 197.186 58.2918C204.703 55.418 192.278 47.6665 207.691 48.3361C223.103 49.0057 224.921 58.9244 239.294 62.7493C253.668 66.5742 279.434 63.9955 284.436 68.7584C289.438 73.5212 288.167 77.843 280.898 80.7828" stroke="black" stroke-opacity="0.434211" stroke-width="2.1797" stroke-linecap="round" stroke-linejoin="bevel"/>
</g>
<g opacity="0.941176">
<path d="M416.246 92.5434C411.561 92.9013 412.654 88.2903 404.462 85.3244C396.271 82.3585 392.226 80.485 385.277 75.9145C378.328 71.3441 360.72 67.5943 359.042 64.0688C357.364 60.5433 371.387 66.2239 375.952 65.7871C380.518 65.3503 375.255 58.8315 383.417 61.7366C391.579 64.6417 390.745 70.6834 397.773 75.2463C404.8 79.8093 419.121 82.5241 420.94 86.0997C422.759 89.6753 421.287 91.9707 416.843 92.4862" fill="#BBD1EB"/>
<path d="M416.246 92.5434C411.561 92.9013 412.654 88.2903 404.462 85.3244C396.271 82.3585 392.226 80.485 385.277 75.9145C378.328 71.3441 360.72 67.5943 359.042 64.0688C357.364 60.5433 371.387 66.2239 375.952 65.7871C380.518 65.3503 375.255 58.8315 383.417 61.7366C391.579 64.6417 390.745 70.6834 397.773 75.2463C404.8 79.8093 419.121 82.5241 420.94 86.0997C422.759 89.6753 421.287 91.9707 416.843 92.4862" stroke="black" stroke-opacity="0.434211" stroke-width="2.1797" stroke-linecap="round" stroke-linejoin="bevel"/>
</g>
<g opacity="0.941176">
<path d="M256.473 219.068C256.601 214.217 262.254 219.519 266.988 214.346C271.722 209.173 274.573 206.996 281.167 204.5C287.762 202.004 294.641 188.465 299.274 190.093C303.906 191.721 295.045 200.022 295.03 204.83C295.015 209.638 303.847 210.564 299.193 215.765C294.539 220.966 287.058 214.595 280.464 217.174C273.869 219.753 268.694 231.072 263.981 229.534C259.269 227.996 256.569 224.46 256.471 219.697" fill="#BBD1EB"/>
<path d="M256.473 219.068C256.601 214.217 262.254 219.519 266.988 214.346C271.722 209.173 274.573 206.996 281.167 204.5C287.762 202.004 294.641 188.465 299.274 190.093C303.906 191.721 295.045 200.022 295.03 204.83C295.015 209.638 303.847 210.564 299.193 215.765C294.539 220.966 287.058 214.595 280.464 217.174C273.869 219.753 268.694 231.072 263.981 229.534C259.269 227.996 256.569 224.46 256.471 219.697" stroke="black" stroke-opacity="0.434211" stroke-width="2.1797" stroke-linecap="round" stroke-linejoin="bevel"/>
</g>
<g opacity="0.941176">
<path d="M194.484 174.183C191.834 164.011 205.202 179.568 210.684 172.242C216.165 164.917 220.024 162.491 230.459 162.258C240.895 162.026 245.284 138.634 254.624 145.629C263.964 152.625 252.882 163.41 255.712 173.579C258.542 183.747 275.055 192.474 269.735 199.92C264.414 207.366 247.108 188.147 236.721 188.554C226.334 188.962 223.708 208.962 214.276 202.095C204.844 195.228 197.863 185.674 194.854 175.513" fill="#BBD1EB"/>
<path d="M194.484 174.183C191.834 164.011 205.202 179.568 210.684 172.242C216.165 164.917 220.024 162.491 230.459 162.258C240.895 162.026 245.284 138.634 254.624 145.629C263.964 152.625 252.882 163.41 255.712 173.579C258.542 183.747 275.055 192.474 269.735 199.92C264.414 207.366 247.108 188.147 236.721 188.554C226.334 188.962 223.708 208.962 214.276 202.095C204.844 195.228 197.863 185.674 194.854 175.513" stroke="black" stroke-opacity="0.434211" stroke-width="2.1797" stroke-linecap="round" stroke-linejoin="bevel"/>
</g>
<path d="M428.892 103.697C435.904 102.114 442.616 93.4128 442.551 85.8134C452.721 108.978 451.186 174.075 447.157 193.234C446.55 198.881 440.316 203.984 430.427 205.224C432.877 158.691 431.969 137.221 428.892 103.697Z" fill="#F0E2B0" stroke="black" stroke-opacity="0.427632" stroke-width="3.058" stroke-linecap="round" stroke-linejoin="bevel"/>
<defs>
<linearGradient id="paint0_linear" x1="239.324" y1="110.227" x2="192.544" y2="281.87" gradientUnits="userSpaceOnUse">
<stop/>
<stop offset="1" stop-opacity="0.151316"/>
</linearGradient>
<linearGradient id="paint1_linear" x1="328.5" y1="121" x2="254.384" y2="130.118" gradientUnits="userSpaceOnUse">
<stop stop-color="#BBD1EB"/>
<stop offset="0.950544" stop-color="#F2F62C" stop-opacity="0.186257"/>
<stop offset="1" stop-color="#FFFF00" stop-opacity="0"/>
</linearGradient>
<linearGradient id="paint2_linear" x1="395" y1="153" x2="355.5" y2="141.5" gradientUnits="userSpaceOnUse">
<stop stop-color="#BBD1EB"/>
<stop offset="0.902807" stop-color="#DEE972" stop-opacity="0.484195"/>
<stop offset="1" stop-color="#FFFF00" stop-opacity="0"/>
</linearGradient>
<linearGradient id="paint3_linear" x1="386" y1="172" x2="320.5" y2="183.5" gradientUnits="userSpaceOnUse">
<stop stop-color="#BBD1EB"/>
<stop offset="0.697287" stop-color="#D6E38E" stop-opacity="0.604975"/>
<stop offset="1" stop-color="#FFFF00" stop-opacity="0"/>
<stop offset="1" stop-color="#DBE67D" stop-opacity="0.534289"/>
</linearGradient>
</defs>
</svg>
