<svg version="1.1"  xmlns="http://www.w3.org/2000/svg" x="0px" y="0px" viewBox="0 0 300 300" >
<title>Bowl - pouring milk (Icon)</title>	 
<style type="text/css">

#inner,#outer {
	fill: #c32e04;
	stroke: black;
	stroke-width: 2;
}

.line {
	fill: none;
	stroke: black;
	stroke-width: 2;  
	stroke-linejoin: round;
}

#box {
  stroke: #306f91;
  fill: #e6f2f7;
}

#milk {
	fill: white;
}

</style>
  
  <rect fill="#fdfcf3"  x="0" y="0" width="100%" height="100%"/>

<g id="bowl" transform="translate(20,-30) rotate(10)">
	<ellipse id="inner" cx="140" cy="170" rx="92" ry="34.7" />
	<ellipse id="dough" fill="#fff" stroke="black" stroke-width="2" cx="143" cy="185" rx="75" ry="30" />
	<path id="outer" d="M48,173  c0,150 184,150 184,0 c-15,40 -169,40 -184,0" />	
	<path class="line" d="M78,185  c15,-15 16,-15 40,-20 m40,25  c15,0 16,0 40,-20" />						
</g>
<g transform="translate(10,10) rotate(-7)">
	<path id="background-for-box" d="m0,50 l115,-35 l25,55 l-25,17 z" fill="#e6f2f7"/>
	<path id="box" d="M0,50 h100 l15,35 h-100 l-15,-35 l15,-35 h100 l-15,35 l25,-18 l-10,-17 m10,18 l15,35 l10,5 l-15,-35 l-10,-5 m15,35 l-25,17" class="line" />	
</g>	
	<path id="milk" class="line" d="m145,170 c0,10 10,-80 -10,-90 c25,-10 60,50 50,90" />
</svg>