<svg width="403" height="327" viewBox="0 0 403 327" fill="none" xmlns="http://www.w3.org/2000/svg">
<g clip-path="url(#clip0)">
<path fill-rule="evenodd" clip-rule="evenodd" d="M8.25 201.75L279.75 198L269.25 229.5H268.5V231H267.75L267 232.5L266.25 233.25L265.5 234.75V235.5L264.75 236.25V237L263.25 238.5V239.25L262.5 240.75L261.75 241.5V242.25L261 243L260.25 244.5L259.5 245.25V246L258.75 247.5L258 248.25L257.25 249.75L256.5 250.5L255.75 252L255 252.75L254.25 253.5L253.5 255L252.75 255.75L252 257.25L251.25 258L250.5 259.5L247.5 262.5L246.75 264L243.75 267L243 268.5L242.25 269.25L240.75 270L240 271.5L237 274.5L236.25 276L234.75 276.75L234 277.5L232.5 278.25L231.75 279.75L231 280.5L229.5 281.25L228.75 282L227.25 282.75L226.5 283.5L225 284.25L224.25 285L222.75 285.75L221.25 287.25L219.75 288L219 288.75H218.25L216.75 289.5L215.25 291H214.5L212.25 293.25H211.5L210.75 294H210L209.25 294.75L206.25 296.25H205.5L204 297L202.5 298.5H201L200.25 299.25H198.75L197.25 300H195.75L195 300.75L196.5 313.5H195L194.25 314.25H193.5L192.75 315H191.25L190.5 315.75H189L187.5 316.5H186L184.5 317.25H183L182.25 318H180.75L180 318.75H177L175.5 319.5H174.75L174 320.25H170.25L168.75 321H166.5L165.75 321.75H162L160.5 322.5H152.25L151.5 323.25H144L143.25 322.5H134.25L133.5 321.75H127.5L126 321H124.5L123.75 320.25H120L119.25 319.5H116.25L114.75 318.75H111.75L111 318H110.25L108.75 317.25H105.75L105 316.5H102.75L101.25 315.75H99.75L98.25 315H97.5L96 314.25H95.25L94.5 313.5H93V303L59.25 279L58.5 278.25H57.75L47.25 267.75L45.75 265.5L44.25 264.75L43.5 263.25L42.75 262.5L41.25 261.75V261L39.75 260.25V258.75L38.25 258V257.25L36.75 256.5L36 255.75L35.25 254.25L33 252L32.25 250.5L31.5 249.75L30.75 248.25L30 247.5V246.75L29.25 245.25L28.5 244.5L27.75 243L26.25 241.5L25.5 240L24.75 239.25V238.5L24 237L23.25 236.25V234.75L21.75 233.25V231.75L21 231V229.5L19.5 228V226.5L18.75 225.75V225L18 224.25V223.5L17.25 222.75V222L16.5 221.25V219.75L15.75 219V218.25L15 216.75L14.25 216L13.5 214.5V213L12.75 211.5V210.75L11.25 209.25V207.75L10.5 207V206.25L9.75 205.5V204L9 203.25V202.5H8.25V201.75Z" fill="#ED1C24"/>
<path fill-rule="evenodd" clip-rule="evenodd" d="M57 129H56.25L55.5 129.75H54L52.5 130.5H51L49.5 131.25H48.75L48 132H45.75L44.25 133.5H42.75L42 134.25H41.25L39.75 135L39 135.75H38.25L36.75 136.5L36 137.25L34.5 138L33.75 138.75H32.25L31.5 139.5L30 140.25L29.25 141L26.25 142.5L25.5 144L24.75 144.75L23.25 145.5L22.5 146.25L21 147L20.25 148.5L18.75 149.25L15.75 152.25L15 153.75L14.25 154.5L13.5 156L12 156.75L10.5 159.75L9.75 160.5L6 168V169.5L4.5 172.5V174.75L3.75 176.25V183.75L4.5 185.25V187.5L6 190.5V192L7.5 193.5V195L9 196.5L11.25 201L14.25 204L15 205.5L16.5 206.25L17.25 207.75L21.75 212.25L23.25 213L26.25 216L27.75 216.75L32.25 221.25L35.25 222.75L36.75 224.25L39 225L41.25 227.25L42.75 228L45 229.5L46.5 230.25L47.25 231L54.75 234.75L55.5 235.5L57 236.25L57.75 237H59.25L60 237.75L61.5 238.5H62.25L63 239.25H63.75L65.25 240L66 240.75H67.5L68.25 241.5H69.75L70.5 242.25H72.75L73.5 243H75L76.5 243.75H77.25L78.75 244.5H79.5L81 245.25H84.75L87.75 246.75H91.5L93 247.5H95.25L97.5 248.25H99.75L101.25 249H103.5L105.75 249.75H108L110.25 250.5H115.5L117.75 251.25H123L125.25 252H138.75L141.75 252.75H150.75L153.75 252H165.75L168.75 251.25H171.75L174.75 250.5H178.5L181.5 249.75H184.5L187.5 249L191.25 248.25L197.25 246.75L201 246L210 243.75L212.25 243L218.25 241.5L220.5 240.75L223.5 240L239.25 234.75L240.75 234L243 233.25L244.5 232.5L246 231L247.5 230.25L249.75 229.5L252.75 228L253.5 227.25L258 225L258.75 224.25L260.25 223.5L261 222.75L262.5 222L266.25 218.25H267L268.5 216.75L270 216L270.75 214.5L271.5 213.75L272.25 212.25L274.5 210V209.25H275.25V207.75L276 207V206.25L276.75 204.75V204L277.5 202.5V201L278.25 199.5V197.25L279 196.5V192.75L279.75 192V183L279 181.5V177.75L278.25 177V174.75L277.5 173.25V172.5L276.75 171V170.25L276 168.75L275.25 168L274.5 166.5L273.75 165.75V164.25L270.75 161.25L270 159.75L269.25 159L268.5 157.5L267 156.75L266.25 156V155.25H265.5V154.5L264.75 153L263.25 152.25L262.5 150.75L259.5 147.75L258 147L257.25 146.25L255.75 145.5L255 144.75L253.5 144L252.75 143.25L249.75 141.75H249L247.5 141H246.75L246 140.25H244.5L243.75 139.5H241.5L240.75 138.75H237.75L236.25 138H234.75L57 129Z" fill="#F48072"/>
<path fill-rule="evenodd" clip-rule="evenodd" d="M15.75 207.75L16.5 195.75L21.75 186L21 174L23.25 163.5L40.5 151.5L52.5 148.5L56.25 138V137.25L57 136.5V134.25L57.75 133.5V132.75L58.5 131.25V129.75L59.25 129V126.75H60V122.25V121.5V116.25H60.75L79.5 111L99.75 110.25L110.25 101.25L118.5 94.5L129 93.75L134.25 95.25L144 98.25L157.5 92.25L174 94.5L181.5 104.25L186 112.5L200 115.5L207.75 121.5L231.75 130.5L239.25 137.25L245.25 147L241.5 159L254.25 162.75L262.5 182.25V199.5L272.25 207.75L270.75 210.75L269.25 212.25L268.5 213.75L267 215.25H266.25L258.75 222.75L255.75 224.25L255 225L250.5 227.25L249 228.75L246.75 229.5L243.75 231L241.5 231.75L240 232.5L237.75 233.25L236.25 234.75L234 235.5L231 236.25L222 239.25L219 240L216 241.5L213 242.25L210.75 243L207 243.75L201 245.25L197.25 246L194.25 246.75L190.5 247.5H186.75L175.5 249.75H171.75L167.25 250.5H163.5L159.75 251.25H156L152.25 252H131.25L128.25 251.25H121.5L118.5 250.5H115.5L111.75 249.75H109.5L106.5 249H103.5L97.5 247.5H95.25L93 246.75L90 246L85.5 244.5L82.5 243.75L78 242.25H76.5L69.75 240L68.25 239.25L66 238.5L63 237L60.75 236.25L54.75 233.25L54 232.5L51 231H50.25L48.75 230.25L48 229.5H47.25L45.75 228L44.25 227.25H43.5L42 225.75H41.25L15.75 207.75Z" fill="#F9D659"/>
<path fill-rule="evenodd" clip-rule="evenodd" d="M60 133.5H58.5L57.75 134.25H56.25L54.75 135H53.25L52.5 135.75H50.25L49.5 136.5H48.75L47.25 137.25H46.5L45 138H44.25L42.75 138.75L42 139.5H40.5L39.75 140.25L38.25 141H36.75L36 141.75L34.5 142.5L33.75 143.25L32.25 144L30.75 144.75L30 145.5L27 147L26.25 147.75L24.75 148.5L24 150L22.5 150.75L21.75 151.5L20.25 152.25L19.5 153.75L18 154.5L17.25 156L16.5 156.75L15.75 158.25L13.5 160.5L12 163.5L11.25 164.25L9.75 167.25V168.75L9 170.25V171.75L8.25 173.25V175.5L7.5 177V185.25L8.25 187.5V189L9 190.5L9.75 192.75L12 197.25L13.5 199.5L14.25 201L15.75 202.5L16.5 204L21.75 209.25L23.25 210L26.25 213L30.75 216L32.25 217.5L39 222L41.25 222.75L44.25 224.25L46.5 225.75L48.75 226.5L51 228L54 229.5L57 230.25L59.25 231.75L62.25 232.5L64.5 233.25L67.5 234.75L73.5 236.25L76.5 237.75L97.5 243L101.25 243.75L104.25 244.5H107.25L110.25 245.25H113.25L117 246L120 246.75H126.75L129.75 247.5H135.75L139.5 248.25H158.25L161.25 247.5H166.5L169.5 246.75H174.75L177.75 246H180.75L183 245.25H186L188.25 244.5L191.25 243.75H193.5L195.75 243L198.75 242.25H201L207.75 240L210.75 239.25H213L222 236.25L223.5 235.5L230.25 233.25L231.75 232.5L234 231.75L235.5 231L237.75 230.25L239.25 229.5L241.5 228L247.5 225L249.75 224.25L252 222L255 220.5L256.5 219L259.5 217.5L260.25 216.75L261.75 216L262.5 214.5L263.25 213.75L264.75 213L265.5 211.5L266.25 210.75L267.75 210L269.25 208.5L270 207L270.75 206.25V205.5L273 203.25V202.5L273.75 201L274.5 200.25V198H275.25V195L276 194.25V192.75L276.75 191.25V183L276 181.5V177.75L275.25 177V175.5L274.5 174V173.25L273.75 172.5V171L273 170.25V169.5L271.5 168.75V168L276.75 163.5H277.5V164.25L278.25 165L279.75 168V168.75L280.5 169.5V170.25L281.25 171.75V172.5L282 173.25V174.75L282.75 175.5V177.75L283.5 179.25V186L284.25 186.75L283.5 187.5V195L282.75 196.5V198L282 198.75V201L280.5 204L279.75 204.75L278.25 207.75L277.5 208.5L274.5 214.5L273 215.25L271.5 216.75L270.75 218.25L269.25 219L264 224.25H263.25L261.75 225.75L260.25 226.5L259.5 227.25H258.75L258 228.75H256.5L255 230.25L253.5 231L252.75 231.75L251.25 232.5H250.5L249.75 233.25L248.25 234H247.5L246.75 234.75H246L245.25 235.5H244.5L243 237H241.5L240.75 237.75H240L239.25 238.5H237.75L237 239.25H236.25L235.5 240H234L233.25 240.75H232.5L231 241.5H230.25L229.5 242.25H228L227.25 243H226.5L225 243.75H223.5L222.75 244.5H222L220.5 245.25H219.75L218.25 246H216.75L216 246.75H213.75L212.25 247.5H211.5L210 248.25H207L206.25 249H204.75L204 249.75H201L199.5 250.5H197.25L195.75 251.25H194.25L192.75 252H189L187.5 252.75H186L184.5 253.5H180L178.5 254.25H172.5L169.5 255H160.5L157.5 255.75H135L132 255H123.75L120.75 254.25H118.5L115.5 253.5H110.25L108 252.75H105L102.75 252H100.5L97.5 251.25L93 249.75H90L85.5 248.25L82.5 247.5L80.25 246.75H78L75.75 245.25H73.5L64.5 242.25L63 240.75L56.25 238.5L54.75 237.75L50.25 236.25L48.75 235.5L46.5 234L45 233.25L42.75 232.5L39.75 231L37.5 230.25L36 228.75L34.5 228L32.25 226.5L27.75 224.25L26.25 222.75L24.75 222L24 221.25L22.5 220.5L21.75 219L21 218.25L19.5 217.5L15.75 213.75L15 212.25L9.75 207L9 205.5L7.5 204L4.5 198L3.75 197.25L2.25 194.25V192.75L1.5 191.25L0.75 189V185.25L0 183.75V177L0.75 175.5V172.5L1.5 171V169.5L2.25 168V166.5L4.5 162L6 161.25V159.75L7.5 158.25L9.75 153.75L11.25 152.25L12.75 151.5L13.5 150L18.75 144.75L21 144L24 141L25.5 140.25L27.75 138.75L29.25 138L31.5 136.5L33 135.75L35.25 135L37.5 133.5L53.25 128.25L56.25 127.5L58.5 126.75H61.5L60 133.5Z" fill="#010101"/>
<path fill-rule="evenodd" clip-rule="evenodd" d="M240.75 144L241.5 144.75H242.25L243 145.5H244.5L245.25 146.25H246L246.75 147H247.5L248.25 147.75L249.75 148.5H250.5L252 150H252.75L254.25 150.75L255 152.25H256.5L257.25 153L258.75 153.75L259.5 155.25L261 156L261.75 156.75L263.25 157.5L272 168L277.5 164L270 155.25L268.5 153.75L267 153L262.5 148.5L261 147.75L259.5 146.25L256.5 144.75L255.75 144L252.75 142.5L252 141.75H251.25L250.5 141H249.75L249 140.25H248.25L247.5 139.5H246.75L246 138.75H245.25L244.5 138H243L242.25 137.25H240.75L240 136.5L240.75 144Z" fill="#010101"/>
<path fill-rule="evenodd" clip-rule="evenodd" d="M24 182.25L23.25 181.5V180.75L22.5 179.25V174.75L23.25 173.25V171.75L24 171V170.25L24.75 169.5V168.75L26.25 167.25L27 165.75L28.5 165L30 163.5L31.5 162.75L32.25 161.25L33 160.5L36 159L36.75 158.25L38.25 157.5L39.75 156.75H40.5L41.25 156L44.25 154.5H45L46.5 153.75H47.25L48.75 153H49.5L50.25 152.25H51L52.5 151.5H54V150.75H55.5L56.25 150H57.75V148.5L57 147.75V144L57.75 142.5V140.25L59.25 138.75L60 137.25L60.75 136.5L61.5 135V134.25L62.25 132.75V125.25L63 124.5V122.25L64.5 120.75L65.25 119.25V118.5L66 117.75H66.75L67.5 117L69 116.25H70.5L71.25 115.5H90L91.5 114.75H93.75L95.25 114H97.5L99 113.25H100.5L102 112.5H103.5V111L104.25 110.25V108.75L105 107.25V106.5L105.75 105.75V105H104.25L102.75 105.75H102L100.5 106.5H98.25L97.5 107.25H94.5L93.75 108H88.5L87.75 108.75H69L66 110.25H64.5L63.75 111L62.25 111.75L58.5 115.5V116.25L57.75 117V117.75L57 118.5V120.75L56.25 121.5V129.75L55.5 131.25V132L54.75 132.75V133.5L54 134.25V135L52.5 136.5V138L51.75 138.75V139.5L51 140.25V145.5H48.75L48 146.25H46.5L45.75 147H45L44.25 147.75H42.75L42 148.5H41.25L40.5 149.25H39L38.25 150H37.5L36 151.5H35.25L34.5 152.25L33 153L32.25 153.75H30.75L27.75 156.75H27L21 162.75L20.25 164.25L19.5 165L18.75 166.5L18 167.25L17.25 168.75L16.5 169.5V170.25L15.75 171.75V180L16.5 181.5V183L17.25 184.5L18 185.25V186L18.75 186.75V187.5L24 182.25Z" fill="#010101"/>
<path fill-rule="evenodd" clip-rule="evenodd" d="M106.5 118.5V117L107.25 116.25V114L108.75 111V109.5L109.5 108.75V108L110.25 107.25V106.5L111.75 105L112.5 102.75L114 102L116.25 99.75H117L117.75 99H118.5L119.25 98.25H120.75L121.5 97.5H128.25L129 98.25H131.25L132 99H133.5L136.5 100.5L137.25 101.25L138.75 102L140.25 103.5L141 102.75H141.75L142.5 102L144 101.25H144.75L147 100.5L147.75 99.75L149.25 99H150L150.75 98.25H152.25L153 97.5H156L157.5 96.75H165L166.5 97.5L167.25 98.25H168.75L169.5 99L171 99.75H171.75L172.5 101.25H173.25L174 102.75L174.75 103.5L176.25 104.25V105.75L177 106.5V107.25L178.5 108.75L179.25 110.25L180 111L181.5 111.75L182.25 112.5H183L184.5 114L186 114.75H186.75L188.25 116.25H190.5L191.25 117H197.25L198 116.25H198.75L201 110.25H198.75L198 111H194.25L192.75 110.25L192 109.5H191.25L189.75 108.75H189L188.25 108L186.75 107.25L186 106.5L184.5 105.75L183.75 105L182.25 102L179.25 99L178.5 97.5L177 96.75L176.25 95.25L173.25 93.75L172.5 93L168 90.75H166.5L165 90H156.75L155.25 90.75H152.25L151.5 91.5H150L148.5 92.25L147.75 93H146.25L144.75 93.75H144L143.25 94.5H142.5L141.75 95.25V96L141 95.25H140.25L139.5 94.5H138.75L138 93.75L136.5 93H135L134.25 92.25H133.5L132.75 91.5H120L118.5 92.25H117.75L116.25 93H115.5L114 93.75L113.25 94.5H111.75L111 95.25L110.25 96.75L105 102L104.25 103.5V104.25L103.5 105L102.75 106.5V107.25L102 108V108.75L101.25 110.25V112.5L100.5 113.25V117.75L106.5 118.5Z" fill="#010101"/>
<path fill-rule="evenodd" clip-rule="evenodd" d="M198.5 116.25L207.75 123.75H208.5L210 125.25H210.75L212.25 126L214.5 128.25H216L216.75 129H217.5L218.25 129.75H220.5L221.25 130.5H223.5L224.25 131.25H225.75L227.25 132H228L229.5 132.75H230.25L231.75 133.5L232.5 134.25H233.25L237.75 138.75V141L239.25 142.5V144L240 145.5V150.75L239.25 152.25V153L237.75 154.5V156L237 156.75V157.5L236.25 159V159.75L237 160.5V162L237.75 162.75H239.25L240.75 163.5H248.25L249.75 164.25V165H250.5L258.5 177L264 175L255.5 162L253.5 159.75L252 159L251.25 158.25L249.75 157.5H244.5L243.75 156.75V156L244.5 155.25L245.25 153.75L246 153V143.25L245.25 142.5V141.75L244.5 140.25V138.75L242.25 134.25L237.75 129.75L236.25 129L234.75 127.5L233.25 126.75H232.5L231.75 126H229.5L228.75 125.25H226.5L225.75 124.5H224.25L223.5 123.75H221.25L220.5 123H219.75L219 122.25H218.25L216.75 121.5H216L215.25 120.75L213.75 120L213 119.25V118.5L211.5 117.75L200 111L198.5 116.25Z" fill="#010101"/>
<path fill-rule="evenodd" clip-rule="evenodd" d="M257.25 175.5L258 176.25V177L258.75 177.75V178.5L259.5 179.25V181.5L260.25 183V193.5L259.5 194.25V201V201.75L260.25 202.5V204L263.25 205.5L264 206.25L265.5 207L267 208.5L268.5 209.25V210L269.25 210.75L270.75 213.75L276 211.5V210L275.25 208.5V207.75L273.75 206.25V205.5L272.25 204.75L271.5 204L270.75 202.5L267.75 201L266.25 199.5L265.5 198V197.25L266.25 195.75V191.25L267 190.5V186L266.25 184.5V179.25L265.5 178.5V176.25L264.75 175.5V174.75L263.25 173.25V172.5L257.25 175.5Z" fill="#010101"/>
<path fill-rule="evenodd" clip-rule="evenodd" d="M60 204V203.25H60.75L63 201H63.75L64.5 200.25H65.25L66 199.5H68.25L69 200.25H69.75L71.25 201H72L77.25 206.25V207L78 207.75V209.25L78.75 210V210.75L84.75 209.25V207.75L84 207V205.5L83.25 204L82.5 203.25V201.75L78.75 198L78 196.5L72 193.5H63.75L63 194.25H61.5L60 195.75L57 197.25L56.25 198.75L54.75 200.25V201L54 201.75L60 204Z" fill="#010101"/>
<path fill-rule="evenodd" clip-rule="evenodd" d="M91.5 160.5V159.75L90.75 159V158.25L90 156.75V156L93.75 152.25H102.75L103.5 153L106.5 147.75H105.75L105 147H104.25L103.5 146.25H102H101.25L99.75 145.5H94.5L93.75 146.25H93L91.5 147H90L88.5 148.5L87 149.25L85.5 150.75L84 153.75V160.5L84.75 162V162.75L87 165L91.5 160.5Z" fill="#010101"/>
<path fill-rule="evenodd" clip-rule="evenodd" d="M158.25 138.75L157.5 138H153.75L152.25 137.25L151.5 138H150L149.25 138.75H148.5L147.75 139.5L147 141L145.5 142.5V144.75L144.75 145.5V146.25L145.5 147V150L146.25 150.75V151.5V152.25H140.25L139.5 150.75V147L138.75 145.5V143.25L139.5 141.75V140.25L140.25 139.5L141 138L141.75 137.25L142.5 135.75L144.75 133.5L147.75 132H148.5L150 131.25H156L157.5 132H158.25L161.25 133.5H162.75L158.25 138.75Z" fill="#010101"/>
<path fill-rule="evenodd" clip-rule="evenodd" d="M142.5 228.75L143.25 228V227.25H144L144.75 226.5H145.5L146.25 225.75H147.75L148.5 225H150L150.75 224.25H156.75L158.25 225H159.75L161.25 226.5L162.75 227.25V228.75L164.25 230.25V231H165V232.5V233.25H165.75L172.5 232.5H171.75V229.5L171 228.75L170.25 227.25V226.5L168 224.25L167.25 222.75L165.75 222L163.5 219.75H162.75L161.25 219H160.5L159 218.25H158.25L157.5 217.5H149.25L147.75 218.25H146.25L145.5 219H144L143.25 219.75H142.5L141 220.5V221.25H140.25L138.75 222L138 222.75L136.5 223.5L135.75 224.25V225L135 225.75L142.5 228.75Z" fill="#010101"/>
<path fill-rule="evenodd" clip-rule="evenodd" d="M216 168.75L219.75 172.5V173.25L221.25 174.75L222 176.25L222.75 177L223.5 178.5V180L224.25 181.5V182.25H225L226.5 181.5L228 180L229.5 179.25H230.25V178.5L229.5 177V176.25L228.75 175.5V174.75L228 173.25L227.25 172.5L226.5 171L225.75 170.25L224.25 167.25L222.75 166.5L222 165L220.5 164.25L216 168.75Z" fill="#010101"/>
<path fill-rule="evenodd" clip-rule="evenodd" d="M12 201V201.75L12.75 202.5V204L13.5 205.5L14.25 206.25V207.75L15 208.5V209.25L15.75 210V210.75L16.5 212.25V213L17.25 214.5L18 215.25L18.75 216.75V217.5L19.5 219L20.25 219.75L21.75 222.75V224.25L22.5 225.75L23.25 226.5L24.75 229.5L25.5 231L27 234L28.5 234.75L32.25 242.25L33.75 243.75L35.25 246.75L36.75 248.25L38.25 251.25L40.5 253.5L41.25 255L44.25 258L45 259.5L48.75 263.25L49.5 264.75L51 265.5L52.5 267L53.25 268.5L54.75 269.25L59.25 273.75H60L60.75 275.25H62.25L63 276.75H63.75V277.5L65.25 278.25L66 279H66.75V279.75L68.25 280.5L69 281.25H69.75L73.5 285H74.25L75.75 285.75L78 288H79.5L81 289.5L84 291L84.75 291.75H85.5L86.25 292.5H87L87.75 293.25H88.5L90 294.75H92.25L93.75 296.25H96L97.5 297.75H99.75L100.5 298.5H101.25L102.75 299.25H104.25L105.75 300H107.25L108.75 300.75H110.25L111.75 301.5H113.25L114.75 302.25H117.75L118.5 303H123.75L125.25 303.75H129L130.5 304.5H159.75L161.25 303.75H164.25L166.5 303H171L172.5 302.25H174L175.5 301.5H179.25L182.25 300H185.25L189.75 297.75H192L195 296.25H196.5L199.5 294.75L201.75 294L202.5 293.25L204.75 292.5L205.5 291.75L207.75 291L208.5 290.25L210.75 289.5L213.75 288L215.25 286.5L221.25 283.5L222.75 282L224.25 281.25L228 277.5L229.5 276.75L232.5 273.75L234 273L234.75 271.5L239.25 267L240 265.5L243.75 261.75L245.25 259.5L246 258L247.5 256.5L248.25 255L249.75 253.5L251.25 250.5L252.75 249L253.5 247.5L254.25 246.75L257.25 240.75L258 240L260.25 235.5L261 234.75L261.75 233.25V232.5L262.5 231L264 229.5V228L264.75 226.5L266.25 225V224.25L267 222.75V222L267.75 221.25V220.5L268.5 219V217.5L269.25 216.75V215.25L270 214.5V213L270.75 212.25V210.75L271.5 210V207.75L272.25 207V206.25L283.5 196.5V197.25L282.75 198V199.5L282 200.25V201.75L281.25 203.25V204L280.5 205.5L279.75 206.25V207.75L279 209.25V210.75L276.75 215.25V216.75L276 219L274.5 222L273.75 224.25L273 225.75L271.5 230.25L270 231.75L268.5 236.25L267.75 237.75L266.25 240L265.5 242.25L264 244.5L262.5 246L261.75 248.25L260.25 250.5L259.5 252.75L258 255L256.5 256.5L252 263.25L248.25 267L245.25 271.5L243 273L241.5 275.25L237.75 279L235.5 280.5L234 282.75L231.75 285L225 289.5L222.75 291.75L220.5 292.5L218.25 294L215.25 295.5L213 297L211.5 298.5L204.75 300.75L203.25 301.5L198.75 303L196.5 304.5H194.25L192 305.25L190.5 306L186 307.5H183.75L181.5 308.25L180 309H177.75L175.5 309.75H173.25L171 310.5H168.75L166.5 311.25H160.5L158.25 312H133.5L131.25 311.25H125.25L123 310.5H121.5L119.25 309.75H115.5L114 309H111.75L110.25 308.25H108.75L107.25 307.5H105L103.5 306.75H102L99 305.25H97.5L96 304.5H94.5L91.5 303H90L88.5 302.25L87.75 301.5L84.75 300H83.25L81.75 298.5L80.25 297.75L79.5 297L72 293.25L68.25 289.5L65.25 288L63.75 286.5L60.75 285L60 283.5L58.5 282.75L57 281.25L55.5 280.5L54.75 279L53.25 278.25L51 276L49.5 275.25L48.75 273.75L47.25 273L46.5 271.5L45.75 270.75L44.25 270L43.5 268.5L39 264L38.25 262.5L37.5 261.75L36.75 260.25L33 256.5L32.25 255L31.5 254.25L30.75 252.75L30 252L28.5 249L27 248.25L26.25 246.75L25.5 246L24.75 244.5L24 243.75L22.5 240.75L21.75 240L19.5 235.5L18.75 234.75L16.5 230.25L15.75 229.5L15 227.25L14.25 226.5V225L10.5 217.5L9.75 216.75L9 215.25V213.75L7.5 210.75V209.25L5.25 204.75V202.5L4.5 201.75L3.75 199.5V198L2.25 195V193.5L1.5 192V190.5L0.75 189L12 201Z" fill="#010101"/>
<path fill-rule="evenodd" clip-rule="evenodd" d="M96.75 302.25V309.75H97.5L98.25 310.5H99L99.75 311.25H100.5L101.25 312H102L103.5 312.75H104.25L105.75 313.5H107.25L108 314.25H110.25L111 315H113.25L114 315.75H117L117.75 316.5H119.25H120.75L121.5 317.25H126.75L127.5 318H132.75L134.25 318.75H157.5L158.25 318H163.5L164.25 317.25H169.5L170.25 316.5H174L174.75 315.75H177L178.5 315H180L180.75 314.25H183.75L184.5 313.5L186 312.75H186.75L188.25 312H189L189.75 311.25H191.25L192 310.5H192.75V300.75L200.25 298.5V315H199.5L198.75 315.75H198L197.25 316.5H196.5L195.75 317.25H195L192 318.75H191.25L189.75 319.5H189L188.25 320.25H186.75L185.25 321H184.5L183 321.75H181.5L180.75 322.5H177L176.25 323.25H174L172.5 324H170.25L168.75 324.75H165L163.5 325.5H153L151.5 326.25H142.5L141 325.5H129.75L128.25 324.75H123.75L122.25 324H118.5L117 323.25H114.75L113.25 322.5H110.25L108.75 321.75H108L107.25 321H105.75L105 320.25H102L101.25 319.5H100.5L99.75 318.75H98.25L97.5 318H96L94.5 317.25H93.75L93 316.5L91.5 315.75H90.75L90 315H89.25L88.5 314.25V297.75L96.75 302.25Z" fill="#010101"/>
<path fill-rule="evenodd" clip-rule="evenodd" d="M13.5 204V203.25L12.75 201.75V198L13.5 196.5V195L14.25 193.5V192.75L15 191.25L15.75 190.5L17.25 187.5L18.75 186L19.5 184.5L21 183.75L21.75 183L23.25 182.25L24.75 180.75H26.25L27 180H28.5H29.25L33 185.25H31.5L30 186H29.25L28.5 186.75L27 187.5H26.25L24 189.75L23.25 191.25L21.75 192.75L21 194.25V195L19.5 196.5V200.25L18.75 201.75L19.5 203.25V207.75L20.25 208.5V209.25L13.5 204Z" fill="#010101"/>
<path fill-rule="evenodd" clip-rule="evenodd" d="M120 111H118.5L117.75 110.25L116.25 109.5H115.5L113.25 108.75L111.75 108L116.25 102V102.75H117.75L118.5 103.5L120 104.25H120.75L122.25 105L120 111Z" fill="#010101"/>
<path fill-rule="evenodd" clip-rule="evenodd" d="M120 122.25H119.25L118.5 121.5H116.25L115.5 120.75H114L113.25 120H112.5L111 119.25L109.5 117.75H108.75L110.25 111.75H111V112.5H112.5V113.25H113.25L114 114H116.25L117 114.75L118.5 115.5H119.25L120 122.25Z" fill="#010101"/>
<path fill-rule="evenodd" clip-rule="evenodd" d="M63.75 134.25H70.5L72 135L69.75 141H68.25L66.75 140.25H60.75L63.75 134.25Z" fill="#010101"/>
<path fill-rule="evenodd" clip-rule="evenodd" d="M69.75 151.5V150.75H66L65.25 150H62.25L61.5 149.25H60.75L59.25 148.5V143.25H60.75L62.25 144H66L66.75 144.75H69L69.75 151.5Z" fill="#010101"/>
<path fill-rule="evenodd" clip-rule="evenodd" d="M57 152.25H60.75L62.25 153L63 153.75H64.5L65.25 154.5L59.25 158.25L58.5 157.5H57.75L57 156.75H55.5L54.75 156H54L52.5 155.25H49.5L57 152.25Z" fill="#010101"/>
<path fill-rule="evenodd" clip-rule="evenodd" d="M45 156.75H48.75L49.5 157.5H51L52.5 159H53.25L54 159.75H55.5L48.75 163.5H48L47.25 162.75L45.75 162H44.25L43.5 161.25H42.75L41.25 160.5H38.25L45 156.75Z" fill="#010101"/>
<path fill-rule="evenodd" clip-rule="evenodd" d="M33.75 162.75H35.25L36.75 163.5H39L39.75 164.25H41.25L42 165L45 166.5L39.75 171H39V170.25H38.25L36.75 169.5H36L35.25 168.75H33.75L32.25 168H31.5L30 167.25H28.5L33.75 162.75Z" fill="#010101"/>
<path fill-rule="evenodd" clip-rule="evenodd" d="M35.25 180.75H34.5L33 180H32.25L30.75 179.25H30L28.5 177.75H27L26.25 177L24.75 176.25H24L26.25 170.25H27L28.5 171L29.25 171.75H30.75L31.5 172.5L33 173.25H33.75L34.5 174H36L37.5 174.75L35.25 180.75Z" fill="#010101"/>
<path fill-rule="evenodd" clip-rule="evenodd" d="M72.75 131.25H67.5L66.75 130.5H64.5V124.5H66L66.75 125.25H72L72.75 131.25Z" fill="#010101"/>
<path fill-rule="evenodd" clip-rule="evenodd" d="M29.25 213V212.25H28.5L27.75 211.5L26.25 210.75H25.5L24.75 210V209.25L23.25 207.75H22.5L21.75 206.25H21V198.75L24 201.75L25.5 202.5L26.25 203.25H27L28.5 204L29.25 204.75V213Z" fill="#010101"/>
<path fill-rule="evenodd" clip-rule="evenodd" d="M30 200.25L29.25 199.5H28.5L27 198L25.5 197.25L24.75 196.5H24L22.5 195L27 189.75L28.5 191.25H29.25L30.75 192L32.25 193.5H33L33.75 194.25L30 200.25Z" fill="#010101"/>
<path fill-rule="evenodd" clip-rule="evenodd" d="M52.5 245.25H48.75L47.25 244.5H46.5L45 243.75H43.5L42 243H40.5L34.5 240L27.75 228V228.75L29.25 229.5H30L31.5 231L36 233.25H36.75L37.5 234H38.25L39.75 234.75L40.5 235.5H41.25L42 236.25H43.5L44.25 237L45.75 237.75H47.25L48 238.5L52.5 245.25Z" fill="#010101"/>
<path fill-rule="evenodd" clip-rule="evenodd" d="M80.25 286.5H89.25L90 285.75L105 296.25H102.75L102 295.5H99.75L98.25 294.75H96L93 293.25H91.5L90 292.5L89.25 291.75L86.25 290.25L85.5 289.5H84.75L83.25 288.75L82.5 288H81.75L80.25 286.5Z" fill="#010101"/>
<path fill-rule="evenodd" clip-rule="evenodd" d="M63 258.75H57L55.5 258H52.5L51 257.25H49.5L48 256.5H46.5L45.75 255.75L39 246.75L39.75 247.5H41.25L42 248.25H42.75L44.25 249H47.25H48L48.75 249.75H51L52.5 250.5H55.5L57 251.25L63 258.75Z" fill="#010101"/>
<path fill-rule="evenodd" clip-rule="evenodd" d="M75 271.5H62.25L60.75 270.75H60L51 261.75L51.75 262.5H54L54.75 263.25H59.25L60 264H60.75H67.5L75 271.5Z" fill="#010101"/>
<path fill-rule="evenodd" clip-rule="evenodd" d="M86.25 282H84L83.25 282.75H74.25L66 276H75.75H77.25H78.75L86.25 282Z" fill="#010101"/>
</g>
<defs>
<clipPath id="clip0">
<rect width="402.75" height="326.25" fill="white"/>
</clipPath>
</defs>
</svg>
