<?xml version="1.0" encoding="UTF-8" standalone="no"?>
<svg
   xmlns:dc="http://purl.org/dc/elements/1.1/"
   xmlns:cc="http://creativecommons.org/ns#"
   xmlns:rdf="http://www.w3.org/1999/02/22-rdf-syntax-ns#"
   xmlns:svg="http://www.w3.org/2000/svg"
   xmlns="http://www.w3.org/2000/svg"
   height="462.34219"
   width="904.07916"
   version="1.1"
   viewBox="0 0 904.07917 462.34219"
   id="svg2">
  <defs
     id="defs4" />
  <g
     transform="translate(295.22176,-281.58237)"
     id="layer1">
    <path
       d="m 209.36,157.35 c 5.1948,-1.473 -2.7176,-0.0384 2.7345,-1.6806 7.0913,-1.7495 14.562,-1.5089 21.342,-4.8428 8.091,-2.9411 16.656,-5.3177 23.539,-10.746 3.9209,1.487 -0.17981,13.741 8.6026,12.268 7.4903,-1.3876 10.229,6.7028 10.584,12.896 2.981,29.759 -2.463,59.484 -3.1882,89.216 0.22037,21.79 2.8146,43.853 -1.0026,65.453 -1.1382,9.462 -10.468,13.422 -18.112,16.064 -6.2826,2.1084 -12.071,6.3246 -18.901,4.0707 -4.7877,4.1833 -12.932,-1.3191 -5.7154,-5.4692 6.1613,-3.0216 13.797,-4.4112 16.627,-11.776 7.4964,-12.357 7.7598,-27.445 9.5378,-41.48 2.6486,-32.506 3.8706,-65.398 -8.7e-4,-97.851 -1.2142,-6.8937 -1.9112,-14.492 -6.2878,-20.145 -4.5539,-1.6149 -14.27,4.1293 -12.59,-5.3475 -5.2974,-4.7002 -13,-0.81397 -19.24,-0.47777 -2.6126,0.31128 -5.3814,0.76502 -7.929,-0.15082 z"
       style="fill:#ffffff;fill-opacity:0.38570999"
       id="path4479" />
    <g
       transform="matrix(0.57762,0,0,0.57762,-290.11,874.44)"
       id="g6554">
      <g
         transform="matrix(2.8596278,0,0,3.1170619,2060.5694,-3175.1711)"
         id="g5929">
        <path
           d="m -461.19,689.69 c -22.252,5.8091 -44.95,10.423 -66.92,17.31 -48.17,14.023 -96.089,30.703 -139.55,55.977 -19.931,12.218 -38.861,29.463 -44.188,53.118 -2.7047,10.767 -0.31741,22.242 -1.375,33 -3.1528,5.9328 -11.962,10.656 -9.8125,18.219 3.1818,6.817 12.025,6.6409 17.2,11.36 22.101,14.111 43.812,29.068 68.449,38.344 13.167,5.7409 27.543,9.2318 39.945,16.42 3.1919,1.3619 4.9252,4.2704 6.625,6.7188 6.4216,4.4607 13.054,-2.2942 19.25,-2.9062 22.634,12.64 49.633,7.2124 74.406,8.5 44.743,-0.5252 87.784,-14.366 130.81,-25.188 23.405,-6.8126 46.128,-16.133 68.812,-24.75 4.8015,-0.42862 8.2646,-3.6035 11.688,-6.4688 25.23,-11.024 51.977,-22.475 70.938,-43.188 10.55,-10.91 15.723,-25.338 22.344,-38.594 4.3142,-7.5644 15.907,-10.68 15.938,-20.531 -2.5997,-8.3463 -12.918,-9.2819 -19.399,-13.461 -7.9625,-2.5391 -12.637,-9.9166 -17.664,-16.102 -20.361,-21.273 -50.109,-28.796 -77.53,-36.595 -49.441,-12.778 -100.32,-20.147 -150.91,-25.405 -3.8084,0.0264 -5.7256,-5.0703 -9.9062,-4.7188 -3.037,-0.49076 -6.1092,-1.2211 -9.1562,-1.0625 z m 25.281,21.531 c 21.022,2.1963 41.922,5.0179 62.781,8.5625 -11.065,9.2931 -21.127,20.733 -31.969,29.625 -7.2422,-5.2514 -16.63,-3.164 -23.969,0.65625 -1.5201,-1.277 -2.0648,-5.1791 -4.3438,-6.7188 -4.0098,-4.3262 -10.791,-5.4958 -16.031,-3.25 -3.6592,-2.1646 2.2402,-3.9114 3.0938,-6.1562 4.4996,-5.0414 7.0278,-12.272 5.125,-18.875 1.1518,-2.6117 1.616,-5.4031 5.3125,-3.8438 z m -52.562,1.875 c 0.78105,2.773 3.0095,6.01 -1,7.4688 -3.9016,4.1381 -9.9096,3.0887 -14.219,5.875 -2.6267,3.0481 -6.1677,3.7882 -9.8438,3.3438 -6.3826,1.5702 -10.641,7.8239 -17.375,8.4688 -4.6524,2.2066 -6.7134,8.6587 -12.656,7.9375 -5.6868,0.96567 -8.7609,6.7095 -14.406,7.3125 -6.209,2.4143 -9.2033,9.3314 -16.25,10.25 -37.764,14.956 -77.345,27.73 -110.06,52.344 -2.3218,1.96 -5.5349,5.5239 -4.0938,0.28125 1.1125,-8.4402 6.8409,-15.119 9.9688,-22.625 -2.1123,-3.9748 3.5827,-5.3267 5.7812,-7.9688 29.97,-23.02 66.372,-35.129 101.32,-48.417 27.163,-9.3197 55.246,-17.992 82.835,-24.27 z m 150.19,12.9 c 14.366,2.8826 28.528,5.5313 42.625,9.375 -14.45,29.394 -34.248,57.565 -62.094,75.406 -4.1373,1.9554 -10.542,4.797 -14.094,4.25 -0.54112,-5.2609 6.3826,-5.9644 8.625,-9.7812 4.6674,-5.0615 9.8689,-11.619 9.1875,-18.75 -3.5115,-8.3296 -12.856,-11.379 -19.25,-16.969 -4.9307,-1.2074 3.1508,-5.0107 4.1875,-7.2812 10.334,-10.266 22.894,-19.73 28.875,-33.375 0.73306,-1.3705 -0.98494,-4.5102 1.9375,-2.875 z m -18.375,1.2188 c -5.6031,7.7713 -13.797,15.726 -21.622,22.222 -3.6732,2.5776 -4.8486,-2.3459 -0.23069,-3.7999 6.7765,-6.4557 13.51,-12.96 21.009,-18.672 l 0.84375,0.25 z m -114.15,0.53 c 2.0314,0.63487 7.2423,-1.1635 3.5,1.9062 -1.7298,4.0139 -3.8588,-1.4105 -3.5,-1.9062 z m 192.16,12.625 c 8.723,2.7515 17.474,5.6978 25.688,9.8125 -9.5392,13.758 -19.41,29.473 -36.424,34.431 -9.4811,4.2223 -19.114,8.092 -28.482,12.506 15.001,-16.34 27.009,-35.46 36,-55.688 0.0982,-2.6846 1.3052,-1.6026 3.2188,-1.0625 z m -174.88,12.906 c 3.2001,1.6448 7.4389,0.56984 10.281,0.15625 1.449,3.4365 -3.6417,2.2805 -5.0745,4.3299 -1.3839,0.99129 -3.5124,2.293 -3.5193,-0.57992 -0.37691,-1.2383 -2.0026,-3.5603 -1.6875,-3.9062 z m 216.03,4.375 c 4.6325,2.9644 10.331,7.9486 12.938,11.344 -7.0322,-3.1506 -16.973,-0.72509 -22.625,-0.21875 2.7371,-4.025 5.4273,-8.0839 8.375,-11.969 l 0.84118,0.54076 0.47132,0.30299 z m -168.53,9.4688 c 11.75,7.7482 23.734,15.006 34.781,23.781 -1.7205,1.9596 -3.4344,6.3246 -5.7188,6.4688 -4.4332,-5.0395 -14.373,-8.2764 -18.219,-0.9375 -1.26,2.1243 -1.1029,5.1556 -1.4062,7.1562 -4.6911,-3.1961 -12.621,-1.4973 -13.062,4.8438 0.0968,3.0748 -4.5267,-0.99447 -6.5938,-0.59375 -5.8878,-1.1121 -14.177,-2.5287 -18.281,2.7812 -3.3398,5.8855 2.9401,12.181 4.125,16.812 -4.782,2.6454 -9.9644,0.93918 -14.906,-0.0625 -6.6254,0.37072 -8.8636,9.1994 -4.6562,13.688 2.6595,3.3133 -6.3692,3.1912 -8.5605,5.139 -7.0214,2.5164 -14.133,5.57 -21.158,7.3923 -8.6277,-7.8273 -19.377,-12.571 -29.875,-17.438 34.831,-15.292 66.481,-37.451 94.062,-63.344 2.3717,-2.3545 4.5838,-4.873 6.6875,-7.4688 0.92708,0.59375 1.8542,1.1875 2.7812,1.7812 z m -158.03,10.12 c 0.9156,3.9811 2.0697,8.7627 6.2812,10.5 -0.0846,2.0015 0.43089,4.014 1.4062,5.75 -13.618,-4.643 -32.157,3.043 -34.25,18.312 -0.60728,3.1356 2.7151,6.8932 -2,7.625 -16.123,8.567 -30.704,20.5 -41.812,34.75 -5.9589,-1.6075 -11.839,-4.4476 -17.907,-6.2212 -9.6693,-3.7077 -20.894,-7.7222 -28.249,-14.341 22.692,-20.948 52.621,-31.189 80.653,-42.91 11.903,-4.6931 23.827,-9.3313 35.753,-13.965 l 0.125,0.5 z m 348.66,3.0312 c 3.2527,5.3519 7.825,10.549 9.625,16.406 -1.6349,7.0495 -6.0355,13.097 -8.5,19.906 -9.5905,19.826 -27.677,33.853 -47.04,43.515 -6.5599,3.5399 -13.274,6.7989 -19.96,10.11 5.8238,-24.772 6.3046,-50.553 12,-75.312 1.9886,-6.5852 10.329,-5.3237 15.376,-8.2079 9.7844,-3.7529 21.011,-6.2705 30.999,-1.8546 3.3776,0.71541 6.5643,-2.6025 7.5,-4.5625 z m -70.938,19.469 c -3.4223,19.983 -4.8333,40.172 -9.5541,59.954 -1.1684,6.8305 -2.512,13.693 -5.1022,20.14 -17.729,9.6168 -37.052,15.445 -56.281,21.344 4.1552,-26.104 10.573,-52.16 9.5312,-78.719 3.3634,-2.5673 8.094,-4.4939 11.12,-7.9798 1.8385,-1.463 3.645,-4.7143 4.7552,-1.239 3.2591,4.2058 8.7871,2.2203 12.499,-0.12712 11.149,-4.4658 22.119,-9.3652 33.189,-14.029 l -0.15625,0.65625 z m -223.12,15.062 c -0.41,1.4856 -2.127,-0.004 0,0 z m 113.88,7.75 c 1.5026,1.0624 -2.1767,0.46089 0,0 z m 33.062,6.0625 c -1.0599,26.075 -6.9624,51.589 -11.469,77.188 -40.98,10.319 -81.884,23.942 -124.5,24.062 -14.722,-0.98352 -30.355,-4.6696 -41.562,-14.594 3.6006,-15.894 18.31,-26.403 32.75,-32.25 41.286,-19.449 85.431,-31.837 127.53,-49.329 5.7424,-2.1843 11.494,-4.3264 17.316,-6.296 l -0.0512,0.99869 -0.0113,0.22006 z m -326.88,18 c 5.1182,5.6164 3.3684,-6.185 0,0 z m -9.6,-0.9 c 1.6261,0.31333 1.2669,-0.49228 0,0 z m -0.34375,0.34375 c 1.7242,0.18183 2.3205,-0.66786 0,0 z m 0,0 0.34375,-0.34375 -0.34375,0.34375 z m -0.40625,0.375 c 0.0429,-0.0577 -0.10364,-0.0325 0,0 z m 0,0 0.375,-0.34375 -0.375,0.34375 z m -0.0625,0.0312 c 0.10052,0.0375 0.14465,-0.0769 0,0 z m 0.0937,0 c 2.9727,0.0198 2.2887,-0.1057 0,0 z m -0.0625,0 c -0.0429,0.0577 0.10364,0.0325 0,0 z m 0.0312,0.0312 0,-0.0312 0,0.0312 z m 13.125,2.5 c -2.1662,-0.32769 -2.4886,-0.20696 0,0 z m -0.125,1.4375 c -2.1673,-0.25952 -2.4909,-0.12986 0,0 z m -0.0937,2.2188 c -2.0593,-0.21231 -3.262,-0.0813 0,0 z m -2,0.65625 c 2.6882,0.0285 2.6904,-0.15236 0,0 z m 1.25,1.3125 c -2.9061,0.32503 3.1393,2.4074 0,0 z m 67,6.0312 c 0.0549,3.8288 6.0668,1.1941 8.8125,2.1562 8.6785,0.83685 0.0533,-1.1302 -3.5625,-2.4062 -1.8689,-0.0256 -5.157,-3.3681 -5.25,0.25 z m 122.06,0.90625 c -10.714,2.444 2.1113,3.419 4.6094,1.2814 0.42387,-3.9576 -2.2977,-2.3311 -4.6094,-1.2814 z m -72.969,1.5 c 0.0769,-2.5173 0.021,-2.8047 0,0 z m -133.09,-1.0938 c 4.1584,2.1205 -0.39082,0.93857 0,0 z m 30.844,3.9375 c 1.4915,-2.2639 1.4926,-2.3867 0,0 z m 72.9,1.08 c 0.90808,-2.4258 0.68805,-2.8378 0,0 z m 1.4062,0.5625 c 1.523,-2.4374 1.2563,-2.326 0,0 z m -41,-0.84375 c -0.53848,5.0824 4.9409,-2.0746 0,0 z m 127,3.5 c -1.1185,-2.4234 -1.1959,-2.4586 0,0 z m -127.38,-1.47 c 2.7983,0.42197 2.4311,0.31092 0,0 z m -23.844,2.9062 c 1.4477,-2.2754 1.3715,-2.3107 0,0 z m 37.562,-0.28125 c 2.6174,3.9153 2.4322,-4.3323 0,0 z m 4.9375,1.6875 c 0.65398,-1.8842 0.54429,-2.5768 0,0 z m -67.54,-1.82 c 5.8501,3.3025 11.637,7.9241 17.75,11.281 -5.9987,-3.5204 -12.531,-7.5015 -17.75,-11.281 z m 69.25,2.25 c 0.72829,-2.5053 0.75333,-2.8712 0,0 z m -4.9062,-0.53125 c -2.1189,-0.41928 -3.1062,-0.37154 0,0 z m -33.15,2.41 c 1.42,-2.3262 1.3953,-2.4161 0,0 z m 33.062,-1.2188 c -2.6007,-0.28465 -2.9432,-0.24262 0,0 z m 15.44,2.09 c 0.63756,-2.482 0.61932,-2.6541 0,0 z m 14.125,-0.53125 c -1.7956,-1.4836 -2.4152,-1.781 0,0 z m -0.75,0.8125 c -1.357,-1.6425 -2.1859,-2.291 0,0 z m -28.906,-1.0938 c -2.0088,-0.31312 -2.6191,-0.0915 0,0 z m -29.875,1.75 c 1.3775,-2.3435 1.2734,-2.3274 0,0 z m 27.812,0.6875 c 2.8021,0.1446 2.5775,-0.10383 0,0 z m -21.531,2.7812 c 1.3437,-2.3835 1.3012,-2.4487 0,0 z m 115.28,-0.59375 c 1.7589,2.2575 1.6127,1.9357 0,0 z m -93.688,0.40625 c 2.8126,-0.0635 2.7103,-0.13928 0,0 z m -18.438,1.875 c 1.3344,-2.4567 1.2113,-2.419 0,0 z m 1.5938,0.8125 c 1.2649,-2.4618 1.1953,-2.4586 0,0 z m 16.906,-1.375 c 2.9496,-0.0694 2.5526,-0.27989 0,0 z m -13.875,0.6875 c 1.3477,7.313 2.5318,-2.6072 0,-0.0625 l 0,0.0625 z m 14.11,1.89 c 2.7893,-0.1936 2.7286,-0.26773 0,0 z m 0.125,1.3125 c 2.8256,-0.21798 2.6805,-0.35888 0,0 z m 86.812,0.0937 c 2.0638,2.0188 1.7683,1.6185 0,0 z m -86.5,2.4688 c 2.7833,-0.3414 2.658,-0.39273 0,0 z m 0.34375,2.5625 c 2.3734,3.6972 2.1942,-3.8926 0,0 z m 1.9375,-0.625 c 0.96034,-0.5246 -0.31405,-0.55957 0,0 z m 0.40625,2 c 1.421,-2.3891 1.2474,-2.388 0,0 z m 2.375,1.25 c 1.296,-2.3866 1.1576,-2.4206 0,0 z m 1.2188,0.59375 c 1.2044,-2.4447 1.1763,-2.5491 0,0 z m 1.1875,0.5625 c 1.1775,-2.5028 1.1102,-2.5042 0,0 z m 72.75,-1.2812 c 2.2854,1.5982 2.178,1.4185 0,0 z m -70.281,2.375 c 1.1198,-2.4862 1.0878,-2.5918 0,0 z m 1.25,0.53125 c 1.0928,-2.5216 1.0336,-2.5678 0,0 z m 3.75,1.5 c 1.0612,-2.5787 0.96767,-2.5148 0,0 z m 2.5,0.96875 c 1.0036,-2.5547 0.94832,-2.6158 0,0 z m 4.125,1.6562 c 1.1226,-2.4758 1.0232,-2.4476 0,0 z m 1.625,0.6875 c 1.1714,-2.6311 0.92025,-2.4787 0,0 z m 3.25,1.25 c 1.0662,-2.6362 0.85132,-2.5547 0,0 z m 3.3125,1.125 c 0.95217,-2.6047 0.72277,-2.5917 0,0 z m 3.3125,1 c 0.78682,-2.5968 0.64302,-2.575 0,0 z m 5.0625,1.3125 c 0.74655,-2.7113 0.57132,-2.6294 0,0 z m 3.4062,0.75 c 0.62069,-2.6842 0.55374,-2.7367 0,0 z m 3.4062,0.6875 c 0.61359,-2.747 0.4439,-2.6709 0,0 z m 5.1875,0.90625 c 0.48812,-2.7244 0.41852,-2.7154 0,0 z m 22.594,1.7812 c -1.6126,5.3437 5.6426,-0.71558 0,0 z m -42.438,7.3125 c 7.6132,2.028 15.432,3.2168 23.25,4.375 -4.1018,1.2151 -9.2928,6.0092 -12.469,1.25 -3.0461,-2.6489 -7.9313,-4.5289 -10.781,-5.625 z m 47.562,10.031 c 1.1946,-0.0926 4.4438,3.2978 1.4062,2.0938 -1.6777,-0.42667 -7.0564,-0.53973 -2.6562,-1.7812 0.40403,-0.15231 0.82316,-0.2626 1.25,-0.3125 z"
           style="fill:#000000;stroke:#000000;stroke-width:0.59996003px"
           id="path3391-9" />
        <path
           d="m -459.43,695.4 c -0.3303,0.039 -0.7259,0.2171 -1.2374,0.5437 -0.7777,0.4968 -3.3821,1.21 -5.7934,1.5749 -2.4111,0.3649 -11.59,2.4312 -20.398,4.5934 -51.295,12.592 -98.982,28.389 -138.42,45.878 -28.199,12.505 -38.942,18.623 -54.034,30.748 -9.1295,7.3347 -14.98,13.425 -18.355,19.105 -3.3098,5.5713 -7.5895,15.872 -8.6244,20.755 -0.9385,4.4294 -1.136,21.404 -0.3187,27.148 0.4135,2.9053 0.3196,3.5149 -0.8624,5.0997 -0.7384,0.9899 -1.8343,2.7463 -2.4186,3.8997 -0.5843,1.1534 -2.6882,3.8054 -4.6871,5.887 -2.8178,2.9344 -3.5077,3.99 -3.0561,4.706 0.3204,0.508 3.4798,2.2202 7.0308,3.806 3.5509,1.5857 9.7639,5.1246 13.799,7.8556 19.976,13.521 24.403,16.279 34.666,21.674 16.455,8.6495 33.946,16.083 55.44,23.567 6.7118,2.337 10.89,4.0989 11.099,4.6871 0.1844,0.519 2.0061,2.0429 4.0685,3.3748 2.9682,1.9169 3.7497,2.7209 3.7497,3.9185 0,2.2418 2.0327,1.9909 9.6368,-1.2187 l 6.4871,-2.7373 4.3871,2.3811 c 5.5635,3.0273 12.916,5.3115 20.586,6.3745 8.5119,1.1797 61.42,0.7717 72.595,-0.5624 21.925,-2.6176 32.038,-4.7111 71.695,-14.774 16.994,-4.312 31.978,-8.0612 33.298,-8.3431 4.8151,-1.0285 64.045,-22.37 66.295,-23.886 2.5634,-1.7268 4.8693,-2.5103 6.2808,-2.156 1.0534,0.2643 1.8127,-0.1921 3.3935,-2.0249 1.6764,-1.9435 3.5024,-2.9588 10.424,-5.8121 15.465,-6.3749 33.979,-16.084 45.578,-23.886 9.3713,-6.303 19.035,-15.718 24.43,-23.83 3.5524,-5.3416 11.184,-20.495 13.18,-26.154 1.2635,-3.5829 1.9193,-4.4527 6.2057,-8.2682 7.8912,-7.024 11.099,-10.33 11.099,-11.418 0,-0.7448 -3.3657,-2.6748 -12.149,-6.9558 -6.682,-3.2567 -12.714,-6.4129 -13.405,-7.012 -0.6912,-0.599 -3.2644,-3.6523 -5.7371,-6.787 -8.3286,-10.558 -15.088,-16.029 -27.373,-22.198 -27.647,-13.884 -69.424,-24.651 -137.22,-35.341 -23.974,-3.7802 -62.058,-8.5976 -67.364,-8.5306 -1.9082,0.024 -2.674,-0.236 -2.9435,-0.9937 -0.7874,-2.2145 -3.3612,-3.6901 -6.5058,-3.7123 -1.6664,-0.012 -3.3328,-0.3142 -3.6935,-0.6749 -0.2372,-0.2372 -0.4946,-0.3395 -0.8249,-0.3 z m 0.6562,5.1747 c 0.9446,-0.022 1.9089,0.3093 2.2499,0.9186 0.5667,1.0126 4.0917,2.0208 7.1245,2.0436 3.1627,0.024 3.3612,1.0867 1.0123,5.2684 -2.0399,3.632 -2.1866,3.7498 -4.5371,3.7498 -4.1285,-1e-4 -7.0685,1.2809 -10.687,4.6309 -2.7719,2.5664 -3.823,3.1616 -5.4558,3.131 -2.1331,-0.04 -4.7247,-0.8607 -4.7247,-1.4999 0,-0.2089 1.6063,-2.3683 3.5623,-4.7997 1.9559,-2.4313 4.8507,-6.2556 6.4308,-8.4931 1.58,-2.2375 3.146,-4.2572 3.4872,-4.4997 0.4056,-0.2881 0.9707,-0.437 1.5374,-0.4499 z m -7.7057,1.1249 c 0.3902,-0.017 0.6518,0.02 0.7312,0.094 0.5775,0.5378 -2.0357,4.4322 -7.2932,10.912 -1.8745,2.3103 -3.746,4.0497 -4.3685,4.0497 -1.2647,0 -3.2208,-2.5491 -3.806,-4.9684 -0.477,-1.972 0.4845,-5.9918 1.6687,-6.9746 1.046,-0.8681 10.337,-2.9936 13.068,-3.1122 z m 24.617,2.8873 c 3.5484,0.1224 28.144,3.0138 42.166,4.9871 10.729,1.5099 38.026,5.9257 39.297,6.3558 0.7258,0.2455 0.655,0.492 -0.375,1.3124 -7.694,6.1283 -17.827,15.326 -29.06,26.361 l -13.593,13.349 -3.9373,-1.7811 c -2.1643,-0.9814 -4.1034,-2.0621 -4.3121,-2.3999 -0.5403,-0.8741 -4.9437,-0.7562 -8.1182,0.225 -1.4849,0.459 -5.349,1.8125 -8.6056,2.9998 -3.2567,1.1874 -6.024,2.1561 -6.1496,2.1561 -0.3118,0 -0.3132,0.084 -0.5437,-3.4123 -0.5235,-7.9372 -5.2509,-11.36 -12.262,-8.8868 -2.1628,0.7631 -2.752,0.7662 -4.1247,0.056 -1.5949,-0.8249 -4.7517,-4.3722 -5.9245,-6.6557 -0.8999,-1.7521 -0.4398,-2.5109 4.3122,-7.1808 2.3643,-2.3234 4.7934,-5.287 5.3996,-6.5995 1.2491,-2.7049 1.3724,-6.7165 0.2812,-8.7557 -0.6449,-1.2049 -0.4136,-2.0223 1.8936,-6.6182 1.4463,-2.8811 2.8948,-5.3482 3.2248,-5.4934 0.04,-0.018 0.1947,-0.027 0.4312,-0.019 z m -41.097,0.7687 c 0.2574,-10e-5 0.4687,1.989 0.4687,4.4059 0,3.869 0.1973,4.6369 1.6499,6.5433 0.9075,1.1908 1.6499,2.4536 1.6499,2.7935 0,0.7899 -6.5436,6.2631 -10.612,8.8681 -2.4738,1.5842 -3.7461,1.9874 -6.1309,1.9874 -2.7153,0 -3.3122,0.2631 -6.0558,2.6999 -2.6504,2.3539 -3.3707,2.6998 -5.7371,2.6998 -4.7984,0 -7.9126,1.1666 -11.249,4.1997 -2.3228,2.1115 -3.7662,2.9189 -5.7183,3.2247 -3.8634,0.6052 -5.7806,1.8317 -8.4744,5.3997 -2.3995,3.1781 -2.4562,3.2033 -6.2995,3.5621 -4.4632,0.4168 -6.8777,1.4894 -8.6432,3.8436 -2.2633,3.0178 -2.496,3.1685 -4.9309,3.1685 -1.3286,0 -3.0103,0.3054 -3.731,0.675 -1.8986,0.9734 -5.2121,4.2412 -5.2121,5.137 0,1.095 -2.1564,2.0721 -12.13,5.5309 -4.849,1.6816 -11.99,4.4369 -15.88,6.1309 -3.8901,1.6939 -11.021,4.5038 -15.843,6.2432 -4.8214,1.7395 -13.056,5.0045 -18.299,7.237 -9.5634,4.0723 -35.462,16.914 -41.641,20.661 -7.5772,4.5949 -15.62,10.742 -20.605,15.73 -2.9234,2.9248 -5.3876,5.2387 -5.4746,5.1371 -2.5804,-3.0092 -3.4973,-12.628 -1.8187,-19.086 1.3339,-5.1321 4.3828,-11.591 7.162,-15.205 2.4709,-3.2134 2.4169,-4.2656 -0.1125,-2.3811 -2.6056,1.9413 -6.5057,8.2581 -8.5682,13.893 -3.29,8.9887 -3.0461,18.023 0.6563,24.298 1.1426,1.9365 1.1494,2.2071 0.2625,5.5684 -0.9174,3.4766 -1.9789,12.669 -1.8561,16.068 0.089,2.473 -0.8295,2.491 -3.9935,0.075 -3.5441,-2.706 -3.7498,-3.8064 -3.7498,-20.717 0,-14.758 0.209,-15.697 5.9808,-27.898 4.4353,-9.3756 8.5531,-14.247 19.33,-22.892 10.447,-8.3807 16.439,-12.46 26.286,-17.849 7.6478,-4.1852 31.4,-15.125 44.434,-20.474 29.82,-12.235 79.781,-28.346 113.49,-36.597 6.0121,-1.4719 11.142,-2.6809 11.399,-2.681 z m 28.986,8.9994 c 1.2569,0 1.7811,0.3019 1.7811,0.9936 0,0.5411 -1.5524,3.9745 -3.4498,7.6307 -2.6925,5.1887 -4.4807,7.7283 -8.1744,11.605 -2.6028,2.7321 -5.1676,4.9685 -5.6996,4.9685 -1.206,-1e-4 -3.3773,-2.6933 -6.3745,-7.912 -1.5232,-2.652 -2.9002,-4.264 -4.0122,-4.7247 -0.9279,-0.3843 -1.6874,-0.8933 -1.6874,-1.1249 0,-0.2315 1.3483,-1.5029 2.981,-2.831 l 2.9623,-2.4186 3.4872,0.8999 c 4.5191,1.1774 6.3229,0.6815 9.2806,-2.5685 2.5352,-2.7857 5.9528,-4.5184 8.9057,-4.5184 z m 97.643,2.531 c 4.4314,0.01 42.507,7.5712 58.308,11.624 5.7558,1.4763 10.553,2.7723 10.668,2.8873 0.6298,0.6298 -9.7635,20.232 -15.861,29.923 -12.829,20.388 -20.295,29.31 -35.154,42.016 -11.24,9.611 -17.186,13.896 -20.548,14.774 -1.6327,0.4265 -7.4018,2.0977 -12.824,3.7123 -11.64,3.4662 -12.218,3.5272 -10.18,1.2749 0.8207,-0.9074 1.8273,-2.0865 2.2311,-2.6248 1.0293,-1.372 2.4936,-7.3259 2.4936,-10.106 0,-2.2042 0.1813,-2.4293 3.4497,-4.2934 1.8974,-1.0823 4.6647,-3.2306 6.1496,-4.7623 2.4249,-2.5013 6.9734,-9.3862 7.9869,-12.112 0.6846,-1.8407 -2.9874,-5.0925 -13.799,-12.262 -5.7018,-3.781 -10.526,-7.1409 -10.724,-7.462 -0.1985,-0.3211 3.3585,-4.1578 7.9119,-8.5119 15.338,-14.666 25.252,-24.892 27.748,-28.629 4.3693,-6.5431 3.2749,-9.4201 -5.0246,-13.255 -2.5972,-1.2002 -3.7919,-2.0317 -3.1498,-2.1748 0.071,-0.016 0.1758,-0.019 0.3188,-0.019 z m -92.637,1.7437 c 0.262,-0.024 0.4077,0.3072 0.4499,0.9749 0.2542,4.0193 -0.7832,6.2202 -4.8934,10.33 -3.1626,3.1625 -4.9661,4.036 -3.431,1.6686 0.4814,-0.7424 2.2824,-3.9822 4.0122,-7.1995 2.1085,-3.9215 3.2857,-5.7219 3.8623,-5.7745 z m 89.862,1.5561 2.5122,0.7499 c 3.9035,1.1532 6.9943,3.1227 7.3871,4.6872 0.2569,1.0242 -0.2284,2.2664 -1.7812,4.5184 -3.0358,4.4029 -12.849,14.66 -20.774,21.711 -3.7091,3.2997 -7.0813,6.0736 -7.4808,6.1683 -0.3993,0.095 -1.2089,-0.3595 -1.7998,-1.0125 -0.5909,-0.6529 -3.206,-2.3001 -5.8121,-3.6559 -2.6061,-1.3559 -4.7434,-2.6982 -4.7434,-2.9811 0,-0.8075 16.927,-16.891 25.104,-23.867 l 7.3871,-6.3183 z m -124.6,8.3619 c 0.505,0 1.0605,0.072 1.6125,0.225 1.6817,0.4643 2.4773,1.3062 4.3871,4.6309 1.2822,2.2319 3.7348,5.8046 5.4559,7.9494 1.7211,2.1449 4.0278,5.3847 5.1184,7.1995 1.0906,1.8149 2.7273,4.1845 3.656,5.2684 0.9287,1.0839 1.6874,2.4846 1.6874,3.1123 0,0.6276 1.2487,2.9642 2.7748,5.1934 1.5261,2.229 3.0166,4.8623 3.2997,5.8496 0.5302,1.8483 0.3437,2.7331 -0.3374,1.6311 -0.3517,-0.5691 -1.9294,-1.0734 -6.4871,-2.0999 -1.5468,-0.3483 -1.6499,-0.5851 -1.6499,-3.581 0,-3.457 -0.5258,-4.2333 -4.0497,-6.0183 -1.7151,-0.8688 -1.9498,-1.2803 -1.9498,-3.4123 0,-3.146 -0.6765,-4.339 -3.431,-5.9808 -3.0939,-1.8441 -3.7685,-2.8126 -3.7685,-5.4934 0,-3.7088 -1.3608,-6.1616 -4.4435,-7.9681 -2.786,-1.6328 -4.5559,-3.5369 -4.5559,-4.9122 0,-0.9874 1.1665,-1.6023 2.681,-1.5936 z m -5.2308,3.7497 c 0.5776,0.054 1.3865,0.6082 2.5686,1.7624 1.2319,1.2028 3.2092,3.0426 4.4059,4.0685 2.0488,1.7561 2.1748,2.0735 2.1748,5.437 0,3.8098 0.7888,5.0133 4.9497,7.5933 1.4058,0.8717 1.6499,1.419 1.6499,3.7309 0,2.0808 0.3518,3.0704 1.4811,4.1997 0.8099,0.81 1.876,1.4625 2.3624,1.4625 1.8131,0 2.8664,1.8268 2.456,4.2559 -0.3291,1.9482 -0.1661,2.5337 1.125,3.8247 0.8369,0.837 2.2001,1.5187 3.0185,1.5187 2.6546,-10e-5 4.5559,1.0572 4.5559,2.531 0,0.8359 -0.7994,2.0109 -2.0623,3.0186 l -2.0624,1.6499 -1.2749,-1.8187 c -0.7066,-0.9924 -2.1087,-2.2183 -3.1123,-2.7373 -1.7119,-0.8853 -1.8056,-1.1103 -1.5186,-3.656 0.3477,-3.0854 -0.7228,-4.6754 -3.5997,-5.3433 -3.5421,-0.8225 -4.3685,-1.799 -4.3685,-5.2309 0,-3.8599 -0.8225,-5.1098 -4.2559,-6.3746 l -2.6436,-0.9561 -0.3,-3.731 c -0.3666,-4.5483 -1.6874,-6.0993 -6.8995,-8.1182 -5.6157,-2.1752 -7.1115,-6.411 -2.2686,-6.4308 1.2478,-0.01 2.6538,-0.2533 3.1123,-0.5437 0.1466,-0.093 0.3137,-0.1304 0.5062,-0.1125 z m 204.15,0.1875 c 2.6176,0.1281 10.022,2.5312 22.948,7.4432 14.296,5.4321 18.05,7.2147 17.624,8.3245 -0.516,1.3445 -14.526,20.345 -18.58,25.198 -5.78,6.9194 -10.34,10.592 -16.349,13.162 -2.9422,1.2583 -9.2768,4.0405 -14.062,6.1871 -4.7846,2.1465 -13.204,5.8599 -18.711,8.2494 -10.533,4.5702 -15.486,7.1609 -15.486,8.1182 0,0.316 0.166,0.5812 0.3562,0.5812 0.4229,0 21.676,-8.9285 36.991,-15.543 10.322,-4.4578 13.049,-5.4156 13.049,-4.5372 0,0.1782 -0.5057,1.3256 -1.125,2.5499 -1.7529,3.4658 -2.9913,9.9735 -4.5934,24.054 -1.6612,14.6 -2.6691,20.795 -6.9182,42.672 -3.4183,17.599 -4.9973,23.442 -6.7871,25.123 -0.6994,0.6569 -4.3619,2.5741 -8.1369,4.2559 -3.775,1.6819 -7.1477,3.3078 -7.4994,3.5998 -1.612,1.3378 -27.944,10.446 -43.46,15.036 -4.422,1.3084 -8.1162,2.3811 -8.2119,2.3811 -1.1127,0 0.7143,-13.432 3.881,-28.498 4.0286,-19.166 6.0498,-37.39 6.0558,-54.371 l 0,-8.1557 2.6998,-1.0312 c 1.4829,-0.5663 3.5752,-1.8083 4.6497,-2.756 1.0744,-0.9477 4.7847,-3.9575 8.2494,-6.6933 8.8704,-7.0043 19.36,-17.676 25.592,-26.042 5.5179,-7.4072 18.492,-27.865 21.655,-34.141 2.2995,-4.5633 5.4667,-13.563 5.1184,-14.549 -0.1616,-0.4571 0.1773,-0.6614 1.0499,-0.6187 z m -213.45,0.4687 c 0.1652,0 0.4748,1.0172 0.6749,2.2686 0.4443,2.7782 2.6907,5.0604 6.3746,6.4495 3.9427,1.4868 5.615,3.5284 5.2308,6.3933 -0.4999,3.7276 0.05,4.7087 3.5623,6.2621 l 3.206,1.4061 0,3.2436 c 0,3.9931 1.0213,5.3815 5.0996,6.9369 2.9785,1.1361 3.0113,1.1748 2.8498,3.6186 -0.1943,2.9414 0.5668,4.5856 2.3999,5.1558 1.3196,0.4105 5.8496,4.8239 5.8496,5.6996 0,0.2428 -0.8358,0.744 -1.8749,1.1062 -1.0392,0.3623 -2.4566,0.6367 -3.1498,0.6187 -1.5894,-0.042 -5.9045,-4.7784 -6.5245,-7.1619 -0.3353,-1.2891 -0.9214,-1.8711 -2.0999,-2.1187 -3.0228,-0.6348 -3.4413,-1.1561 -3.4497,-4.2559 -0.01,-3.6675 -0.3364,-4.1783 -3.7873,-5.8121 -2.3103,-1.0938 -2.8262,-1.6287 -2.9623,-3.1123 -0.3438,-3.7513 -0.7842,-4.574 -2.8498,-5.4371 -1.1325,-0.4732 -2.8477,-0.8624 -3.8247,-0.8624 -2.4162,0 -3.4236,-1.1924 -3.8997,-4.6122 -0.4922,-3.5356 -1.2812,-4.6043 -4.5935,-6.3558 -3.5579,-1.8815 -4.2909,-3.241 -2.4748,-4.5372 0.7713,-0.5503 2.4261,-1.8711 3.6748,-2.9435 1.2486,-1.0725 2.4032,-1.9499 2.5686,-1.9499 z m 37.928,3.0748 0.7499,2.5123 c 0.9135,3.0743 5.125,8.0789 7.687,9.1493 1.5967,0.6672 2.4463,0.6441 5.5497,-0.1874 4.3561,-1.1672 6.0757,-0.6558 7.9494,2.3811 0.9295,1.5066 1.1743,2.8042 1.0499,5.5683 -0.1838,4.0826 0.7428,3.291 -9.7681,8.2495 -2.9698,1.4009 -5.5346,2.6173 -5.6996,2.6998 -0.61,0.3049 -5.9523,-8.2912 -6.562,-10.556 -0.3471,-1.2892 -1.0851,-2.7175 -1.6312,-3.1685 -1.3743,-1.135 -6.2057,-8.7539 -6.2057,-9.7868 0,-0.4642 1.5577,-2.2026 3.4497,-3.8622 l 3.431,-2.9998 z m -49.703,2.1373 c 1.4365,-0.033 1.6696,0.289 2.2311,1.9874 0.5285,1.5987 1.4076,2.4879 3.6935,3.7122 3.1874,1.7072 4.4141,3.7392 4.4809,7.4995 0.045,2.5101 2.1644,4.1546 6.0371,4.6872 3.427,0.4713 3.75,0.8128 4.1809,4.4997 0.2952,2.5257 0.4934,2.8034 3.2998,4.2559 l 2.9998,1.5561 -0.1688,2.9436 c -0.221,3.6709 0.7364,5.0912 3.7873,5.5871 1.9736,0.3208 2.3884,0.6517 2.8122,2.2873 0.3028,1.1686 1.1965,2.3367 2.2874,2.981 1.4609,0.863 1.7811,1.4384 1.7811,3.2061 0,1.4882 -0.4332,2.5908 -1.3874,3.4872 -1.7178,1.6139 -2.0209,1.6232 -2.5123,0.075 -0.2337,-0.7364 -1.6907,-1.8202 -3.6372,-2.681 -2.3498,-1.0392 -3.2623,-1.7501 -3.2623,-2.6061 0,-2.2011 -0.7277,-3.147 -3.656,-4.6309 -2.6265,-1.3309 -2.9564,-1.7292 -3.3185,-3.9935 -0.4572,-2.8591 -2.3227,-5.0275 -4.8184,-5.6246 -2.5745,-0.616 -3.206,-1.3728 -3.206,-3.8622 0,-2.412 -1.3118,-3.9066 -5.3247,-6.0934 -1.0316,-0.5621 -2.1543,-1.777 -2.5123,-2.6998 -2.1033,-5.4216 -3.0383,-6.6125 -6.7495,-8.6618 -3.2344,-1.7861 -3.7122,-2.2791 -3.7122,-3.806 0,-2.1206 2.556,-3.852 5.9808,-4.0684 0.2586,-0.016 0.4884,-0.033 0.6937,-0.038 z m -10.18,6.3933 c 0.7969,-0.027 1.2191,0.095 1.3123,0.375 0.1204,0.3613 1.7514,1.4478 3.6373,2.3998 4.1376,2.0887 4.5856,2.5698 5.9808,6.6933 0.8519,2.5178 1.664,3.651 3.731,5.1559 4.3749,3.1852 4.7434,3.6425 4.7434,5.8684 0,2.3279 1.7043,4.4996 3.5248,4.4996 1.7503,0 4.2747,2.3177 4.2747,3.9185 0,2.5066 1.1959,4.1725 4.0872,5.6996 2.3705,1.252 2.8597,1.8188 3.1123,3.581 0.2313,1.6138 0.7123,2.2694 2.0998,2.8685 3.7569,1.6221 4.799,2.3039 4.9872,3.2811 0.1334,0.6931 -0.3191,1.1226 -1.4812,1.3686 -0.9293,0.1967 -2.1644,0.6086 -2.7373,0.9186 -1.0991,0.5948 -3.2601,0.6766 -4.5184,0.1688 -0.4125,-0.1664 -0.744,-1.1674 -0.75,-2.2123 -0.014,-2.8247 -0.6744,-3.4197 -4.8746,-4.5184 -3.7892,-0.9912 -3.8192,-1.0155 -3.881,-3.1686 -0.095,-3.3077 -0.5183,-3.9164 -3.956,-5.6434 -1.7479,-0.878 -3.2815,-1.7001 -3.4122,-1.8186 -0.1307,-0.1184 -0.4584,-1.6356 -0.7312,-3.3747 -0.7002,-4.4639 -1.5037,-5.6424 -5.4559,-8.0432 -2.5003,-1.5189 -3.5685,-2.5589 -3.806,-3.7123 -0.9027,-4.3861 -1.3262,-5.2769 -3.1498,-6.5057 -1.0694,-0.7207 -2.9928,-1.4895 -4.2747,-1.7061 -3.541,-0.5983 -4.5284,-1.5261 -3.8247,-3.6373 0.4977,-1.4928 0.9865,-1.8274 3.506,-2.2499 0.7513,-0.1259 1.378,-0.1898 1.8562,-0.2062 z m -8.6807,2.8686 c 0.3326,-0.017 0.4875,0.3498 0.4875,1.1062 0,1.8083 2.0702,3.3322 5.9996,4.4246 3.9099,1.0871 5.0193,2.2361 5.6621,5.9058 0.4021,2.2959 2.46,4.4809 5.8683,6.2434 2.0336,1.0516 3.4685,4.0376 3.4685,7.162 0,2.2967 1.9501,4.6846 4.4247,5.4371 2.2975,0.6986 3.3747,2.1213 3.3747,4.4434 0,2.715 1.3932,4.1224 4.5747,4.6122 3.1497,0.4848 4.4624,1.2308 4.0497,2.3061 -0.6641,1.7307 0.3327,3.745 2.1749,4.3872 2.2165,0.7726 2.2676,1.4492 0.225,3.056 -2.1436,1.6862 -3.2206,1.5604 -5.3809,-0.6 -1.0988,-1.0987 -3.0141,-2.131 -4.7809,-2.5872 -2.7727,-0.7165 -2.9379,-0.8859 -2.7748,-2.5686 0.2544,-2.6254 -1.6679,-4.6231 -5.9059,-6.1684 l -3.6747,-1.3311 0.4125,-2.9248 c 0.3602,-2.6189 0.2428,-3.0794 -1.0875,-4.3122 -0.8181,-0.7582 -2.8685,-1.8868 -4.5559,-2.4935 -1.6873,-0.6068 -3.2472,-1.3856 -3.4685,-1.7437 -0.2213,-0.3582 -0.4253,-2.6189 -0.45,-5.0246 -0.055,-5.3416 -0.9894,-6.5244 -7.2557,-9.1682 -3.853,-1.6255 -4.2144,-1.9324 -4.6309,-3.9371 -0.3805,-1.8319 -0.2147,-2.5056 1.1062,-4.2373 0.9969,-1.3071 1.7097,-1.9653 2.1373,-1.9873 z m 288.17,1.7249 c 1.578,0 11.455,6.5206 15.468,10.218 6.7539,6.2233 20.428,24.473 24.786,33.073 l 1.5749,3.1311 -1.6499,4.8371 c -2.3042,6.7297 -10.314,22.904 -14.718,29.735 -2.4505,3.801 -5.7983,7.802 -10.068,12.018 -10.804,10.668 -21.666,17.669 -47.509,30.598 -8.5639,4.2844 -15.829,7.7808 -16.161,7.7808 -0.7816,0 -0.785,-0.1774 0.2624,-4.7997 4.4348,-19.57 7.6808,-39.767 9.6181,-59.996 1.1387,-11.89 2.9352,-20.399 5.3246,-25.254 l 1.8749,-3.8435 6.5995,-2.4186 c 14.104,-5.1708 25.494,-8.0806 31.61,-8.0806 1.6451,0 5.0247,0.6816 7.5182,1.5186 4.8709,1.6351 6.1552,1.5128 3.7685,-0.375 -4.1167,-3.2562 -6.0223,-3.8406 -12.299,-3.7872 -6.2678,0.053 -12.81,1.415 -22.667,4.7434 -2.5702,0.8679 -4.9425,1.4835 -5.2871,1.3686 -0.3447,-0.1148 1.0081,-2.1556 3.0185,-4.5559 4.0679,-4.8568 14.901,-19.923 16.949,-23.567 0.7259,-1.2914 1.6135,-2.3435 1.9874,-2.3435 z m -153.44,4.7996 c 3.0236,0 11.575,5.2578 11.53,7.087 -0.014,0.5606 -1.0561,2.1599 -2.3249,3.5623 -1.2687,1.4024 -2.572,2.5498 -2.8872,2.5498 -0.5221,0 -10.487,-6.6335 -11.83,-7.8744 -0.8619,-0.7965 3.8259,-5.3247 5.5121,-5.3247 z m -142.06,0.2812 c 1.6671,-0.025 1.8348,0.2751 2.0998,1.3312 0.2845,1.1331 1.5178,1.9836 5.3996,3.7685 2.7673,1.2724 5.3205,2.8701 5.6809,3.5435 0.3603,0.6733 0.6286,3.0004 0.5812,5.1746 -0.1018,4.692 0.902,6.1683 5.3621,7.8182 3.7368,1.3823 4.3463,2.2085 3.5998,4.9122 -0.8279,2.9979 0.6146,4.766 5.2121,6.3933 l 3.581,1.2749 0.2062,2.681 c 0.2429,3.4139 0.7436,4.002 3.9373,4.4809 1.4297,0.2145 3.1089,0.7588 3.731,1.2187 1.0666,0.7887 1.0055,0.9022 -0.975,1.7437 -1.1549,0.4907 -3.025,1.8566 -4.1622,3.0372 -1.1371,1.1807 -2.5109,2.1374 -3.056,2.1374 -1.0516,0 -2.6303,-3.1097 -3.281,-6.4495 -0.4121,-2.1152 -1.7523,-3.1498 -4.0872,-3.1498 -1.06,-1e-4 -1.8359,-0.6095 -2.7373,-2.1374 -0.81,-1.3728 -2.2091,-2.5435 -3.9186,-3.2998 -2.0436,-0.9039 -2.8168,-1.6481 -3.3372,-3.2247 -0.474,-1.4365 -1.5634,-2.6319 -3.656,-3.9748 -3.4166,-2.1923 -4.4052,-3.6486 -3.881,-5.737 0.5615,-2.2371 -1.1566,-5.1215 -4.1809,-7.0308 -3.2104,-2.0268 -3.8997,-3.1155 -3.8997,-6.2433 0,-2.4419 -0.8574,-3.5903 -4.4247,-5.8121 -2.2797,-1.4197 -1.3217,-1.9944 3.9747,-2.3436 0.9484,-0.062 1.6754,-0.104 2.2311,-0.1125 z m 120.8,1.5374 c 0.3913,-0.033 0.6466,0.01 0.7499,0.1125 0.8758,0.8758 -2.1911,4.8671 -8.6619,11.287 -7.9125,7.8502 -15.121,13.851 -29.773,24.842 -22.252,16.692 -35.577,24.395 -67.195,38.791 -4.1746,1.9008 -7.4809,2.8571 -8.5494,2.4936 -1.1562,-0.3934 -0.8319,-3.7558 0.6375,-6.7495 1.073,-2.1861 1.6548,-2.7285 3.1123,-2.8874 2.3946,-0.2609 3.4615,-1.3123 1.3311,-1.3123 -0.891,-1e-4 -1.6311,-0.2434 -1.6311,-0.5437 0,-0.825 4.32,-6.1121 6.6933,-8.1932 3.2858,-2.8814 10.991,-6.862 13.274,-6.862 1.5224,0 2.5029,-0.5274 4.0685,-2.1561 2.7687,-2.8805 4.3634,-3.6303 8.8493,-4.1435 3.8361,-0.4388 5.4611,-1.4088 10.181,-6.1495 0.8104,-0.8142 2.078,-1.3499 3.1872,-1.3499 2.5442,-10e-5 3.8815,-0.8373 7.7245,-4.8185 2.8529,-2.9555 3.7276,-3.5009 6.1495,-3.8435 2.1224,-0.3001 3.2033,-0.8499 4.3497,-2.2122 0.8391,-0.9972 1.5187,-2.3206 1.5187,-2.9436 0,-1.3326 1.6963,-2.3811 3.8622,-2.3811 0.8466,0 2.1088,-0.5526 2.7935,-1.2374 1.0137,-1.0136 1.1674,-1.6837 0.8438,-3.5998 -0.3309,-1.9582 -0.2049,-2.4169 0.7124,-2.7372 0.6063,-0.2118 2.9361,-1.1872 5.1934,-2.1562 2.2573,-0.9689 4.248,-1.6203 4.4059,-1.4624 0.1579,0.158 -0.042,1.3451 -0.4312,2.6436 -0.5898,1.9686 -0.5379,2.6706 0.2625,4.2185 0.9251,1.7889 0.8988,1.8595 -0.3375,2.0435 -1.3722,0.2044 -1.3696,0.2109 -3.7685,5.3996 -2.1153,4.576 -4.6241,6.194 -8.7743,5.6434 -3.2115,-0.4259 -3.5737,-0.2135 -7.0683,4.4059 -1.7732,2.3441 -3.7965,3.4056 -7.5932,3.956 -3.6314,0.5264 -4.2011,0.9477 -5.9808,4.4434 -2.2491,4.4176 -3.9766,5.6764 -7.6682,5.5872 -4.406,-0.1065 -4.8847,0.1445 -6.4496,3.1872 -1.8483,3.5936 -4.5736,5.1977 -9.5243,5.6246 l -3.9559,0.3376 -0.3563,2.2498 c -0.6673,4.1258 -3.0373,5.7994 -9.1306,6.4683 -2.2785,0.2501 -4.3951,0.7203 -4.7059,1.0312 -0.89,0.8899 -1.4605,5.2261 -0.6187,4.7059 0.3815,-0.2358 0.6937,-1.0701 0.6937,-1.8561 0,-1.8541 0.351,-2.0262 5.2684,-2.6436 5.3605,-0.6732 7.7459,-1.924 8.9431,-4.7247 1.7013,-3.9804 1.7385,-4.0252 4.2934,-4.1247 5.0541,-0.197 7.3152,-1.6396 11.043,-7.012 0.9066,-1.3066 1.4614,-1.4899 4.2372,-1.4249 4.395,0.1029 6.7099,-1.3563 9.1868,-5.8309 1.9569,-3.535 2.0023,-3.592 5.6246,-4.3309 4.5561,-0.9294 7.3495,-2.6052 9.0744,-5.4746 0.7339,-1.2208 1.4427,-2.3503 1.5561,-2.4936 0.1135,-0.1433 1.8806,-0.2783 3.9373,-0.3 5.6816,-0.06 8.2523,-2.4573 10.837,-10.087 0.2554,-0.7539 1.0027,-1.0499 2.6435,-1.0499 2.9003,0 4.8044,-1.3168 5.4184,-3.7685 0.3669,-1.465 1.1064,-2.2345 3.0748,-3.1873 1.4212,-0.6879 3.3735,-2.1053 4.3497,-3.1498 0.9761,-1.0445 2.2509,-1.8936 2.831,-1.8936 1.2124,0 3.5389,-1.542 3.056,-2.0248 -0.6521,-0.6522 -5.5874,1.2679 -6.6557,2.5872 -0.6058,0.7482 -2.5206,2.0674 -4.2559,2.9436 -2.4078,1.2159 -3.3062,2.0575 -3.7873,3.5435 -1.3823,4.2691 -3.2075,4.0011 -3.656,-0.5437 -0.193,-1.9564 0.073,-3.1934 1.1062,-4.9684 1.2904,-2.2163 1.8826,-2.5534 9.7681,-5.5121 7.5473,-2.8319 11.991,-4.2637 13.686,-4.406 z m -130.08,1.9312 c 0.367,0 0.7918,0.1579 1.4061,0.4124 3.2585,1.3498 4.2935,2.8008 4.2935,5.9996 0,2.6244 0.2323,3.0935 2.1561,4.6309 5.4632,4.366 5.7609,4.7945 5.3809,7.5558 -0.4141,3.0079 0.2996,4.0941 4.6121,6.9932 2,1.3444 2.9785,2.4653 3.3186,3.8247 0.3753,1.5005 1.0994,2.2296 3.2435,3.2623 1.7015,0.8195 3.2276,2.1331 3.9934,3.431 0.7844,1.3293 1.8617,2.2413 2.9248,2.4748 2.928,0.6433 3.1686,0.8 3.1686,2.0248 0,0.6592 0.4778,2.1751 1.0499,3.3748 1.0262,2.152 1.0127,2.1948 -0.375,3.3185 -1.641,1.3288 -3.0748,1.489 -3.0748,0.3375 0,-1.3729 -2.0019,-2.7174 -4.7059,-3.1498 -1.4221,-0.2273 -2.6843,-0.7029 -2.7935,-1.0686 -0.1092,-0.3658 -0.3459,-1.421 -0.5438,-2.3248 -0.2601,-1.1881 -1.1406,-2.035 -3.1498,-3.0561 -2.0788,-1.0565 -2.9368,-1.9148 -3.4309,-3.431 -0.4565,-1.4009 -1.4162,-2.4427 -3.0748,-3.356 -3.5487,-1.9541 -3.8853,-2.407 -3.8997,-5.1746 -0.016,-2.958 -0.9713,-4.2997 -4.9497,-6.9746 l -2.8498,-1.931 0.1312,-3.2248 c 0.1645,-3.9317 -0.8945,-5.3279 -4.7996,-6.4308 -3.2813,-0.9268 -4.5993,-2.6404 -2.8498,-3.6748 0.6401,-0.3784 1.8885,-1.4806 2.7935,-2.4373 0.9482,-1.0022 1.4132,-1.4079 2.0249,-1.4061 z m 135.2,0.019 c 0.378,-0.043 0.9025,0.2191 1.9312,0.7499 3.4174,1.7637 42.773,28.236 43.984,29.585 1.0989,1.2244 1.1041,1.3016 -0.375,3.8248 -2.7392,4.6729 -6.8356,9.8315 -9.6181,12.112 l -2.756,2.2499 -3.7873,-3.8623 c -2.5028,-2.5525 -4.4506,-4.0068 -5.7558,-4.2934 -2.9436,-0.6466 -3.725,0.3286 -3.731,4.6872 0,4.055 -0.7213,7.3104 -2.0248,9.0931 -0.7898,1.08 -0.9443,1.0916 -1.9687,0.1874 -0.6073,-0.536 -2.7731,-1.8079 -4.8184,-2.831 -2.7849,-1.3931 -3.8326,-1.6625 -4.181,-1.1062 -0.2558,0.4087 -0.479,2.8214 -0.4874,5.3621 -0.021,6.1173 -0.5411,6.5479 -4.4996,3.8248 -3.5023,-2.4091 -6.199,-3.2671 -12.318,-3.9935 -6.3118,-0.7492 -8.5098,-0.6829 -8.8869,0.3 -0.4233,1.1029 4.2648,10.719 6.712,13.762 1.027,1.2768 1.7389,2.5283 1.5749,2.7936 -0.1639,0.2653 -1.1338,0.6753 -2.1561,0.8999 -1.0223,0.2246 -3.3282,1.0644 -5.1184,1.8561 -5.5129,2.4382 -7.6326,2.6796 -12.412,1.4249 -2.3352,-0.613 -4.4596,-0.9887 -4.7247,-0.8249 -1.6713,1.033 1.557,6.358 5.5121,9.0931 1.2985,0.8979 2.3685,1.8108 2.3811,2.0248 0.013,0.214 -2.0736,1.1331 -4.6309,2.0436 -2.5573,0.9104 -12.173,4.4431 -21.374,7.8557 -9.2005,3.4128 -16.895,6.1613 -17.099,6.1121 -0.2038,-0.049 -1.4069,-1.1333 -2.681,-2.4186 -4.8952,-4.9378 -12.232,-9.1938 -29.51,-17.155 -5.5144,-2.5409 -9.9536,-4.9009 -9.8805,-5.2309 0.073,-0.3299 2.0649,-1.3542 4.4247,-2.2874 6.4007,-2.5309 28.459,-13.422 36.672,-18.092 9.5317,-5.4207 15.497,-9.4553 30.598,-20.717 21.112,-15.745 34.695,-27.962 39.935,-35.941 0.4595,-0.6997 0.6908,-1.0445 1.0686,-1.0874 z m -144.2,3.581 c 0.9225,0 1.4999,0.6548 1.4999,1.8373 0,1.848 1.5059,3.1343 4.5935,3.956 3.4092,0.9075 3.944,1.7584 3.4685,5.3434 -0.4395,3.313 -0.4364,3.3197 4.5371,6.9183 2.3681,1.7133 2.7255,2.2671 2.8873,4.4809 0.2084,2.8507 0.2315,2.8336 -3.5247,1.1812 -1.8226,-0.8018 -3.1119,-1.8823 -3.8247,-3.2061 -0.5918,-1.0989 -1.9518,-2.4184 -3.0185,-2.9248 -2.6827,-1.2729 -3.0864,-1.8688 -4.2747,-6.5995 -0.7348,-2.9251 -1.6272,-4.8138 -3.0374,-6.3746 -2.3289,-2.5779 -2.4525,-3.2697 -0.7499,-4.1809 0.5303,-0.2838 1.0243,-0.4303 1.4436,-0.4312 z m -3.8997,5.3809 c 1.2385,0.1743 2.9561,3.1612 3.8997,7.012 0.5742,2.3429 1.5643,4.9319 2.2124,5.7558 0.6481,0.824 1.1001,1.4938 0.9936,1.4812 -0.1064,-0.013 -1.0398,-0.3986 -2.0623,-0.8438 -1.583,-0.6891 -1.9097,-1.2175 -2.2311,-3.5622 -0.2255,-1.6455 -1.1101,-3.7541 -2.1935,-5.2496 -1.9456,-2.6858 -2.2137,-3.7965 -1.1062,-4.4809 0.1542,-0.095 0.3105,-0.1374 0.4874,-0.1125 z m -3.5247,2.5498 c 0.2704,0.021 0.44,0.1675 0.5811,0.4125 0.2567,0.4451 1.1589,1.7319 2.0062,2.8685 1.1013,1.4774 1.5374,2.8208 1.5374,4.6872 0,1.9718 0.3688,2.9748 1.4811,4.0871 0.8099,0.81 1.8553,1.4625 2.3248,1.4625 1.544,0 2.4203,1.793 2.2874,4.7059 -0.1421,3.1141 1.0522,4.8233 4.2559,6.0371 2.3073,0.8741 2.0847,1.9132 -1.0874,4.8371 -2.9577,2.7263 -2.6117,2.6933 -8.6619,0.9187 -2.3222,-0.6812 -4.9881,-0.9146 -8.9993,-0.7687 -4.9435,0.1798 -6.1084,0.4487 -8.8869,1.9686 -1.7618,0.9638 -4.5229,3.1904 -6.1308,4.9497 -4.2012,4.5969 -4.6605,8.2581 -1.4812,12.037 0.8251,0.9805 1.4999,2.0458 1.4999,2.3624 0,0.3165 -3.9504,2.7002 -8.7931,5.3058 -9.9258,5.3406 -14.892,8.5176 -20.717,13.255 -4.7635,3.874 -14.274,13.693 -18.542,19.124 -1.6744,2.1307 -3.2137,3.8574 -3.431,3.8436 -0.7075,-0.045 -23.056,-8.1333 -28.91,-10.462 -12.508,-4.975 -27.598,-13.86 -27.598,-16.255 0,-2.6229 13.546,-14.065 24.036,-20.305 14.484,-8.6159 39.963,-20.588 58.233,-27.354 6.3954,-2.3685 14.189,-5.3919 17.324,-6.7308 3.1348,-1.339 9.4972,-3.858 14.136,-5.5871 4.6393,-1.729 9.6091,-3.7307 11.043,-4.4622 1.3148,-0.6707 2.0429,-0.9731 2.4936,-0.9374 z m 358.23,10.199 c 0.2894,-0.2894 14.764,6.1384 15.918,7.0682 1.235,0.9955 0.8791,1.5322 -1.7998,2.7561 -2.6521,1.2115 -6.1625,4.1867 -5.6059,4.7434 0.176,0.176 1.145,-0.031 2.1561,-0.45 2.8423,-1.1773 2.7221,-0.3848 -0.3562,2.3249 -1.5457,1.3604 -3.0182,2.4748 -3.281,2.4748 -0.2628,0 -0.3335,-0.9316 -0.15,-2.0624 0.447,-2.7541 -0.9837,-6.7374 -4.3684,-12.168 -1.5235,-2.4443 -2.6527,-4.5468 -2.5124,-4.6871 z m -346.21,1.4999 c 0.7736,-0.018 1.9825,1.0679 3.131,2.8872 1.029,1.6301 2.2722,2.6343 4.1622,3.3561 2.7078,1.0341 3.4426,2.0352 4.2747,5.8683 0.2329,1.0729 0.918,1.7872 2.1373,2.2123 1.1083,0.3864 2.0501,1.2945 2.4374,2.3249 0.3472,0.9239 1.6382,2.7486 2.8685,4.0685 1.2304,1.3198 3.142,3.6996 4.2372,5.287 2.3239,3.3687 2.1699,4.104 -0.4125,1.9312 -1.0066,-0.8471 -2.6601,-1.8399 -3.6747,-2.1936 -1.5381,-0.5362 -1.8561,-0.9593 -1.8561,-2.5498 0,-2.7059 -1.4439,-4.4263 -4.3685,-5.2122 -2.7429,-0.737 -3.3978,-1.3845 -3.4122,-3.3185 -0.012,-1.6641 -1.5772,-3.0061 -4.8372,-4.1434 -3.3376,-1.1645 -4.1718,-2.2362 -3.7497,-4.8372 0.2226,-1.3718 0,-2.5465 -0.6937,-3.5998 -0.5635,-0.8599 -0.8709,-1.7165 -0.6937,-1.8936 0.1263,-0.1262 0.2714,-0.1833 0.45,-0.1874 z m 14.118,8.5118 c 0.3407,0.01 0.9646,0.2866 2.1186,0.7687 2.4776,1.0353 3.2852,1.9348 3.5623,3.9373 0.1497,1.0826 1.0002,1.9171 3.056,2.9998 2.6164,1.3778 2.8498,1.6835 2.8498,3.7309 0,2.5757 0.7189,3.1172 4.9496,3.731 1.8877,0.2739 2.8498,0.7031 2.8498,1.2749 0,0.4748 -0.4724,0.8564 -1.0499,0.8625 -0.5774,0 -2.0115,0.1774 -3.206,0.375 -1.9797,0.3274 -2.3245,0.1645 -3.8997,-1.8749 -0.9504,-1.2306 -2.7484,-3.4565 -3.9935,-4.9309 -1.245,-1.4744 -2.6417,-3.5495 -3.0936,-4.631 -0.539,-1.29 -1.4576,-2.1982 -2.681,-2.6248 -1.4291,-0.4981 -1.8749,-1.0011 -1.8749,-2.1748 0,-1.0113 -0.026,-1.4545 0.4125,-1.4437 z m -8.0244,8.362 c 0.2632,-0.031 1.0732,0.6249 1.7999,1.4436 0.7266,0.8187 2.3923,1.8311 3.7122,2.2499 2.1267,0.6746 2.4297,0.9909 2.606,2.8498 0.2506,2.6396 0.8466,3.3529 4.2935,5.0996 1.5264,0.7735 3.1374,1.8316 3.5623,2.3436 0.4248,0.512 1.6905,1.102 2.8123,1.3124 1.1217,0.2104 2.0248,0.4808 2.0248,0.5999 0,0.1192 -1.3956,1.9708 -3.1123,4.1247 -3.6571,4.5886 -4.426,4.7612 -9.7868,2.1937 -4.2746,-2.0473 -6.006,-3.8487 -8.7931,-9.0744 -1.144,-2.1448 -2.6014,-4.7514 -3.2248,-5.7934 l -1.1249,-1.8936 2.3811,-2.6998 c 1.3084,-1.4843 2.5865,-2.7248 2.8498,-2.756 z m -22.686,2.681 1.7999,0 c 4.3071,0.02 6.665,0.3118 8.3432,1.0499 2.3236,1.0223 2.3307,1.0359 1.1999,2.2874 -0.6257,0.6924 -3.897,3.1029 -7.2745,5.3621 l -6.1496,4.106 -2.0811,-0.8625 c -2.2107,-0.9236 -4.4119,-1.1082 -5.9809,-0.5062 -1.7766,0.6818 -0.9534,1.3541 1.8562,1.5374 1.5416,0.1006 2.895,0.5054 3.0185,0.8812 0.1236,0.3757 -1.0268,1.3881 -2.5686,2.2498 -1.5417,0.8617 -3.268,1.5562 -3.8247,1.5562 -1.2216,-10e-5 -3.9347,-2.8009 -4.4809,-4.6122 -0.9289,-3.0798 3.2839,-8.4977 8.9431,-11.493 2.346,-1.2418 3.3875,-1.5215 7.1995,-1.5562 z m 179.42,0.5999 c 0.3387,-0.013 0.8144,0.2268 1.4999,0.5813 2.6518,1.3712 5.3621,5.9335 5.3621,8.9993 0,5.3342 -1.4448,8.2313 -6.4871,12.974 l -4.6871,4.406 -20.061,7.3682 c -11.032,4.0519 -20.601,7.3535 -21.261,7.3308 -1.5778,-0.055 -5.6873,-2.1284 -7.1807,-3.6186 -1.1772,-1.1746 -1.1482,-1.1811 2.6248,-1.1811 3.0451,0 4.9873,-0.4721 9.8618,-2.4374 4.7158,-1.9013 6.8435,-2.4505 9.5431,-2.4373 1.9114,0.01 3.7157,0.173 4.0122,0.3562 0.7979,0.4932 2.4373,-0.2932 2.4373,-1.1624 0,-0.4149 -1.2206,-1.2278 -2.7186,-1.7999 -1.4978,-0.572 -3.5165,-1.7007 -4.4809,-2.5123 -2.185,-1.8385 -5.8674,-7.8321 -6.3745,-10.368 l -0.375,-1.8936 3.2248,0.375 c 7.3357,0.8674 11.136,2.4975 15.58,6.6932 1.2983,1.2258 2.5044,1.8991 3.056,1.6874 0.9807,-0.3763 2.8873,-7.2678 2.8873,-10.424 0,-1.0253 0.1696,-1.8749 0.3562,-1.8749 0.9557,0 3.1368,1.5281 4.5747,3.206 1.9727,2.3019 2.9414,1.9273 5.4934,-2.1748 1.3149,-2.1137 1.7912,-3.7161 2.0061,-6.8433 0.2726,-3.9665 0.361,-5.2207 1.1062,-5.2497 z m -163.84,4.5185 c 1.4282,-0.019 2.3238,1.7767 4.4623,5.8871 3.561,6.8448 5.9998,9.0258 12.505,11.137 1.7324,0.5621 3.1498,1.3729 3.1498,1.7999 0,0.427 -0.405,1.9156 -0.9,3.3185 -1.5783,4.4735 -1.235,5.9047 2.0811,9.0181 2.0786,1.9514 5.0879,3.7573 10.049,6.0183 9.0735,4.1348 36.429,17.939 36.635,18.486 0.086,0.2292 -3.8284,2.0025 -8.6993,3.9372 -26.187,10.402 -39.26,18.073 -47.209,27.711 -6.1383,7.4417 -10.969,18.803 -9.4306,22.18 0.955,2.0959 2.2101,1.0754 2.6436,-2.156 0.7186,-5.3579 6.1704,-14.617 12.074,-20.53 10.297,-10.312 33.249,-20.838 89.45,-40.966 19.249,-6.894 30.71,-11.176 48.896,-18.299 15.824,-6.1972 36.889,-13.799 38.247,-13.799 0.76,0 0.8429,0.9613 0.5062,6.4496 -1.6526,26.944 -2.7486,35.427 -7.4619,57.446 -0.989,4.6196 -2.3548,12.442 -3.0373,17.38 -0.6824,4.9383 -1.5941,9.3209 -2.0061,9.7305 -0.9299,0.9245 -9.1912,3.1347 -45.728,12.243 -31.392,7.8257 -39.018,9.3844 -56.865,11.643 -13.336,1.6876 -25.109,2.2662 -31.348,1.5373 -4.441,-0.5188 -14.973,-2.9281 -20.998,-4.7997 -8.7736,-2.7253 -12.469,-4.7445 -19.086,-10.405 -3.062,-2.6197 -3.6537,-2.9101 -4.7996,-2.3249 -0.7189,0.3671 -4.5522,1.7941 -8.5119,3.1686 -3.9598,1.3742 -11.626,4.3569 -17.043,6.6182 -5.417,2.2614 -10.469,4.106 -11.23,4.106 -0.9025,0 -1.6904,-0.5746 -2.2499,-1.6499 -1.9879,-3.8212 -0.02,-2.8816 -46.572,-22.048 -10.848,-4.4664 -30.361,-14.013 -38.753,-18.955 -2.9363,-1.7291 -10.068,-6.2841 -15.843,-10.124 -11.442,-7.6089 -16.149,-10.339 -22.348,-12.918 -2.2274,-0.9267 -4.0497,-1.7736 -4.0497,-1.8937 0,-0.1201 1.2153,-1.7209 2.6998,-3.5435 1.4845,-1.8226 3.2699,-4.4111 3.9559,-5.7558 l 1.2375,-2.4373 1.6123,1.4811 c 0.8818,0.8122 3.4433,2.7652 5.6996,4.3497 2.4922,1.75 4.4801,3.6726 5.0622,4.8934 0.9696,2.0333 2.3545,2.5576 3.5622,1.3499 0.7683,-0.7683 5.7993,2.0042 15.768,8.6807 10.202,6.8326 19.411,12.12 30.598,17.586 7.5361,3.6826 11.023,5.726 12.337,7.237 1.6355,1.8813 1.9553,2.0373 3.0561,1.3499 1.4509,-0.9062 1.492,-0.9068 12.505,3.9185 11.062,4.8465 22.239,8.4372 30.598,9.8243 12.004,1.9918 35.14,5.0194 35.51,4.6496 0.9939,-0.9938 -0.5951,-2.0467 -3.5997,-2.3998 -1.8155,-0.2133 -4.8799,-0.7772 -6.8058,-1.2562 -1.9258,-0.479 -6.7457,-1.1696 -10.706,-1.5373 -13.972,-1.2977 -29.286,-5.8352 -48.728,-14.418 -9.4378,-4.1661 -9.7578,-4.3644 -10.387,-6.487 -0.9806,-3.309 -1.4411,-19.724 -0.6374,-22.592 1.2861,-4.5897 0.3912,-4.5195 14.886,-0.9938 15.936,3.8763 15.952,3.8683 15.543,3.206 -0.1815,-0.2937 -2.2837,-1.1395 -4.6872,-1.8748 -19.656,-6.0138 -22.086,-6.8715 -22.086,-7.8369 0,-1.277 9.1421,-11.548 15.655,-17.605 6.1303,-5.7009 11.461,-9.3078 24.842,-16.761 6.4837,-3.6115 11.163,-5.8242 12.824,-6.0745 3.6249,-0.5462 6.0673,-1.94 6.7308,-3.8435 0.3218,-0.9232 1.7848,-2.3689 3.4123,-3.3935 1.5636,-0.9844 5.1096,-3.5072 7.8744,-5.5871 2.5978,-1.9543 4.0263,-3.0597 5.1371,-3.0748 z m -140.52,32.792 c 0.7147,-0.011 2.1853,0.8529 4.9685,2.8498 9.2865,6.6627 20.44,11.793 39.522,18.205 6.6628,2.2387 12.422,4.2559 12.786,4.4809 0.4719,0.2917 0.3971,1.2298 -0.2437,3.2623 -1.0224,3.2428 -1.3096,13.181 -0.5812,19.799 0.4374,3.9743 0.3738,4.3501 -0.6187,4.3497 -1.3992,-5e-4 -14.99,-6.6357 -22.461,-10.968 -3.1817,-1.8448 -9.4118,-5.752 -13.836,-8.6806 -4.4247,-2.9287 -10.692,-6.7979 -13.93,-8.587 -4.0687,-2.2474 -6.069,-3.7214 -6.4683,-4.7621 -0.7862,-2.0492 -0.3694,-18.943 0.4875,-19.799 0.091,-0.091 0.21,-0.1475 0.3749,-0.1499 z m 144.2,81.613 3.5811,3.431 c 6.368,6.1264 10.881,8.6653 20.361,11.399 2.9651,0.8551 5.6439,1.8004 5.9621,2.1186 1.4475,1.4475 -26.358,-0.6566 -36.86,-2.7935 -5.242,-1.0667 -13.18,-4.2249 -13.18,-5.2309 6e-4,-0.3817 1.418,-1.2691 3.1498,-1.9686 1.7317,-0.6996 6.2604,-2.5398 10.068,-4.106 l 6.9182,-2.8498 z"
           style="fill:#000000;stroke:#000000;stroke-width:0.59996003px"
           id="path3391" />
        <path
           d="m -537.32,753.83 c -1.945,0.56988 -5.2018,-0.41053 -6.2977,1.6573 0.73322,2.4109 4.3437,2.9133 4.8614,5.619 0.20289,3.4039 1.7067,6.6474 4.7351,8.4285 2.9817,1.5572 3.7637,4.8927 3.7092,7.9707 1.5495,3.8732 6.3535,5.3696 8.1601,9.0282 2.5202,2.574 5.6679,4.497 8.1286,7.15 1.8266,1.2314 4.7621,1.1674 5.2244,3.867 0.97016,2.1226 1.2847,6.1888 4.23,6.3134 2.8188,-1.4806 5.1452,-3.8405 7.8445,-5.5874 1.446,-2.2844 -2.2731,-2.829 -3.7565,-3.0936 -2.1882,-0.0438 -3.7244,-1.775 -3.5198,-3.9617 0.72875,-3.2557 -2.3688,-3.926 -4.7035,-4.7667 -2.4056,-0.69148 -4.9748,-2.6131 -4.3639,-5.4295 0.60516,-2.2102 -0.39481,-4.1389 -2.5177,-4.893 -2.7703,-1.2698 -6.355,-2.8988 -6.2503,-6.5502 -0.49923,-3.0517 0.27166,-7.376 -3.3457,-8.6844 -3.4237,-2.0229 -7.1305,-3.7982 -9.7547,-6.8151 -0.74107,-0.35215 -1.5869,-0.3132 -2.3833,-0.25254 z"
           style="color:#000000;fill:#fffa7c"
           id="path5809" />
        <path
           d="m -545.82,757.53 c -2.1644,1.0254 -4.6232,2.9704 -5.0981,5.4138 1.7278,3.2748 7.6786,3.0156 7.7182,7.4183 0.18717,2.5146 -0.59263,5.6006 2.524,6.5816 2.7268,1.7049 5.6655,4.2034 5.2416,7.7657 0.74163,3.9011 5.7242,4.6947 7.1816,8.2233 1.9178,2.9244 6.3226,3.8372 6.9132,7.6708 1.618,2.9238 6.7308,1.5853 7.7024,5.177 1.51,1.8624 4.3285,-0.84342 4.7351,-2.2571 -0.9474,-2.998 -1.4893,-7.1092 -5.1928,-7.8129 -2.9116,-1.8216 -4.816,-4.9009 -7.9234,-6.5344 -2.2807,-1.7842 -2.9278,-4.9608 -5.6505,-6.3766 -2.483,-1.5767 -4.8085,-4.0208 -4.1038,-7.2289 0.0561,-5.285 -7.8644,-6.3147 -7.6708,-11.617 0.0813,-3.6342 -2.7072,-6.5712 -6.3766,-6.4239 z"
           style="color:#000000;fill:#fffa7c"
           id="path5811" />
        <path
           d="m -555.23,761.01 c -2.8187,0.32624 -2.041,3.7202 -0.52086,5.0981 2.9842,3.5481 2.8991,8.7979 6.0925,12.122 4.1578,2.3609 6.5517,8.1038 11.901,8.0181 2.1192,-1.165 0.18875,-4.3127 -0.78919,-5.7452 -2.1104,-2.4109 -6.1765,-3.7756 -5.9189,-7.6393 0.42524,-2.9927 -0.56958,-5.5161 -3.7723,-6.1398 -1.8654,-1.0161 -4.6832,-1.7859 -4.5299,-4.4036 -0.38616,-0.96879 -1.4458,-1.5215 -2.4622,-1.31 z"
           style="color:#000000;fill:#fffa7c"
           id="path5813" />
        <path
           d="m -529.3,747.27 c -3.63,1.749 -4.7063,8.538 -0.0789,9.8806 3.2882,1.8695 8.4653,3.0691 8.46,7.7498 0.85037,2.889 -0.94172,7.6325 2.9814,8.4262 2.2583,1.3267 6.0867,1.8674 6.836,4.69 0.40674,2.4463 -1.1809,6.3326 2.4732,6.6592 3.1153,1.1555 7.0548,2.927 6.7444,6.9305 1.1525,2.7343 4.9483,2.1896 6.8659,4.23 1.9713,1.9816 5.2921,2.904 7.3867,0.53664 1.9131,-1.5153 -0.51829,-3.2303 -1.8309,-3.9617 -1.5181,-0.977 -1.0354,-2.6829 -1.2311,-4.088 -2.1048,-2.777 -7.5621,-1.3073 -8.318,-5.4454 -0.20799,-2.7857 -2.1066,-5.6958 -5.0192,-6.124 -4.0722,-2.5925 -2.1594,-8.5488 -6.0294,-11.396 -3.185,-2.2732 -6.2629,-4.7651 -6.929,-8.8388 -1.8356,-4.6073 -8.6362,-3.5343 -10.749,-7.513 0.0549,-0.92583 -0.51267,-1.9388 -1.5626,-1.7362 z"
           style="color:#000000;fill:#fffa7c"
           id="path5815" />
        <path
           d="m -521.66,744.16 c -2.9265,-0.11864 -5.5467,3.5815 -3.1567,5.8557 3.3301,1.5974 8.4092,1.8889 9.3913,6.2661 0.3951,3.3893 2.8678,5.8891 5.7137,7.4657 3.0369,1.8157 4.1029,5.082 4.5773,8.4442 0.75474,4.2411 7.283,3.7519 7.6077,8.2548 -0.49069,3.2045 1.805,4.4077 4.6037,4.7054 2.3881,0.59335 4.9144,2.2598 4.4719,5.0489 0.72549,2.8433 4.6505,1.2868 6.6291,1.0259 1.4758,-0.20573 4.8175,-1.5552 2.8253,-3.3461 -2.3577,-1.8803 -6.2303,-2.5703 -6.6291,-6.0925 -1.505,-3.4097 -7.1181,-3.9487 -6.8974,-8.3022 -0.58086,-3.1982 -3.9781,-3.746 -6.203,-5.2717 -2.0724,-1.9574 -1.277,-5.4876 -3.9143,-7.1342 -3.0534,-2.6045 -6.0424,-5.443 -7.1658,-9.407 -1.8894,-3.8255 -6.3566,-5.3538 -9.8963,-7.2447 -0.62979,-0.19392 -1.2943,-0.34214 -1.9572,-0.26833 z"
           style="color:#000000;fill:#fffa7c"
           id="path5817" />
        <path
           d="m -510.3,737.75 c -3.02,-0.0203 -7.6299,2.361 -6.1556,5.9504 2.8682,3.1435 7.5882,4.7817 8.904,9.2521 1.1892,4.3455 6.1614,5.4602 8.3001,9.0254 0.45745,2.4024 0.97896,5.5178 3.9775,5.9504 3.5162,0.85421 4.0002,4.7165 5.4138,7.4025 1.8937,2.2952 5.9611,3.0702 6.0925,6.5344 1.9627,2.5209 5.367,3.4714 7.3552,5.9978 2.299,1.1699 3.9979,-2.2083 4.2142,-4.1037 0.15196,-3.2724 -3.5258,-4.6757 -4.4194,-7.5604 -1.8308,-2.2159 -6.4012,-1.9108 -6.124,-5.761 0.0512,-2.2069 0.22013,-5.193 -2.557,-5.7452 -3.2573,-0.76368 -3.5354,-4.3276 -4.4352,-6.9448 -2.031,-3.2732 -7.6412,-1.3057 -8.9967,-5.3664 -0.74922,-2.9877 -1.1976,-6.4504 -4.23,-8.1917 -2.4624,-1.5149 -4.1835,-3.7384 -5.6821,-6.0767 -0.45921,-0.38336 -1.0887,-0.41501 -1.6573,-0.36302 z"
           style="color:#000000;fill:#fffa7c"
           id="path5819" />
        <path
           d="m -498.88,733.09 c -2.5869,1.493 -5.2176,3.5151 -6.8343,6.0293 1.1683,3.727 6.8849,4.2854 7.6235,8.4442 0.15164,2.8663 1.7148,6.0188 4.9245,6.2977 2.3842,0.32474 5.4272,1.1547 5.5716,4.0564 -0.0945,2.8057 2.0734,4.7892 4.4668,5.761 4.3095,1.4736 0.86005,7.8086 5.0192,9.2492 3.6957,0.31943 3.8525,4.8929 6.3608,6.8659 2.1723,3.036 6.6877,3.1651 9.3597,0.82075 -1.1198,-2.7226 -4.3614,-4.3581 -6.4397,-6.5186 -3.5474,-1.6072 0.0278,-7.5242 -4.3935,-8.2465 -3.0436,-1.0166 -5.928,-3.5387 -5.5187,-7.0478 0.9923,-3.0646 -1.7187,-4.2479 -4.0248,-5.2244 -2.8722,-0.99682 -3.1753,-4.1483 -3.0147,-6.7554 -0.86522,-5.9518 -9.2496,-5.3782 -11.017,-10.843 -0.47697,-0.94722 -0.57469,-3.0521 -2.0834,-2.8884 z"
           style="color:#000000;fill:#fffa7c"
           id="path5821" />
        <path
           d="m -491.21,732.33 c -1.9969,-0.10276 -5.3941,0.74603 -4.2458,3.4408 2.4532,4.74 10.415,4.26 11.285,10.102 0.44028,2.4875 0.18315,6.2509 3.504,6.7712 3.4954,0.86041 4.1274,4.7096 4.3405,7.7498 0.27823,4.3357 7.1594,2.8463 7.4183,7.1184 -0.75792,4.4358 3.5237,6.9473 6.1083,9.7543 1.9591,0.36628 3.6128,-2.1535 4.593,-3.7565 0.90793,-3.0389 -3.0542,-3.501 -5.0666,-4.0564 -2.2859,-0.81768 -3.9372,-2.8987 -3.3461,-5.4138 0.91385,-2.7807 -1.4545,-3.6536 -3.5198,-4.4826 -2.6541,-1.2532 -2.4703,-4.2928 -2.8726,-6.7238 -1.4347,-3.0319 -6.0039,-3.9124 -6.124,-7.7498 0.0178,-2.5958 -0.15514,-5.4146 -2.5254,-7.0395 -2.2428,-1.9468 -4.0564,-4.5995 -6.6291,-6.0767 -0.97332,0.12101 -1.9466,0.24201 -2.92,0.36302 z"
           style="color:#000000;fill:#fffa7c"
           id="path5823" />
        <path
           d="m -483.92,728.23 c -2.3837,-0.16466 -3.5599,2.7714 -1.5626,4.1984 3.0894,3.1166 8.0989,5.6583 7.5761,10.828 0.0153,3.8975 4.3117,5.1241 6.2661,7.7813 1.3486,2.5616 0.56339,6.3973 3.867,7.7024 2.2863,0.90057 3.4048,3.0808 2.9989,5.5085 -0.35858,3.9542 4.4059,4.237 7.1342,5.0508 1.739,1.1308 3.1112,-0.78377 1.8467,-2.1939 -6.165,-12.778 -14.736,-24.122 -22.87,-35.624 -1.3373,-1.6925 -2.7965,-3.6717 -5.256,-3.2514 z"
           style="color:#000000;fill:#fffa7c"
           id="path5825" />
        <path
           d="m -549.88,780.82 c -1.9301,1.4876 1.502,3.9559 0.44194,6.0294 -0.70135,4.0845 4.3903,4.6459 6.8343,6.4871 2.2469,1.4406 1.7943,5.0651 4.7982,5.7137 2.949,0.69593 5.0177,3.4218 4.9876,6.4082 1.2866,2.0587 4.043,2.3486 5.8084,3.9775 2.5776,0.24342 0.913,-2.824 -0.11048,-3.6934 -3.2168,-4.2909 -6.2887,-8.833 -10.307,-12.422 -1.257,-2.3828 -1.7606,-5.4599 -4.672,-6.5029 -3.0414,-1.1843 -4.6327,-4.1979 -7.1658,-5.9978 -0.20285,-0.0423 -0.41272,-0.0423 -0.61556,0 z"
           style="color:#000000;fill:#fffa7c"
           id="path5827" />
        <path
           d="m -558.63,766.22 c -1.2413,0.12618 -1.7385,1.6661 -1.1759,2.6596 1.116,2.3683 2.9994,4.3946 3.5237,7.0316 0.39197,1.4823 0.35949,3.4408 1.9335,4.2497 0.79282,0.38501 1.8806,1.2087 2.6635,0.52086 0.66342,-0.71285 -0.17844,-1.5477 -0.54059,-2.2294 -1.88,-3.6613 -1.9481,-8.1637 -4.6956,-11.392 -0.44236,-0.46965 -1.0261,-0.9058 -1.7086,-0.84048 z"
           style="color:#000000;fill:#fffa7c"
           id="path5829" />
        <path
           d="m -536.26,788.98 c -0.90811,0.57599 -0.39448,1.7848 -0.35513,2.6635 0.23427,1.4678 1.9526,1.6946 2.9752,2.4386 1.4457,1.0437 1.8804,2.921 2.9594,4.2774 2.1564,2.945 4.4572,5.7663 6.8422,8.5271 0.67376,0.84778 1.7975,1.0002 2.8011,0.80142 1.4727,-0.21491 3.0309,-0.14364 4.4357,-0.66331 0.93134,-0.40555 0.89956,-1.7945 -0.008,-2.2097 -1.9932,-0.97117 -4.4086,-0.67912 -6.349,-1.7757 -0.87748,-0.79469 -0.57799,-2.1714 -0.7734,-3.2238 0.11872,-1.459 -1.4467,-2.115 -2.4465,-2.7976 -1.3042,-0.83486 -3.1632,-1.5015 -3.4448,-3.2356 -0.22412,-1.6682 -1.4424,-3.0326 -2.9792,-3.6421 -1.158,-0.48796 -2.3581,-1.3033 -3.6579,-1.1601 z"
           style="color:#000000;fill:#fffa7c"
           id="path5831" />
        <path
           d="m -410.09,757.51 c -3.2657,2.0644 -4.8868,6.0758 -7.9076,8.539 -15.396,15.246 -33.019,28.132 -50.792,40.562 -14.317,9.8708 -30.199,17.232 -45.87,24.674 -2.6054,1.2547 -5.355,2.2785 -7.8258,3.7861 -0.72717,2.297 3.1032,2.6843 4.4099,3.8947 12.174,6.5567 25.376,11.495 35.791,20.87 2.4106,2.242 5.5253,-0.76429 8.1262,-1.1394 11.884,-4.3525 23.985,-8.349 35.595,-13.318 1.0471,-2.1738 -2.5802,-3.6926 -3.7249,-5.3033 -1.2758,-1.6476 -3.5158,-3.7834 -3.0778,-5.9346 4.7235,0.46314 9.6416,2.3777 14.221,0.11049 3.2774,-1.146 6.6358,-2.1222 9.7859,-3.5829 1.0054,-2.1431 -1.9164,-4.0118 -2.6403,-5.9749 -1.8911,-3.5148 -4.4013,-7.1698 -5.0148,-11.04 4.8214,-0.78693 9.9673,0.37821 14.647,1.4837 3.4982,0.56745 6.0873,3.5573 9.5017,3.9775 1.9718,-1.8876 0.9398,-5.395 1.5784,-7.876 0.35255,-0.87692 -0.29122,-3.6285 1.4205,-2.5727 3.2037,0.82593 5.6722,3.7154 8.9651,4.0248 2.6645,-2.073 2.386,-6.196 2.8253,-9.265 0.24383,-1.7374 -0.043,-5.4697 2.7306,-4.7509 4.3649,0.86738 6.4466,5.5688 10.196,7.513 3.0391,-0.65357 4.6778,-4.0865 6.8343,-6.0767 2.5105,-3.3652 5.7508,-6.5554 7.1026,-10.575 -0.98819,-2.8788 -4.6509,-3.9906 -6.7396,-5.9978 -12.844,-8.7031 -25.604,-17.847 -39.001,-25.759 -0.35129,-0.1667 -0.73575,-0.34641 -1.1364,-0.26833 z"
           style="color:#000000;fill:#dadada"
           id="path5833" />
        <path
           d="m -394.5,753.69 c -2.3939,0.76239 -5.4871,3.09 -4.9561,5.8715 3.3096,3.0732 7.263,5.6745 11.27,7.7182 2.5934,-0.66333 4.317,-3.4284 5.6821,-5.5874 0.2682,-2.7563 -3.2055,-4.1482 -5.0981,-5.5085 -2.1298,-1.1541 -4.389,-2.5687 -6.8974,-2.4938 z"
           style="color:#000000;fill:#c0c0c0"
           id="path5835" />
        <path
           d="m -415.79,755.61 c -7.3161,1.7462 -14.673,4.1687 -21.324,7.7498 -3.3387,2.1697 -3.9444,7.1869 -2.2886,10.512 2.559,1.5061 3.0831,-2.5484 4.5141,-3.7723 3.4707,-2.8259 7.1469,-5.6799 11.38,-7.1973 1.146,-0.0701 -2.226,1.3305 -2.8568,1.8467 -3.4798,2.7627 -7.9298,4.7261 -9.8332,8.9809 -1.6121,2.9152 -6.6237,0.80015 -7.6235,4.593 -1.7042,3.2538 -2.9721,7.5042 -7.2131,8.097 -2.8674,0.76921 -7.1758,-0.27154 -8.4916,3.1409 -2.6365,4.2042 -7.7371,5.0699 -12.011,6.5186 -3.4218,2.8419 -4.7947,8.6059 -9.8963,8.9809 -3.0646,0.0439 -6.1912,0.80051 -7.8684,3.6118 -2.4079,3 -5.855,5.2822 -9.8566,5.0218 -3.9143,0.73804 -3.5664,6.1799 -7.2605,7.3552 -3.1018,1.5347 -8.2657,1.6012 -10.496,2.7464 2.7209,-2.4786 7.1777,-1.1474 10.291,-3.0936 2.7848,-1.28 3.7278,-4.4572 4.1669,-7.2447 4.7048,-0.19787 10.077,-0.91598 12.785,-5.3191 1.3105,-1.7058 2.2233,-4.0746 4.814,-3.7407 3.2933,-0.16962 7.0708,-0.53475 8.6905,-3.8834 1.6527,-2.6963 3.3255,-6.0434 6.9374,-6.2404 3.9718,-0.44389 7.4183,-2.7117 9.4997,-6.1018 2.5899,-4.0549 8.4216,-0.41239 11.254,-4.1195 2.6938,-2.443 3.6446,-6.4275 6.0294,-8.9178 2.8754,-1.4687 -0.28986,-4.5498 0.88389,-6.8027 0.86875,-1.3372 0.34937,-3.9768 -1.6099,-2.7779 -3.0026,1.3534 -6.8802,1.9173 -9.1545,4.1353 0.11901,2.2793 0.48685,5.9703 -2.5727,6.3292 -2.4606,0.38383 -4.8564,1.6463 -5.5243,4.2774 -1.6724,4.1003 -7.0069,2.9136 -9.628,6.0294 -3.1269,2.6327 -5.844,6.1933 -10.228,6.6133 -4.3651,2.0562 -7.3794,6.6803 -12.532,7.1026 -4.2473,0.21262 -7.4005,3.0211 -10.607,5.3822 -4.3572,1.8539 -9.0406,3.1504 -12.954,5.9918 -3.6953,2.5654 -7.0206,6.0117 -9.1748,9.9497 -0.45883,1.468 2.8839,1.3727 0.36302,1.8782 -3.7852,1.1913 -4.4529,5.7919 -4.7509,9.1703 0.93268,2.5386 4.2995,0.74339 6.0609,0.20519 21.33,-9.1572 42.401,-19.439 61.2,-33.209 17.048,-12.195 34.235,-24.768 47.628,-41.006 0.89599,-0.91412 1.1744,-3.0876 -0.74183,-2.7937 z m -101.69,70.048 c -0.16462,1.3059 -0.0856,0.0284 0,0 z"
           style="color:#000000;fill:#b2b2b2"
           id="path5837" />
        <path
           d="m -358.82,720.13 c -7.184,4.5169 -13.122,10.92 -19.479,16.519 -4.471,4.3701 -9.2864,8.4329 -13.335,13.186 0.16296,2.3989 3.6252,2.8879 5.2132,4.3043 2.6183,0.94491 4.6275,3.9812 7.5242,3.9505 7.911,-5.5457 14.585,-12.83 21.371,-19.635 3.4463,-3.9402 7.5475,-7.8637 9.0914,-12.927 -2.6793,-2.8366 -6.4012,-5.1926 -10.386,-5.398 z"
           style="color:#000000;fill:#9e5b30"
           id="path5839" />
        <path
           d="m -386.97,800.88 c -2.0528,1.2452 -1.1319,4.557 -1.9085,6.6073 -0.50109,3.115 -1.6552,6.73 -4.4049,8.4818 -2.7005,-0.1815 -3.97,-4.3437 -6.7396,-3.7249 -1.7739,2.6511 -1.2894,6.2523 -2.6674,9.1703 -0.32721,0.88178 -0.82211,3.2519 -2.1308,1.9572 -4.7066,-3.7988 -10.06,-7.0745 -16.254,-7.5252 -1.7682,-0.63154 -5.418,-0.30029 -4.202,2.3797 2.0949,5.5902 5.9783,10.672 11.569,13.069 0.80813,0.40515 2.5984,1.5722 0.66291,1.4679 -4.342,0.0436 -8.7656,-0.0867 -12.837,1.7392 -4.246,1.5657 -8.5844,2.7104 -13.032,3.3116 -2.1266,0.50875 -0.78584,2.7997 0.75761,3.1094 2.8483,2.4438 6.7492,2.307 9.991,0.78918 12.037,-4.1729 24.144,-8.3698 36.018,-13.006 4.3909,-3.0248 8.4172,-6.9154 11.096,-11.554 1.8525,-4.9876 1.2869,-11.312 -3.1094,-14.821 -0.78509,-0.66107 -1.6958,-1.5669 -2.8095,-1.4521 z"
           style="color:#000000;fill:#ff410d"
           id="path5841" />
        <path
           d="m -468.91,702.06 c -0.31805,0.006 -0.62654,0.0202 -0.90625,0.0312 -4.7587,0.61026 -12.648,2.0359 -11.312,8.5938 -0.20833,2.7342 2.9162,8.6952 5.7188,4.9375 2.9837,-4.0266 7.9307,-7.704 8.9688,-12.625 -0.49009,-0.86241 -1.5146,-0.95573 -2.4688,-0.9375 z m -15.531,3.3438 c -0.11622,0.002 -0.22624,0.005 -0.34375,0.0312 -55.887,14.024 -111.27,31.58 -163.03,57.156 -15.526,8.3101 -30.354,18.642 -42.781,31.188 -9.5016,12.328 -15.149,27.863 -13.656,43.594 0.44848,6.4808 -0.81608,16.201 6.8438,18.875 3.4597,-1.7511 0.9885,-7.2221 2.25,-10.25 1.2772,-6.1875 2.0416,-12.57 -0.8125,-18.469 -3.0221,-11.832 2.0317,-23.966 9.8438,-32.875 -4.3748,8.6106 -9.297,17.469 -8.0938,27.531 0.17857,2.2699 -0.43572,8.9758 3.5938,7.5938 14.316,-12.416 30.068,-22.868 47.375,-30.688 25.801,-12.773 53.449,-21.464 79.5,-33.625 3.8926,-2.2637 6.7216,-6.3377 11.5,-6.6562 4.6223,-3.173 9.3917,-6.1323 14.781,-7.625 5.313,-2.9074 9.2276,-8.0962 15.312,-9.4375 7.0509,-5.4213 16.432,-5.5992 23.531,-10.656 7.2224,-1.7246 14.31,-5.5709 19.094,-11.375 -0.72823,-4.3191 -3.6327,-8.255 -3.1562,-12.938 -0.17269,-0.82901 -0.93646,-1.3919 -1.75,-1.375 z"
           style="color:#000000;fill:#ffe24c"
           id="path5843" />
        <path
           d="m -551.1,805.19 c -8.1751,3.9496 -14.047,11.547 -22.002,15.815 -20.309,8.2442 -39.56,20.858 -52.97,38.449 -1.7031,5.3696 6.7112,5.7525 9.9301,7.255 4.2712,1.3297 8.5257,2.7122 12.672,4.3933 -8.6126,-1.2236 -17.124,-5.6539 -25.854,-4.9245 -4.2604,3.5177 -1.7527,10.557 -2.272,15.34 0.68639,5.4941 -0.39994,13.57 6.7545,15.028 19.449,9.5335 40.432,15.28 61.903,18.088 8.7687,1.2546 17.408,3.2582 24.036,9.377 10.469,7.1414 23.679,9.9587 36.036,11.899 39.545,1.5806 77.566,-11.26 115.66,-19.952 5.9519,-2.3854 14.029,-1.8217 18.531,-6.817 5.6921,-26.174 10.43,-52.813 12.167,-79.61 -0.79285,-2.7492 2.2921,-8.8378 -1.3712,-9.7888 -29.317,9.0713 -57.859,20.977 -86.762,31.455 -27.099,10.793 -55.33,19.678 -80.576,34.332 -10.826,6.1631 -17.058,17.387 -21.56,28.6 -2.1504,2.9991 -1.1528,-2.6058 -0.72605,-3.8196 5.6976,-18.956 23.681,-31.057 41.132,-38.323 6.9915,-3.4598 14.651,-5.9032 21.308,-9.849 -0.0949,-3.9259 -6.2946,-4.5928 -8.7548,-6.8143 -12.191,-6.8121 -25.842,-11.641 -36.639,-20.397 -4.2302,-3.9874 3.5718,-12.375 -4.6307,-13.142 -7.9424,-2.3696 -10.421,-10.977 -15.288,-16.563 l -0.59978,-0.0631 -0.12627,0.0316 z"
           style="color:#000000;fill:#ffe24c"
           id="path5848" />
        <path
           d="m -240.29,749.64 c -6.6299,4.7797 -9.8764,13.309 -15.184,19.414 -2.0944,3.0543 -4.763,5.9047 -6.2188,9.3124 3.1643,2.2007 8.2055,-1.6967 11.964,-1.9256 8.7944,-2.4154 19.323,-4.9355 27.179,1.2627 -17.241,-4.4042 -34.187,3.7523 -50.003,9.3124 -7.4296,18.507 -7.1075,38.995 -11.016,58.375 -1.4977,11.186 -4.3349,22.276 -5.6202,33.423 3.0749,1.9615 6.9776,-2.2837 10.132,-2.8915 25.653,-12.483 53.67,-26.111 67.776,-52.32 4.7126,-9.0952 9.4652,-18.521 12.69,-28.19 -9.8222,-17.088 -21.416,-34.598 -38.733,-44.857 -0.91157,-0.40741 -1.9302,-1.0408 -2.9673,-0.91545 z"
           style="color:#000000;fill:#ffe24c"
           id="path5850" />
        <path
           d="m -352.23,717.28 c -2.91,2.5017 3.3988,4.2967 4.4826,6.2819 3.5635,3.4696 -1.9446,8.1733 -3.7249,11.08 -10.038,12.267 -22.426,22.846 -32.704,34.819 7.3882,6.5556 16.98,11.085 23.739,18.183 -1.2376,9.1032 -9.5815,14.451 -15.784,20.329 -2.242,4.9888 -2.8011,10.591 -5.7768,15.405 2.592,2.4518 7.0208,-1.2666 10.196,-1.2627 9.9816,-2.5082 20.039,-5.7874 27.416,-13.372 17.862,-15.018 33.662,-32.557 44.778,-53.158 4.144,-7.7915 9.618,-15.154 12.059,-23.658 -3.7397,-3.3643 -10.353,-2.8304 -15.089,-4.672 -16.46,-3.5197 -32.927,-7.7516 -49.592,-9.9753 z"
           style="color:#000000;fill:#ffe24c"
           id="path5852" />
        <path
           d="m -440.58,704.43 c -4.4456,1.625 -6.7037,7.4946 -7.0395,11.964 2.8525,9.0804 -6.6383,14.668 -10.354,21.592 1.9516,4.8853 6.2415,10.217 12.217,7.8602 5.823,-1.5196 10.114,3.8359 10.415,9.2804 1.0357,6.6886 8.5855,-0.52762 12.706,-0.8182 6.057,-2.8336 12.964,-1.3495 18.138,2.8705 9.0628,-6.527 16.837,-15.745 25.485,-23.213 6.2048,-6.1021 13.083,-11.46 19.12,-17.571 -8.4287,-2.9237 -18.572,-3.2882 -27.681,-5.1027 -17.601,-2.661 -35.478,-4.8672 -53.005,-6.8613 z"
           style="color:#000000;fill:#ffe24c"
           id="path5854" />
        <path
           d="m -461.51,736.32 c -2.3491,2.6714 -7.7255,6.4206 -4.0406,10.291 4.7696,6.0961 7.1886,14.278 12.658,19.635 5.3106,-1.1349 10.681,-4.1827 14.963,-7.5446 2.926,-5.0693 -1.1578,-14.214 -7.9162,-11.686 -7.261,2.4813 -11.849,-4.7977 -14.244,-10.474 l -0.66291,-0.44195 -0.75761,0.22098 z"
           style="color:#000000;fill:#ffe24c"
           id="path5856" />
        <path
           d="m -544.22,798.38 c -4.1999,1.0548 -5.942,6.2297 -2.6517,9.407 3.529,6.0042 8.6475,14.032 16.478,13.858 2.761,-1.7301 7.7179,-5.2867 5.9346,-8.9967 -6.4456,-1.4603 -10.123,-7.3476 -14.363,-11.743 -1.6123,-1.0485 -3.3884,-2.5608 -5.398,-2.5254 z"
           style="color:#000000;fill:#ffe24c"
           id="path5858" />
        <path
           d="m -547.94,920.32 c -6.3875,1.9617 -13.03,4.5034 -18.435,8.3338 0.29433,3.6186 6.2664,3.482 8.9967,4.7667 11.995,2.9006 24.609,4.2153 36.839,3.3461 -2.2206,-3.601 -8.84,-3.6446 -12.69,-6.2819 -5.8015,-1.9757 -9.0454,-7.9265 -14.458,-10.196 l -0.25254,0.0316 z"
           style="color:#000000;fill:#eed035"
           id="path5860" />
        <path
           d="m -706.66,853.11 c -1.2639,4.1464 -11.507,10.502 -4.3585,13.187 22.47,12.069 43.005,27.316 66.641,37.289 18.606,8.9914 38.498,15.595 56.411,25.854 2.1382,3.7418 5.9314,2.6212 9.1229,0.85231 9.6163,-3.803 19.751,-6.9309 28.979,-11.333 -4.0313,-2.8159 -11.158,-1.7856 -16.312,-3.0019 -19.147,-1.5574 -37.312,-7.4527 -55.038,-14.501 -5.786,-1.832 -11.615,-3.1013 -16.407,-7.0251 -17.124,-8.9296 -33.489,-19.086 -50.034,-28.852 -7.381,-1.3423 -11.94,-8.1558 -17.678,-12.627 l -1.0031,0.11941 -0.32275,0.0384 z"
           style="color:#000000;fill:#eed035"
           id="path5862" />
        <path
           d="m -202.85,780.76 c 2.2135,5.3287 5.4626,10.333 6.0294,16.131 2.1809,1.9435 7.9292,-3.6781 3.3777,-3.7249 -0.30798,-1.1798 5.7561,-4.0602 6.9132,-6.0925 -4.4172,-3.1358 -10.278,-5.0587 -15.436,-7.1973 l -0.71428,0.71429 -0.1696,0.1696 z"
           style="color:#000000;fill:#eed035"
           id="path5864" />
        <path
           d="m -563.3,770.56 c -18.474,5.0845 -35.971,13.469 -53.841,20.367 -25.026,10.926 -51.55,21.482 -70.945,41.315 -2.9575,4.7927 4.7893,7.5109 7.6708,9.5649 14.85,7.8339 30.634,14.65 46.814,18.972 14.238,-11.211 25.092,-26.565 41.881,-34.337 2.7713,-2.7538 10.176,-3.5999 9.6057,-8.4683 -4.0079,-5.0946 -0.83869,-11.418 4.009,-14.647 7.8179,-8.2084 20.214,-0.79237 29.452,-4.5141 3.2444,-1.7251 2.832,-5.4225 -0.34724,-6.8501 -3.1911,-3.0566 -1.9689,-9.0312 -6.6923,-10.796 -2.7409,-3.3501 -1.1349,-11.705 -7.6077,-10.607 z"
           style="color:#000000;fill:#fcf7dc"
           id="path5866" />
        <path
           d="m -691.68,838.56 c -1.4484,6.5302 -2.8312,14.266 0.1894,20.487 15.398,11.518 32.417,21.147 49.561,29.926 1.9052,0.81334 6.5816,4.2478 6.6607,0 0.736,-8.111 0.0907,-16.368 1.5784,-24.37 -7.9121,-4.653 -18.003,-6.5264 -26.58,-10.543 -10.856,-4.11 -21.116,-9.9339 -30.841,-16.068 l -0.56821,0.56821 z"
           style="color:#000000;fill:#fcf7dc"
           id="path5868" />
        <path
           d="m -458.16,700.5 c -0.24902,-0.0186 -0.50212,-0.007 -0.75,0.0312 -4.281,1.9774 -6.3287,6.8099 -9.3438,10.219 -1.8211,2.5894 -4.0068,5.0914 -5.3125,7.9688 0.57668,2.2499 4.0485,2.097 5.9375,1.5625 4.5881,-1.8525 7.5958,-6.8959 12.906,-7 2.365,-0.39621 5.3136,-0.48217 6.125,-3.2812 0.78798,-1.8437 3.6717,-5.0116 0.96875,-6.4688 -3.3545,-0.78577 -6.8486,-0.92538 -9.7812,-2.9062 -0.23971,-0.0746 -0.50098,-0.10643 -0.75,-0.125 z m 3.75,13.531 c -0.15489,0.006 -0.29907,0.009 -0.4375,0.0312 -5.6591,0.066 -8.2068,6.4698 -13.438,7.4062 -3.1933,0.38646 -6.9205,-2.6577 -9.5625,0.28125 -1.1388,1.4745 -5.5955,3.4654 -2.6875,5.1875 4.4083,3.4672 5.9556,9.6942 10.562,12.938 2.4289,0.19508 3.8074,-2.8968 5.5625,-4.2188 5.6824,-5.5504 9.7411,-12.613 12.406,-20 0.0667,-1.2919 -1.322,-1.666 -2.4062,-1.625 z"
           style="color:#000000;fill:#fcf7dc"
           id="path5870" />
        <path
           d="m -284.7,732.28 c -2.5191,0.44287 -1.6619,4.0014 -2.841,5.6505 -5.2942,14.492 -14.455,27.063 -22.914,39.828 -10.356,14.78 -23.894,27.119 -38.422,37.716 -1.8562,1.8256 -6.2532,1.3985 -5.2646,5.0184 -0.1665,18.574 -1.5544,37.157 -5.2561,55.383 -1.7044,10.645 -4.615,21.268 -4.9157,32.122 0.29667,2.8861 3.744,0.82692 5.2875,0.47351 21.285,-6.8544 43.254,-12.64 62.629,-24.117 2.8438,-2.3257 2.5933,-6.6917 3.8398,-9.8989 5.4936,-23.262 8.8228,-46.938 12.057,-70.607 0.56816,-4.8385 2.0007,-9.4592 3.6434,-13.975 -1.0654,-2.0807 -3.7353,0.4742 -5.3463,0.67644 -14.692,5.9232 -29.245,12.264 -43.899,18.232 9.3835,-5.7102 19.878,-9.4042 29.837,-14.102 8.8171,-4.2724 18.482,-7.2326 26.282,-13.291 9.1978,-8.6939 16.41,-19.26 23.809,-29.459 0.89105,-1.4794 3.4778,-4.0826 0.9628,-5.3506 -10.72,-5.4487 -22.319,-9.113 -33.635,-13.1 -1.9147,-0.51416 -3.8432,-1.2863 -5.8557,-1.1996 z"
           style="color:#000000;fill:#fcf7dc"
           id="path5875" />
        <path
           d="m -566.12,799.99 c -3.2376,-0.13124 -6.4869,0.62684 -9.171,2.4783 -3.2842,2.1832 -6.7298,5.0171 -7.757,8.9964 -0.673,2.954 1.7265,5.5911 4.088,6.9527 2.4276,0.35026 4.6498,-1.2758 6.5818,-2.557 1.0136,-0.47946 1.2718,-2.1865 -0.0552,-2.4149 -1.3602,-0.42594 -2.9421,-0.48163 -4.2142,-0.88389 2.6856,-0.97727 5.4604,0.20645 7.947,1.1584 1.7704,-0.52351 3.2339,-2.0054 4.8644,-2.9428 3.3236,-2.4177 6.968,-4.5505 9.8406,-7.4933 0.49589,-1.479 -1.7111,-1.9302 -2.7646,-2.3942 -3.018,-0.88982 -6.2361,-0.85812 -9.3597,-0.89967 z"
           style="color:#000000;fill:#fcf7dc"
           id="path5899" />
        <path
           d="m -449.33,718.49 c -1.6447,0.80188 -2.1353,2.8938 -3.1613,4.2961 -1.6346,3.0574 -3.6379,5.9935 -4.9593,9.1752 0.16956,1.3993 1.8387,0.90536 2.4149,0.0947 3.049,-2.835 6.6996,-5.9406 6.9448,-10.425 -0.0217,-1.0317 0.44436,-3.2397 -1.239,-3.1409 z"
           style="color:#000000;fill:#ffe24c"
           id="path5901" />
      </g>
    </g>
  </g>
  <metadata
     id="metadata332">
    <rdf:RDF>
      <cc:Work>
        <dc:format>image/svg+xml</dc:format>
        <dc:type
           rdf:resource="http://purl.org/dc/dcmitype/StillImage" />
        <cc:license
           rdf:resource="http://creativecommons.org/publicdomain/zero/1.0/" />
        <dc:publisher>
          <cc:Agent
             rdf:about="http://openclipart.org/">
            <dc:title>Openclipart</dc:title>
          </cc:Agent>
        </dc:publisher>
        <dc:title></dc:title>
      </cc:Work>
      <cc:License
         rdf:about="http://creativecommons.org/publicdomain/zero/1.0/">
        <cc:permits
           rdf:resource="http://creativecommons.org/ns#Reproduction" />
        <cc:permits
           rdf:resource="http://creativecommons.org/ns#Distribution" />
        <cc:permits
           rdf:resource="http://creativecommons.org/ns#DerivativeWorks" />
      </cc:License>
    </rdf:RDF>
  </metadata>
</svg>
