<svg width="437" height="562" viewBox="0 0 437 562" fill="none" xmlns="http://www.w3.org/2000/svg">
<path d="M194.971 366.957C187.782 361.005 186.442 358.876 188.591 356.822C189.685 355.775 190.535 356.091 190.158 357.403C190.073 357.697 189.893 358.419 189.756 359.008L189.507 360.077L190.252 359.186C191.055 358.224 192.193 358.906 192.038 360.256C192.004 360.55 192.103 361.165 192.258 361.623L192.539 362.456L193.233 361.713C193.615 361.303 194.137 360.969 194.394 360.969C194.651 360.969 195.138 360.663 195.476 360.289C196.071 359.634 196.051 359.612 194.907 359.665C193.799 359.717 193.729 359.653 193.843 358.69C193.943 357.84 193.857 357.7 193.353 357.893C192.671 358.154 191.221 356.843 191.221 355.966C191.221 355.678 190.952 355.463 190.624 355.487C190.255 355.515 190.099 355.345 190.216 355.042C190.335 354.73 190.154 354.551 189.718 354.551C188.912 354.551 187.113 356.309 187.113 357.096C187.113 357.396 187.016 357.737 186.899 357.855C186.642 358.111 184.97 357.398 184.97 357.032C184.97 356.891 183.851 356.019 182.483 355.095C181.115 354.171 179.898 353.109 179.78 352.735C179.623 352.244 179.23 352.056 178.362 352.056C177.43 352.056 176.986 351.811 176.384 350.968C175.958 350.37 174.76 349.403 173.723 348.819C172.074 347.89 170.494 346.425 167.587 343.127C166.281 341.646 162.335 337.924 161.455 337.345C160.997 337.043 160.169 335.938 159.614 334.889C158.369 332.535 157.304 331.708 155.215 331.473C154.025 331.34 153.55 331.114 153.421 330.621C153.187 329.729 152.446 329.767 152.206 330.684C152.085 331.142 151.819 331.343 151.495 331.219C151.21 331.11 150.83 331.021 150.649 331.021C150.469 331.021 150.321 330.78 150.321 330.486C150.321 330.192 150.156 329.951 149.953 329.951C149.75 329.951 149.492 330.192 149.379 330.486C149.266 330.78 148.829 331.025 148.408 331.031C147.987 331.036 147.178 331.513 146.61 332.09C145.382 333.34 144.832 333.158 145.159 331.611C145.466 330.154 145.911 329.685 146.464 330.236C146.699 330.472 147.084 330.664 147.318 330.664C147.948 330.664 148.276 329.52 147.744 329.183C147.387 328.957 147.384 328.891 147.732 328.887C147.977 328.884 148.178 328.567 148.178 328.182C148.178 327.797 148.5 326.668 148.892 325.673C149.285 324.678 149.607 323.215 149.607 322.421C149.607 320.623 150.458 320.684 150.587 322.492C150.635 323.163 150.863 324.56 151.094 325.597C151.713 328.38 152.163 327.162 151.889 323.445C151.742 321.463 151.787 320.325 152.013 320.325C152.396 320.325 152.822 322.79 152.822 325.01C152.822 327.089 153.783 326.849 154.094 324.692C154.324 323.105 154.93 321.442 154.954 322.333C154.96 322.556 155.286 322.821 155.679 322.924C156.262 323.076 156.388 323.397 156.365 324.659L156.336 326.208L155.88 325.178C155.63 324.612 155.34 324.291 155.237 324.465C154.983 324.892 155.571 326.386 155.994 326.386C156.179 326.386 156.441 327.034 156.575 327.826C156.746 328.84 157.099 329.442 157.767 329.862C159.216 330.772 160.497 332.111 160.538 332.757C160.558 333.077 160.598 333.699 160.627 334.14C160.666 334.729 160.903 334.942 161.518 334.942C161.978 334.942 162.646 335.263 163.002 335.655C163.792 336.527 164.553 336.572 164.864 335.765C165.041 335.303 165.191 335.448 165.507 336.389C166.017 337.91 167.944 338.39 168.355 337.098C168.752 335.849 171.716 334.731 172.268 335.622C172.378 335.8 172.781 335.864 173.163 335.764C173.706 335.622 173.939 335.844 174.23 336.778L174.603 337.973L174.399 336.565C174.286 335.791 173.967 334.832 173.688 334.436C173.15 333.669 173.002 332.439 173.45 332.458C174.215 332.49 174.968 333.531 174.968 334.554C174.968 335.822 175.857 337.795 176.428 337.795C176.664 337.795 176.711 337.214 176.557 336.19C176.362 334.892 176.419 334.586 176.854 334.586C177.548 334.586 177.826 335.343 177.826 337.234C177.826 338.754 178.59 339.934 179.576 339.934C179.82 339.934 180.274 340.187 180.584 340.497C181.337 341.248 182.688 339.694 183.087 337.616L183.361 336.19L183.54 338.151C183.785 340.823 185.006 341.198 185.633 338.794C186.274 336.336 186.771 335.901 186.524 338.014C186.249 340.365 186.844 340.788 187.799 338.919C188.63 337.293 189.57 336.943 192.253 337.256C194.294 337.494 194.989 337.068 198.644 333.338C200.098 331.854 200.351 331.705 200.158 332.447C200.03 332.937 199.132 334.09 198.163 335.009C197.193 335.928 196.4 336.77 196.4 336.88C196.4 337.239 199.923 337.093 200.151 336.725C200.272 336.529 200.658 336.369 201.009 336.369C201.36 336.369 202.501 335.551 203.544 334.553C205.203 332.965 205.578 332.764 206.523 332.952C207.613 333.17 209.611 331.823 209.62 330.865C209.622 330.656 210.184 329.781 210.87 328.921C211.556 328.06 212.117 327.188 212.117 326.983C212.117 326.35 213.595 325.001 214.084 325.188C214.404 325.311 214.547 325.003 214.548 324.182C214.551 322.918 215.847 318.84 216.627 317.639C217.073 316.953 217.337 315.55 218.202 309.273C218.405 307.802 218.659 306.118 218.766 305.529C218.874 304.941 218.992 304.139 219.028 303.747C219.065 303.355 219.412 302.562 219.799 301.985C220.919 300.319 221.044 293.895 219.998 291.847C218.909 289.716 217.844 285.386 217.489 281.642C217.322 279.878 217.001 277.086 216.776 275.439C216.552 273.792 216.451 272.228 216.553 271.963C216.977 270.86 217.392 271.631 217.588 273.888C218.618 285.771 219.338 288.886 220.302 285.636C220.589 284.668 220.637 284.874 220.618 286.99C220.58 291.318 221.653 295.12 222.479 293.579C222.82 292.943 222.809 292.721 222.423 292.477C222.033 292.231 222.106 291.879 222.803 290.651C223.753 288.976 226.833 285.338 227.086 285.591C227.174 285.678 226.841 286.189 226.346 286.727C224.437 288.8 224.13 291.203 225.964 289.716C226.501 289.281 227.217 288.833 227.555 288.721C227.92 288.6 228.137 288.208 228.09 287.754C228.035 287.208 228.187 287.019 228.624 287.092C229.34 287.211 232.987 283.739 233.352 282.591C233.487 282.167 233.747 281.821 233.93 281.821C234.113 281.821 234.263 281.635 234.263 281.409C234.263 280.827 236.008 278.612 236.466 278.612C236.692 278.612 236.752 278.938 236.613 279.414C236.484 279.855 236.312 280.502 236.232 280.851C236.152 281.2 235.515 282.152 234.817 282.965C234.12 283.779 233.549 284.588 233.549 284.763C233.549 285.221 235.341 283.752 236.522 282.325C237.076 281.656 237.84 281.108 238.218 281.108C238.669 281.108 238.907 280.861 238.907 280.395C238.907 279.963 239.153 279.672 239.532 279.656C240.105 279.634 240.103 279.61 239.505 279.375C238.915 279.143 238.938 279.072 239.748 278.639C240.241 278.376 240.902 278.259 241.216 278.38C241.596 278.525 241.9 278.332 242.123 277.803C242.586 276.707 244.507 274.566 244.703 274.929C244.79 275.092 244.817 275.033 244.761 274.799C244.705 274.564 245.34 273.36 246.171 272.122C247.003 270.885 248.373 268.269 249.216 266.31C250.06 264.35 251.316 261.543 252.008 260.073C253.711 256.452 255.338 251.512 255.338 249.961C255.338 249.054 255.543 248.58 256.052 248.308C256.78 247.919 257.059 246.525 256.41 246.525C256.213 246.525 256.052 246.284 256.052 245.99C256.052 245.174 255.454 245.354 255.163 246.258C254.943 246.942 254.88 246.968 254.737 246.431C254.567 245.792 255.347 242.983 256.262 240.945C256.54 240.327 256.767 239.698 256.767 239.547C256.767 239.396 257.028 238.984 257.348 238.631C257.668 238.279 258.295 236.261 258.741 234.147C259.188 232.033 259.889 228.779 260.301 226.916C261.964 219.383 262.825 209.665 261.627 211.942C261.37 212.433 260.877 214.679 260.532 216.934C259.652 222.686 258.794 226.46 258.374 226.418C257.951 226.375 257.931 226.552 258.845 222.282C259.244 220.419 259.677 218.092 259.807 217.112C259.937 216.132 260.368 214.046 260.765 212.477C262.227 206.691 263.194 197.364 262.684 193.968C262.334 191.642 262.184 191.984 261.58 196.475C260.796 202.3 260.387 204.365 259.471 207.12C257.793 212.169 256.438 216.793 256.202 218.271C256.043 219.273 255.78 219.786 255.425 219.786C254.689 219.786 255.053 217.653 256.392 214.122C259.295 206.469 260.838 200.625 260.626 198.093C260.532 196.979 260.424 197.203 259.877 199.642C259.526 201.211 258.514 204.478 257.629 206.901C256.743 209.325 255.926 211.772 255.812 212.338C255.699 212.905 255.374 213.368 255.091 213.368C254.475 213.368 254.496 213.287 256.656 207.486C258.412 202.767 259.437 198.952 259.802 195.78C260.062 193.516 260.41 193.285 260.41 195.376C260.41 197.137 260.91 196.494 261.219 194.334C261.435 192.831 261.391 192.621 260.904 192.808C260.483 192.969 260.339 192.8 260.339 192.144C260.339 191.66 260.517 191.264 260.734 191.264C260.952 191.264 261.044 191.041 260.939 190.768C260.768 190.323 261.311 184.306 262.085 178.073C262.355 175.897 262.314 174.855 262.003 175.972C260.867 180.049 260.309 183 259.65 188.412C259.005 193.713 257.431 200.534 256.853 200.534C256.553 200.534 256.433 200.291 256.546 199.91C256.813 199.006 258.048 193.228 258.51 190.717C258.728 189.534 259.004 187.288 259.123 185.726C259.243 184.164 259.708 181.281 260.157 179.321C260.607 177.36 261.151 174.632 261.366 173.26C261.581 171.887 261.923 169.801 262.125 168.625C262.328 167.448 262.72 165.122 262.997 163.455C263.274 161.789 263.672 159.671 263.881 158.75C266.163 148.727 262.838 126.497 257.893 118.712C257.394 117.928 256.602 116.564 256.132 115.681C253.681 111.082 248.79 104.638 247.745 104.631C247.596 104.63 246.229 103.386 244.706 101.866C243.184 100.347 241.325 98.7021 240.575 98.2118C239.017 97.193 232.477 90.8357 232.477 90.34C232.477 90.1595 232.196 90.0129 231.852 90.0141C231.015 90.0168 229.922 91.9886 230.183 93.0266C230.341 93.6534 230.048 94.204 228.933 95.3737C228.132 96.2141 227.476 97.0992 227.476 97.3404C227.476 97.5817 227.235 97.8714 226.941 97.9843C226.646 98.0971 226.405 98.4969 226.405 98.8727C226.405 99.2485 226.003 99.8187 225.512 100.14C224.744 100.642 224.619 100.991 224.619 102.623C224.619 105.089 224.06 106.647 223.077 106.92C222.648 107.039 221.516 108.177 220.561 109.448C219.571 110.767 218.554 111.76 218.194 111.76C217.846 111.76 217.362 112 217.118 112.294C216.873 112.589 216.314 112.829 215.875 112.829C214.061 112.829 206.44 123.375 202.702 131.056C202.571 131.326 202.045 132.269 201.535 133.151C199.557 136.568 198.43 139.086 198.324 140.322C198.11 142.832 196.095 148.385 195.325 148.586C194.538 148.791 194.34 150.113 195.061 150.354C195.915 150.64 192.822 162.131 189.711 170.229C189.222 171.504 188.52 173.481 188.152 174.622C187.784 175.764 186.757 178.219 185.869 180.077C184.982 181.935 184.255 183.548 184.255 183.661C184.255 184.202 182.333 188.055 182.063 188.055C181.611 188.055 181.709 187.289 182.291 186.273C182.897 185.215 182.966 184.719 182.464 185.028C181.795 185.441 180.646 188.089 180.853 188.742C180.966 189.097 180.875 189.85 180.65 190.415C180.426 190.98 180.193 191.978 180.133 192.633C180.004 194.029 180.072 193.948 178.765 194.262C177.754 194.505 177.743 194.491 177.977 193.243C178.333 191.353 177.953 191.716 177.327 193.864C176.422 196.972 173.959 201.892 173.186 202.137C172.773 202.268 172.341 202.893 172.124 203.674C171.66 205.34 171.656 205.984 172.11 205.703C172.312 205.579 172.468 205.871 172.468 206.374C172.468 206.864 172.307 207.365 172.11 207.486C171.913 207.608 171.753 207.347 171.753 206.901C171.753 205.727 171.124 206.502 170.59 208.335C169.878 210.774 169.164 210.046 169.757 207.486L170.004 206.416L169.433 207.408C169.071 208.035 168.815 209.507 168.735 211.412C168.65 213.455 168.38 214.914 167.897 215.946C167.055 217.748 166.576 220.499 167.105 220.499C167.304 220.499 167.467 220.184 167.467 219.799C167.467 218.99 168.833 215.136 169.298 214.633C169.479 214.438 169.513 216.133 169.378 218.632C169.212 221.716 169.265 223.114 169.56 223.469C169.882 223.856 169.854 224.071 169.436 224.417C169.139 224.663 168.899 225.126 168.904 225.445C168.91 225.878 169.089 225.799 169.61 225.134C170.463 224.045 170.509 224.615 169.753 226.921C169.056 229.049 169.263 230.036 170.078 228.469C170.91 226.869 171.255 224.418 170.696 224.073C170.355 223.863 170.346 223.62 170.657 223.04C170.881 222.623 170.916 222.282 170.736 222.282C170.11 222.282 169.983 220.661 170.362 217.517C170.637 215.249 170.635 214.248 170.356 213.97C169.896 213.511 169.836 211.709 170.271 211.44C170.439 211.337 170.765 211.883 170.996 212.654C171.405 214.017 172.515 215.151 173.44 215.151C174.132 215.151 173.991 214.644 173.003 213.58C171.648 212.12 171.896 210.533 173.488 210.491C174.221 210.472 174.792 209.973 176.04 208.263C178.585 204.774 183.606 202.977 185.861 204.747C187.112 205.729 189.256 208.553 189.256 209.218C189.256 209.508 189.516 210.759 189.834 211.998C190.653 215.188 190.387 221.173 189.337 223.208C188.922 224.012 188.344 225.696 188.052 226.951C187.227 230.496 184.316 236.927 181.304 241.856C180.537 243.111 179.775 244.475 179.609 244.886C179.444 245.297 178.502 246.757 177.515 248.129C174.174 252.778 173.006 254.398 171.916 255.897C171.318 256.72 170.153 257.846 169.328 258.399C168.503 258.952 167.428 260.086 166.939 260.919C166.45 261.752 165.627 262.825 165.112 263.303C163.753 264.563 162.24 267.058 159.285 272.908C157.849 275.751 156.382 278.353 156.025 278.69C155.668 279.027 154.851 280.902 154.209 282.858C153.566 284.813 152.913 286.334 152.757 286.237C152.601 286.141 152.569 286.312 152.686 286.617C152.803 286.922 152.41 288.575 151.811 290.29C151.213 292.005 150.459 294.443 150.136 295.709C149.813 296.975 149.312 298.468 149.023 299.027C148.733 299.586 148.038 301.759 147.478 303.856C146.917 305.953 145.972 308.975 145.376 310.572C144.781 312.169 144.112 314.478 143.889 315.703C143.667 316.928 143.265 318.269 142.998 318.682C142.73 319.095 141.946 321.098 141.257 323.132C140.568 325.166 139.691 327.171 139.308 327.588C138.925 328.006 138.113 329.309 137.504 330.486C134.924 335.472 134.216 336.37 128.188 342.298C125.244 345.194 125.497 345.151 130.404 341.922C134.542 339.199 137.462 336.698 137.462 335.876C137.462 335.619 137.784 335.119 138.176 334.764C138.582 334.398 138.891 334.297 138.891 334.531C138.891 335.109 140.049 335.044 140.877 334.419C141.258 334.131 141.791 333.89 142.06 333.884C143.021 333.862 141.821 334.775 140.059 335.408C139.039 335.774 137.673 336.684 136.734 337.625C135.858 338.502 132.97 340.613 130.318 342.316C127.666 344.018 125.164 345.703 124.758 346.059C123.843 346.864 122.601 346.897 122.17 346.127C121.653 345.206 122.393 342.931 123.351 342.495C124.271 342.077 126.364 339.089 127.265 336.908C127.588 336.127 128.168 335.151 128.555 334.74C129.548 333.684 132.692 327.491 134.091 323.831C135.503 320.139 136.019 315.837 136.199 306.242C136.348 298.362 136.941 289.922 137.408 289.051C138.245 287.491 138.938 276.25 138.521 271.008C138.224 267.27 138.223 265.028 138.52 262.39C139.359 254.934 140.015 248.346 140.298 244.564C140.666 239.62 141.456 235.359 142.826 230.924C143.416 229.014 144.047 226.97 144.228 226.382C144.408 225.793 145.072 223.547 145.702 221.39C146.332 219.233 147.125 217.067 147.463 216.577C147.801 216.087 148.365 214.803 148.717 213.725C150.682 207.703 155.49 197.02 159.708 189.303C161.371 186.262 162.918 182.21 164.056 177.915C165.04 174.199 169.717 159.957 170.281 158.956C170.872 157.909 174.569 149.968 175.572 147.59C176.863 144.532 183.244 131.91 184.675 129.586C187.519 124.964 189.929 121.678 191.604 120.138C192.03 119.746 193.143 118.176 194.077 116.65C195.011 115.123 196.84 112.704 198.141 111.274C199.443 109.844 200.823 108.089 201.209 107.374C201.987 105.932 202.056 106.361 200.034 99.9945C198.012 93.627 196.473 88.4082 196.251 87.1597C194.452 77.081 194.759 66.2576 197.108 56.8553C198.585 50.9459 199.263 48.0497 199.26 47.6568C199.257 47.0501 201.214 41.8384 202.3 39.564C202.768 38.5835 203.749 36.3491 204.479 34.5985C208.214 25.6419 220.244 14.6694 227.937 13.204C234.113 12.0273 235.651 11.882 239.978 12.0664C245.587 12.3054 246.237 12.4652 251.486 14.8925C261.244 19.4059 261.325 19.4159 275.163 17.8071C275.752 17.7386 280.172 17.6324 284.986 17.5711L293.737 17.4596L296.059 18.822C306.714 25.0743 312.481 35.4569 303.732 32.6358C300.996 31.7536 301.06 31.758 301.06 32.4517C301.06 32.7567 300.459 33.2478 299.72 33.5466C298.983 33.8447 296.773 34.8681 294.809 35.8208C288.838 38.716 288.637 38.7512 277.127 38.9143C268.422 39.0376 266.662 39.1541 264.982 39.7186C263.902 40.0817 262.244 40.4746 261.297 40.5917C259.86 40.7696 259.136 41.1723 256.897 43.0365C252.875 46.3852 246.178 50.9727 244.296 51.6675C235.866 54.7799 228.61 58.9427 227.163 61.4972C224.066 66.962 222.998 73.4376 224.43 78.0683C225.69 82.1419 234.799 92.4072 241.205 96.9735C242.986 98.2431 245.81 100.577 247.48 102.16C249.15 103.743 250.86 105.176 251.28 105.345C251.7 105.513 252.504 106.297 253.066 107.086C257.367 113.127 258.334 114.568 259.499 116.678C260.225 117.993 261.12 119.504 261.487 120.037C261.855 120.569 262.407 121.853 262.713 122.889C263.019 123.925 263.392 124.933 263.541 125.129C263.691 125.325 263.911 126.587 264.031 127.933C264.151 129.28 264.393 130.563 264.57 130.786C265.307 131.715 266.076 136.734 266.031 140.315C266.005 142.355 266.084 144.586 266.207 145.273C266.33 145.959 266.501 147.002 266.587 147.59C266.672 148.178 266.845 149.09 266.971 149.616C267.119 150.235 266.998 150.861 266.627 151.389C266.312 151.838 266.054 152.641 266.054 153.175C266.054 153.708 265.885 154.248 265.679 154.375C265.419 154.535 265.422 154.746 265.688 155.066C266.083 155.541 265.63 158.68 264.505 163.277C264.217 164.454 263.871 166.78 263.736 168.447C263.6 170.113 263.363 172.069 263.207 172.792C262.988 173.814 263.043 174.153 263.457 174.311C263.908 174.484 263.945 175.122 263.703 178.522C263.368 183.226 263.422 184.794 263.943 185.42C264.184 185.71 264.231 186.62 264.072 187.89C263.932 189.014 264.023 191.833 264.28 194.277C264.647 197.762 264.652 199.513 264.309 202.89C264.072 205.222 263.792 208.894 263.688 211.051C263.583 213.208 263.193 216.497 262.821 218.36C262.214 221.399 261.551 225.936 260.372 235.135C260.157 236.812 259.982 239.119 259.982 240.263C259.982 242.525 259.383 245.002 258.655 245.748C258.402 246.007 258.196 246.614 258.196 247.097C258.196 247.863 257.119 251.056 255.503 255.082C255.228 255.768 254.751 257.337 254.443 258.568C253.799 261.147 253.193 262.61 252.855 262.401C252.611 262.25 251.268 265.187 249.974 268.704C249.562 269.824 248.585 271.508 247.803 272.448C247.02 273.387 245.74 275.445 244.958 277.022L243.535 279.889L243.351 285.222C243.092 292.765 243.063 294.76 243.161 298.399C243.249 301.645 242.74 304.141 240.764 310.164C240.378 311.341 239.774 313.266 239.421 314.442C239.069 315.619 238.648 316.734 238.486 316.92C238.325 317.107 238.192 317.54 238.192 317.883C238.192 318.226 237.962 318.636 237.681 318.793C236.936 319.209 235.516 321.263 234.281 323.712L233.203 325.851L234.156 326.564C235.638 327.673 240.082 328.635 243.908 328.675C245.774 328.695 247.509 328.843 247.762 329.004C248.467 329.453 260.825 329.592 264.33 329.19C267.311 328.849 267.494 328.87 269.15 329.75C270.096 330.253 271.054 330.664 271.278 330.664C271.815 330.664 274.27 333.386 274.27 333.981C274.27 335.456 272.813 335.624 270.984 334.359C268.606 332.714 260.109 336.614 261.987 338.489C262.084 338.586 262.279 338.479 262.419 338.252C263.614 336.323 268.038 337.123 270.172 339.655C272.05 341.882 270.533 344.353 268.568 342.266C267.612 341.25 266.572 341.127 265.539 341.906C264.648 342.579 263.236 342.576 262.487 341.899C261.169 340.709 259.879 340.871 258.841 342.357C257.609 344.122 254.456 345.811 251.316 346.388C249.372 346.746 248.908 346.958 248.908 347.49C248.908 349.36 245.397 348.933 244.063 346.9C243.379 345.858 242.999 345.781 242.249 346.529C241.508 347.269 240.101 347.198 238.728 346.351C237.443 345.559 234.588 344.881 232.097 344.777C231.145 344.737 229.938 344.382 229.197 343.925C228.332 343.392 227.358 343.142 226.136 343.142C225.15 343.142 223.883 342.903 223.32 342.61C222.757 342.317 222.021 342.076 221.683 342.075C220.83 342.072 218.289 340.708 218.069 340.134C217.969 339.874 217.352 339.583 216.699 339.486C216.045 339.389 215.008 339.102 214.393 338.847C213.424 338.446 213.094 338.472 211.893 339.047C210.798 339.571 209.612 339.716 206.208 339.744C202.513 339.774 201.759 339.881 200.85 340.5C199.913 341.14 198.954 341.436 195.239 342.232C193.233 342.662 194.668 343.599 198.007 344.04C198.99 344.169 200.671 344.502 201.744 344.778C202.816 345.055 204.786 345.282 206.12 345.282C207.453 345.282 208.545 345.412 208.545 345.571C208.545 345.73 210.092 346.492 211.983 347.265C214.843 348.433 215.498 348.848 215.88 349.735C216.403 350.949 216.214 351.569 215.5 350.978C214.905 350.484 213.115 350.657 212.928 351.225C212.842 351.487 213.055 351.574 213.502 351.457C214.107 351.299 214.229 351.473 214.326 352.63C214.424 353.817 214.727 354.221 216.721 355.824C219.072 357.714 220.031 358.983 219.72 359.792C219.515 360.324 217.832 360.431 217.832 359.912C217.832 359.148 216.135 358.763 212.211 358.638L208.084 358.506L206.658 359.725C205.088 361.065 201.829 362.293 198.93 362.636C197.234 362.836 197.081 362.927 197.292 363.606C198.591 367.786 197.637 369.164 194.971 366.957H194.971ZM196.4 364.381C196.4 363.724 195.425 362.751 194.767 362.751C194.057 362.751 194.129 363.104 195.034 364.065C195.921 365.008 196.4 365.119 196.4 364.381ZM204.526 359.126C205.64 358.789 206.136 358.116 205.272 358.116C204.351 358.116 201.088 359.326 201.26 359.604C201.447 359.906 202.429 359.763 204.526 359.126ZM200.686 358.473C200.897 358.081 201.295 357.76 201.571 357.76C201.847 357.76 202.183 357.582 202.318 357.364C202.491 357.085 202.131 357.042 201.089 357.217C199.286 357.522 199.209 357.272 200.865 356.488C202.128 355.89 202.521 355.264 201.632 355.264C200.59 355.264 198.719 356.888 198.834 357.693C198.913 358.242 198.697 358.579 198.12 358.81C197.41 359.094 197.506 359.144 198.799 359.163C199.953 359.181 200.393 359.02 200.686 358.473V358.473ZM196.916 356.341C198.614 355.762 199.522 354.908 198.438 354.908C198.151 354.908 197.722 354.674 197.484 354.388C197.114 353.942 196.937 353.993 196.239 354.745C195.791 355.226 195.248 355.621 195.032 355.621C194.663 355.621 193.9 356.712 193.9 357.24C193.9 357.372 194.181 357.359 194.525 357.212C194.869 357.064 195.945 356.672 196.916 356.341V356.341ZM206.809 357.047C207.174 357.047 207.473 356.886 207.473 356.69C207.473 356.494 207.161 356.334 206.78 356.334C206.399 356.334 205.987 356.173 205.866 355.977C205.507 355.398 204.862 355.566 203.723 356.538L202.651 357.452L204.398 357.249C205.358 357.138 206.443 357.047 206.809 357.047V357.047ZM213.941 356.375C214.665 355.789 214.709 355.626 214.279 355.109C213.667 354.373 211.8 354.496 211.292 355.305C210.331 356.838 212.356 357.656 213.941 356.375ZM186.405 355.078C186.653 354.779 187.128 354.621 187.459 354.726C188.028 354.906 189.97 353.59 189.97 353.025C189.97 352.884 189.569 352.769 189.077 352.769C188.586 352.769 188.179 352.568 188.173 352.323C188.166 352.057 187.965 352.136 187.673 352.52C187.405 352.873 186.597 353.325 185.879 353.523C184.462 353.913 183.853 354.791 184.65 355.295C185.378 355.755 185.895 355.691 186.405 355.078V355.078ZM211.045 354.359C211.045 353.707 209.638 353.316 209.134 353.827C208.824 354.141 208.885 354.362 209.383 354.729C210.127 355.277 211.045 355.073 211.045 354.359V354.359ZM201.937 353.482C202.328 352.726 202.753 352.412 203.384 352.412C204.09 352.412 204.321 352.636 204.491 353.482C204.724 354.644 205.442 354.85 206.491 354.055C207.297 353.444 207.287 352.871 206.465 352.61C206.106 352.497 205.497 352.11 205.11 351.75C203.748 350.484 201.396 351.194 200.852 353.036C200.301 354.903 201.043 355.207 201.937 353.482V353.482ZM200.033 352.535C200.393 352.211 200.686 351.729 200.686 351.465C200.686 350.778 199.6 350.874 199.041 351.61C198.012 352.962 198.775 353.672 200.033 352.535ZM197.245 352.03C198.398 351.124 198.459 350.626 197.382 350.903C196.653 351.09 196.626 351.052 197.091 350.486C197.625 349.837 197.19 349.223 196.19 349.209C195.473 349.199 194.845 351.081 195.423 351.506C195.7 351.71 195.859 352.078 195.777 352.323C195.552 352.988 196.185 352.862 197.245 352.03V352.03ZM212.809 349.639C213.212 348.235 213.049 348.204 211.936 349.471C211.434 350.042 211.153 350.712 211.263 351.075C211.51 351.898 211.191 351.863 210.227 350.963C209.733 350.503 209.125 350.286 208.602 350.385C208.142 350.472 207.292 350.307 206.713 350.018C205.638 349.483 204.616 349.601 204.616 350.262C204.616 350.464 204.857 350.629 205.151 350.629C205.446 350.629 205.687 350.77 205.687 350.941C205.687 351.27 207.757 351.859 208.366 351.703C208.563 351.653 209.03 351.526 209.404 351.421C209.858 351.294 210.001 351.367 209.832 351.639C209.668 351.904 209.774 351.973 210.134 351.835C210.464 351.709 210.688 351.815 210.688 352.098C210.688 352.916 212.456 350.865 212.809 349.639V349.639ZM191.517 350.273C191.649 350.273 191.756 350.514 191.756 350.808C191.756 351.669 193.773 351.509 194.003 350.63C194.227 349.776 194.134 349.71 192.258 349.401C190.964 349.187 190.73 349.26 190.223 350.032C189.543 351.067 189.841 351.569 190.684 350.808C191.01 350.514 191.385 350.273 191.517 350.273V350.273ZM189.582 349.063C189.964 348.603 189.86 348.538 188.838 348.606C186.966 348.731 185.972 349.686 187.381 350.006C188.116 350.173 188.959 349.812 189.582 349.063ZM186.881 348.698C187.861 347.931 187.263 347.24 186.213 347.927C185.704 348.26 185.333 348.329 185.257 348.104C185.096 347.619 184.007 348.049 183.758 348.696C183.63 349.029 183.805 349.203 184.266 349.203C184.653 349.203 184.97 349.369 184.97 349.572C184.97 349.968 185.665 349.65 186.881 348.698V348.698ZM203.184 347.644C203.182 346.183 203.169 346.169 201.278 345.549C198.111 344.511 195.653 345.035 197.067 346.446C197.29 346.669 197.472 347.139 197.472 347.492C197.472 348.42 198.221 348.28 199.093 347.188C200.426 345.521 203.011 347.358 202.235 349.421C202.011 350.016 202.052 350.038 202.584 349.605C202.974 349.289 203.186 348.597 203.184 347.644V347.644ZM211.144 347.783C210.162 346.979 208.902 346.74 208.902 347.357C208.902 348.418 209.584 348.846 210.563 348.401C211.035 348.186 211.297 347.908 211.144 347.783V347.783ZM207.753 347.143L208.673 346.542L207.498 346.205C206.093 345.803 205.205 346.238 205.031 347.414C204.891 348.358 206.076 348.24 207.753 347.143V347.143ZM242.817 344.723C244.441 343.797 247.122 343.75 247.122 344.649C247.122 345.369 251.491 344.72 253.506 343.701C254.553 343.171 255.647 342.828 255.936 342.939C256.548 343.173 257.833 342.561 258.437 341.747C258.791 341.27 258.658 341.112 257.58 340.736C256.222 340.263 255.338 340.596 255.338 341.582C255.338 341.852 255.174 342.073 254.974 342.073C254.758 342.073 254.707 341.687 254.848 341.127C255.075 340.223 255.035 340.19 253.962 340.405C253.344 340.528 252.838 340.48 252.838 340.298C252.838 339.888 251.012 340.095 250.036 340.617C248.879 341.235 248.516 341.091 248.762 340.112C248.9 339.563 248.834 339.221 248.59 339.221C248.372 339.221 248.194 339.461 248.194 339.755C248.194 340.05 248.127 340.29 248.045 340.29C247.962 340.29 247.654 340.383 247.359 340.496C246.996 340.635 246.784 340.445 246.704 339.908C246.522 338.683 245.525 338.227 244.686 338.985C243.765 339.816 241.592 340.906 240.282 341.193C238.449 341.595 239.337 342.251 241.714 342.251C244.333 342.251 244.609 342.951 242.3 343.735C239.737 344.606 239.854 344.524 240.339 345.108C240.911 345.795 240.948 345.79 242.817 344.723V344.723ZM248.577 343.732C248.813 343.473 254.026 342.441 254.211 342.617C254.399 342.796 251.782 343.488 249.98 343.735C249.096 343.857 248.465 343.855 248.577 343.731V343.732ZM238.579 342.964C238.583 342.768 238.096 342.508 237.496 342.385C236.897 342.263 236.406 342.21 236.406 342.267C236.406 343.333 238.558 344.023 238.579 342.964V342.964ZM234.442 342.24C235.365 341.485 235.415 341.364 234.799 341.37C233.444 341.383 231.304 342.022 230.743 342.581C229.702 343.62 233.143 343.303 234.442 342.24ZM228.138 341.681C229.305 341.275 229.662 340.647 228.727 340.647C228.432 340.647 228.191 340.815 228.191 341.019C228.191 341.252 227.722 341.304 226.943 341.159C225.396 340.869 224.183 341.223 224.986 341.73C225.689 342.173 226.771 342.157 228.138 341.681ZM191.399 340.443C191.399 339.5 189.622 337.971 188.989 338.37C188.018 338.981 188.047 339.577 189.048 339.577C189.555 339.577 189.97 339.733 189.97 339.923C189.97 340.113 190.212 340.176 190.506 340.063C191.164 339.811 191.222 340.659 190.596 341.36C190.216 341.786 190.242 341.79 190.774 341.388C191.118 341.128 191.399 340.703 191.399 340.443V340.443ZM241.282 340.104C243.654 339.056 243.465 338.485 240.871 338.864C239.889 339.008 239.281 339.147 239.521 339.173C240.232 339.251 239.606 340.29 238.848 340.29C238.464 340.29 238.25 340.451 238.371 340.647C238.691 341.164 239.018 341.103 241.282 340.104ZM195.718 339.717C195.945 339.444 196.352 339.221 196.622 339.221C196.893 339.221 197.114 339.06 197.114 338.864C197.114 338.087 194.474 339.212 194.116 340.142C193.898 340.709 195.174 340.37 195.718 339.717ZM265.906 339.758C266.691 338.563 266.326 337.716 265.088 337.86C264.114 337.973 263.469 339.174 263.83 340.201C264.095 340.952 265.29 340.697 265.906 339.758ZM236.585 339.934C236.706 339.738 237.078 339.575 237.41 339.572C238.449 339.562 239.142 338.956 238.661 338.477C238.342 338.158 238.015 338.239 237.277 338.818C236.745 339.236 236.02 339.577 235.665 339.577C235.31 339.577 234.92 339.738 234.799 339.934C234.674 340.135 234.967 340.29 235.471 340.29C235.962 340.29 236.464 340.13 236.585 339.934ZM171.392 339.488C171.382 338.38 170.919 336.369 170.674 336.369C170.525 336.369 170.327 336.97 170.235 337.705C170.073 338.995 170.43 339.934 171.083 339.934C171.255 339.934 171.394 339.733 171.392 339.488V339.488ZM211.89 338.482C212.687 337.856 213.191 336.725 212.673 336.725C212.305 336.725 209.974 338.244 209.974 338.483C209.974 339.393 210.73 339.392 211.89 338.482V338.482ZM258.116 337.948C258.986 337.104 259.481 336.831 259.584 337.139C259.843 337.915 260.724 338.626 261.01 338.289C262.618 336.391 264.268 334.265 264.268 334.091C264.268 333.531 262.469 333.943 262.127 334.582C261.918 334.972 261.26 335.543 260.666 335.849L259.585 336.407L259.822 335.145L260.059 333.883L258.922 334.279C258.088 334.569 257.678 334.569 257.388 334.279C257.097 333.988 256.804 334.048 256.291 334.502C255.777 334.956 255.549 335.002 255.435 334.675C255.349 334.43 255.118 334.229 254.921 334.229C254.725 334.229 254.636 334.43 254.724 334.675C254.812 334.92 254.729 335.422 254.538 335.79C254.129 336.583 254.806 337.175 255.777 336.873C256.117 336.768 256.68 336.847 257.028 337.049C257.462 337.301 257.504 337.42 257.163 337.427C256.89 337.433 256.453 337.719 256.192 338.062C254.941 339.707 256.389 339.621 258.116 337.948V337.948ZM209.633 337.852C210.123 337.295 210.706 336.774 210.93 336.693C211.616 336.446 211.679 334.081 211.002 333.95C210.655 333.883 210.315 334.167 210.153 334.658L209.883 335.477L209.725 334.675C209.638 334.234 209.4 333.873 209.196 333.873C208.992 333.873 208.918 333.632 209.031 333.338C209.399 332.381 208.656 332.772 207.337 334.229C205.622 336.124 204.702 336.231 205.907 334.395C206.406 333.635 206.412 333.516 205.951 333.516C205.372 333.516 204.684 334.221 204.086 335.426C203.874 335.853 203.295 336.238 202.776 336.299C201.842 336.408 200.033 337.974 200.408 338.349C200.571 338.511 202.102 337.947 203.633 337.16C203.781 337.084 203.901 337.276 203.901 337.587C203.901 338.273 203.826 338.272 205.687 337.616C207.683 336.914 207.761 336.929 207.561 337.973C207.32 339.231 208.48 339.163 209.633 337.852V337.852ZM249.653 338.009C249.325 337.615 249.437 337.355 250.193 336.762C251.176 335.99 251.967 335.756 251.603 336.344C251.319 336.802 251.882 337.094 252.415 336.766C252.972 336.422 253.625 334.229 253.17 334.229C252.777 334.229 252.733 332.444 253.111 331.872C253.712 330.965 256.728 330.906 256.511 331.805L256.312 332.625L257.163 331.744L258.014 330.863L258.194 331.83L258.374 332.797L258.964 331.764L259.553 330.73L258.249 330.451C257.532 330.298 256.544 330.195 256.052 330.223C255.561 330.251 254.062 330.295 252.722 330.322C250.501 330.366 249.774 331.734 251.971 331.734C252.32 331.734 252.339 332.038 252.056 333.071C251.511 335.06 251.363 335.147 250.77 333.829C250.338 332.868 250.196 332.759 250.07 333.29C249.983 333.655 249.365 334.434 248.696 335.02C247.202 336.329 247.059 337.264 248.403 336.928C249.022 336.772 249.247 336.823 249.086 337.083C248.867 337.437 249.47 338.508 249.889 338.508C249.987 338.508 249.881 338.283 249.653 338.009V338.009ZM217.909 336.529C218.287 336.153 217.291 334.591 216.671 334.589C215.9 334.585 215.884 334.263 216.602 333.239C217.134 332.482 218.826 332.064 218.368 332.803C218.246 332.999 218.398 333.16 218.704 333.16C219.515 333.16 219.387 334.113 218.546 334.333C217.736 334.544 217.595 335.23 218.306 335.503C219.264 335.87 220.69 335.007 220.69 334.06C220.69 333.539 220.894 333.16 221.176 333.16C221.443 333.16 222.254 332.759 222.977 332.269C223.701 331.778 224.574 331.377 224.916 331.377C225.563 331.377 229.966 327.666 231.224 326.061C231.619 325.558 232.148 324.903 232.401 324.607C233.958 322.782 234.62 321.741 234.62 321.119C234.62 319.794 235.667 317.829 236.373 317.829C237.159 317.829 240.161 309.079 239.879 307.608C239.792 307.151 239.836 306.777 239.977 306.777C240.118 306.777 240.243 306.336 240.255 305.797C240.267 305.258 240.571 303.444 240.931 301.767C241.57 298.79 241.699 291.8 241.115 291.806C240.981 291.807 240.517 293.532 240.084 295.638C239.377 299.078 238.502 303.137 238.018 305.223C237.921 305.642 237.619 306.071 237.346 306.175C236.946 306.328 236.913 306.114 237.172 305.056C238.558 299.392 240.693 288.51 240.693 287.108C240.693 285.838 240.888 285.191 241.437 284.643C241.846 284.235 242.078 283.797 241.951 283.671C241.825 283.545 241.209 284.027 240.582 284.743C239.955 285.458 239.104 286.14 238.69 286.257C238.095 286.426 237.807 287.027 237.309 289.137C236.963 290.604 236.538 291.803 236.365 291.803C235.917 291.803 235.97 291.366 236.603 289.855C237.016 288.868 237.055 288.41 236.758 288.053C236.343 287.554 237.412 286.099 238.192 286.099C238.389 286.099 238.55 285.77 238.55 285.369C238.55 284.967 238.925 284.285 239.385 283.854C239.844 283.422 240.51 282.62 240.865 282.072L241.51 281.076L240.655 281.467C239.951 281.789 237.463 285.11 235.866 287.859C235.052 289.26 233.21 291.407 230.423 294.204C228.803 295.83 227.476 297.305 227.476 297.481C227.476 298.032 225.312 299.647 224.573 299.647C223.648 299.647 222.7 301.856 222.98 303.359C223.18 304.43 221.716 312.292 221.226 312.776C221.092 312.908 221.096 312.415 221.233 311.679C221.517 310.164 220.851 309.756 220.483 311.219C220.22 312.263 219.264 313.211 219.255 312.436C219.251 312.052 219.176 312.062 218.904 312.482C218.397 313.264 218.426 314.63 218.934 313.908C219.307 313.377 219.108 316.802 218.68 318.275C218.48 318.963 217.832 319.134 217.832 318.499C217.832 318.222 217.666 318.236 217.296 318.542C216.705 319.032 216.537 321.218 217.118 320.86C217.653 320.53 217.562 320.836 216.582 322.677C216.091 323.599 215.689 324.516 215.689 324.715C215.689 325.731 214.425 327.812 213.808 327.812C213.358 327.812 213.178 328.018 213.262 328.436C213.331 328.779 213.264 329.22 213.115 329.416C212.965 329.612 212.407 330.314 211.875 330.975C210.942 332.135 210.932 332.195 211.581 332.669C212.687 333.476 213.778 333.25 214.797 332.001C215.674 330.926 215.726 330.907 215.512 331.734C215.385 332.224 214.732 333.122 214.061 333.729C212.772 334.894 212.787 335.299 214.12 335.299C214.567 335.299 215.039 335.471 215.169 335.68C215.588 336.358 217.491 336.947 217.909 336.529H217.909ZM225.284 329.276C225.612 329.069 225.639 328.924 225.368 328.834C225.094 328.743 225.145 328.443 225.527 327.899C226.224 326.905 226.646 326.884 226.946 327.829C227.236 328.74 226.56 329.596 225.557 329.589C224.992 329.585 224.922 329.505 225.284 329.276V329.276ZM235.335 316.597C235.335 316.156 236.817 313.486 236.975 313.643C237.263 313.93 236.242 316.523 235.781 316.673C235.536 316.754 235.335 316.719 235.335 316.597ZM222.226 335.427C222.854 335.105 223.752 334.543 224.221 334.179C225.137 333.466 225.872 333.292 225.512 333.873C225.181 334.408 227.204 334.307 228.022 333.748C228.41 333.483 229.169 333.159 229.709 333.028C230.34 332.875 230.691 332.554 230.691 332.132C230.691 331.105 232.006 329.687 233.376 329.236C234.903 328.733 234.954 328.098 233.547 327.098L232.474 326.335L230.064 328.427C228.739 329.577 226.984 330.966 226.164 331.513C225.343 332.06 224.585 332.734 224.478 333.012C224.371 333.289 223.99 333.516 223.63 333.516C223.27 333.516 222.796 333.695 222.577 333.914C222.358 334.133 221.816 334.494 221.373 334.716C220.491 335.159 220.033 336.012 220.678 336.012C220.9 336.012 221.597 335.749 222.226 335.427V335.427ZM226.773 333.249C226.797 332.682 229.977 331.023 229.977 331.577C229.977 331.868 229.575 332.288 229.084 332.512C228.593 332.735 228.191 333.052 228.191 333.217C228.191 333.382 227.869 333.516 227.476 333.516C227.084 333.516 226.767 333.396 226.773 333.249V333.249ZM240.195 333.971C239.688 333.464 238.192 334.401 238.192 335.226V336.145L239.26 335.124C239.848 334.563 240.268 334.044 240.195 333.971V333.971ZM243.55 334.494C243.55 334.322 243.205 334.291 242.782 334.425C242.168 334.619 242.059 334.551 242.238 334.084C242.425 333.597 242.345 333.563 241.756 333.877C240.861 334.356 240.871 334.502 241.854 335.313C242.658 335.977 243.55 335.546 243.55 334.494ZM268.206 332.258C268.898 331.426 267.29 329.821 266.057 330.114C265.564 330.231 264.377 330.372 263.419 330.429C262.212 330.5 261.526 330.737 261.186 331.201C260.43 332.233 260.603 332.524 261.589 331.879C262.427 331.331 262.482 331.335 262.482 331.933C262.482 332.5 262.577 332.482 263.337 331.769C263.885 331.256 264.278 331.105 264.43 331.35C264.561 331.561 264.962 331.734 265.322 331.734C265.683 331.734 266.07 331.974 266.183 332.269C266.45 332.962 267.626 332.956 268.206 332.258V332.258ZM247.39 331.541C247.39 330.412 247.684 330.094 248.276 330.584C248.603 330.855 248.933 330.814 249.445 330.435C250.107 329.947 250.042 329.917 248.554 330.019C246.916 330.132 246.427 330.697 246.902 331.933C247.2 332.706 247.39 332.553 247.39 331.541V331.541ZM245.578 330.612C246.293 330.02 246.147 329.595 245.229 329.595C244.356 329.595 242.486 330.344 242.482 330.696C242.477 331.08 245.098 331.009 245.578 330.612V330.612ZM219.959 308.043C219.985 306.378 219.346 307.44 219.112 309.451C218.908 311.21 218.912 311.219 219.424 310.164C219.709 309.576 219.95 308.621 219.959 308.043ZM221.296 304.511C221.44 303.121 221.378 302.499 221.097 302.499C220.857 302.499 220.688 303.121 220.685 304.014C220.682 304.848 220.58 305.93 220.458 306.421C220.288 307.101 220.336 307.218 220.662 306.917C220.896 306.7 221.182 305.617 221.296 304.511ZM225.026 294.274C225.251 293.523 225.895 292.469 226.456 291.933C227.017 291.396 227.476 290.76 227.476 290.518C227.476 290.277 227.677 289.999 227.923 289.9C228.275 289.759 228.273 289.714 227.915 289.692C227.326 289.656 224.338 292.403 224.128 293.173C223.224 296.492 224.054 297.511 225.026 294.274H225.026ZM231.763 290.386C231.763 290.195 232.285 289.759 232.924 289.416C233.981 288.849 234.014 288.782 233.299 288.672C232.867 288.605 232.204 288.715 231.826 288.917C230.968 289.376 230.545 290.734 231.26 290.734C231.537 290.734 231.763 290.577 231.763 290.386V290.386ZM159.088 264.32C159.79 262.93 160.314 261.539 160.254 261.228C160.14 260.64 158.537 263.649 157.877 265.688C157.28 267.534 157.714 267.044 159.088 264.32ZM155.663 256.754C155.705 255.094 154.542 257.042 154.108 259.36L153.874 260.608L154.761 259.003C155.248 258.121 155.654 257.109 155.663 256.754V256.754ZM150.535 257.666C151.074 256.539 151.578 255.496 151.654 255.349C151.73 255.202 151.615 255.082 151.398 255.082C150.993 255.082 149.259 258.468 149.253 259.271C149.247 260.103 149.552 259.72 150.535 257.666ZM143.95 253.115C144.101 252.55 144.148 252.009 144.053 251.915C143.76 251.623 143.241 252.355 142.974 253.435C142.625 254.843 143.57 254.534 143.95 253.115V253.115ZM156.878 252.157C157.692 251.528 158.794 250.526 159.326 249.928C159.874 249.314 160.3 249.055 160.308 249.332C160.32 249.713 160.434 249.729 160.829 249.402C161.107 249.171 161.951 249.031 162.704 249.091C163.904 249.185 164.088 249.096 164.191 248.369C164.267 247.839 164.485 247.608 164.799 247.728C165.369 247.946 167.099 246.042 167.132 245.161C167.148 244.736 167.248 244.796 167.478 245.366C167.918 246.459 168.25 246.385 169.889 244.832C171.48 243.323 172.105 241.2 171.183 240.436C170.77 240.093 170.704 240.107 170.857 240.506C171.237 241.494 169.519 244.198 168.432 244.322L167.432 244.437L167.639 242.223C167.782 240.701 167.667 239.395 167.272 238.038C166.729 236.175 166.733 236.047 167.338 235.709C168.459 235.083 169.611 233.744 169.597 233.082C169.587 232.553 169.507 232.583 169.132 233.256C168.614 234.188 168.181 233.954 168.181 232.739C168.181 232.211 167.971 231.908 167.604 231.908C167.202 231.908 167.083 232.125 167.213 232.62C167.316 233.012 167.254 233.423 167.076 233.533C166.898 233.642 166.752 234.044 166.752 234.424C166.752 235.195 166.189 235.364 165.934 234.671C165.403 233.225 165.034 235.105 165.53 236.728C166.417 239.633 166.552 242.804 165.863 244.604C165.259 246.183 165.221 246.205 162.929 246.317C161.909 246.367 161.551 243.774 162.472 243.018C163.104 242.5 163.205 241.948 163.277 238.637L163.359 234.849L164.39 234.461C165.336 234.104 165.403 233.963 165.207 232.753C164.959 231.23 164.252 230.259 164.252 231.442C164.252 231.852 164.011 232.28 163.716 232.393C163.422 232.506 163.18 232.924 163.18 233.322C163.18 234.17 162.897 234.215 161.971 233.515C161.448 233.12 161.343 232.721 161.502 231.743C161.772 230.083 160.842 229.988 160.49 231.64C160.354 232.277 160.006 233.068 159.715 233.397C159.389 233.766 159.274 234.313 159.415 234.823C159.609 235.529 159.585 235.559 159.251 235.027C158.795 234.302 157.956 234.204 157.716 234.849C157.625 235.094 157.358 234.813 157.123 234.225C156.814 233.451 156.803 232.984 157.081 232.536C158.137 230.835 157.264 229.012 156.182 230.66C155.86 231.15 155.392 231.551 155.141 231.551C154.623 231.551 154.15 232.526 154.439 232.994C154.545 233.164 154.852 233.218 155.123 233.114C155.423 232.999 155.714 233.249 155.868 233.754C156.219 234.903 157.087 235.815 157.631 235.607C158.343 235.334 158.532 236.8 157.937 237.99C157.641 238.581 157.497 239.32 157.617 239.632C157.737 239.943 157.613 240.378 157.342 240.599C157.07 240.819 156.472 241.962 156.012 243.138C155.552 244.315 155.055 245.446 154.907 245.652C154.759 245.859 154.73 246.38 154.843 246.811C155.032 247.532 154.92 247.595 153.455 247.595C151.465 247.595 150.39 246.659 151.024 245.478C151.738 244.146 149.769 243.663 148.299 244.81C147.681 245.292 147.359 244.521 147.613 243.17C147.747 242.458 147.626 241.525 147.305 240.786L146.777 239.573L146.763 240.719C146.754 241.491 146.516 241.99 146.035 242.247C145.478 242.544 145.319 242.999 145.312 244.309C145.307 245.234 145.159 246.611 144.983 247.371C144.758 248.335 144.775 248.638 145.037 248.377C145.299 248.115 145.62 248.129 146.102 248.422C146.804 248.849 147.225 248.538 148.176 246.884C148.682 246.004 148.875 246.617 148.93 249.289C148.987 252.084 149.638 252.977 150.4 251.307C150.708 250.633 151.004 250.45 151.55 250.596C151.955 250.705 152.487 250.796 152.732 250.798C152.978 250.801 153.179 250.993 153.179 251.226C153.179 253.078 155.068 253.553 156.878 252.157H156.878ZM156.286 248.794C155.901 248.41 155.991 246.525 156.394 246.525C156.59 246.525 156.751 245.963 156.751 245.277C156.751 244.591 156.881 244.029 157.04 244.029C158.088 244.029 158.716 242.899 158.955 240.586C159.324 237.011 159.629 235.829 160.185 235.829C160.457 235.829 160.68 235.669 160.68 235.473C160.68 234.569 161.409 235.259 161.788 236.521C162.143 237.707 162.094 238.417 161.468 241.067C160.855 243.664 160.809 244.272 161.204 244.578C161.492 244.801 161.608 245.333 161.495 245.92C161.289 246.998 160.68 247.598 160.68 246.724C160.68 245.782 160.127 246.107 159.502 247.416C159.124 248.207 158.653 248.664 158.215 248.664C157.835 248.664 157.301 248.749 157.029 248.853C156.757 248.958 156.423 248.931 156.286 248.794V248.794ZM257.984 242.73C258.621 240.277 258.762 238.231 258.198 239.625C258.028 240.047 257.717 240.497 257.506 240.627C257.296 240.757 257.124 241.344 257.124 241.932C257.124 242.658 256.99 242.919 256.706 242.744C256.421 242.568 256.364 242.684 256.528 243.109C256.659 243.451 256.772 244.239 256.778 244.861C256.792 246.377 257.246 245.575 257.984 242.73V242.73ZM171.865 239.172C171.734 238.83 171.872 238.465 172.203 238.28C172.609 238.054 172.692 237.705 172.507 237.011C172.168 235.746 171.396 235.503 171.396 236.661C171.396 237.151 171.225 237.609 171.017 237.679C170.542 237.837 171.204 239.751 171.733 239.751C171.928 239.751 171.988 239.491 171.865 239.172V239.172ZM151.568 233.024C151.767 232.094 151.716 231.859 151.341 231.982C151.052 232.077 150.82 232.775 150.765 233.718C150.662 235.471 151.131 235.066 151.568 233.024ZM176.913 229.234C177.118 227.813 177.08 227.539 176.725 227.884C176.48 228.122 176.223 229.245 176.155 230.38C176.009 232.794 176.507 232.041 176.913 229.234ZM148.143 230.125C149.293 227.707 151.292 227.38 150.869 229.679C150.713 230.526 150.747 230.886 150.962 230.66C151.388 230.211 151.831 226.916 151.466 226.916C151.317 226.916 150.83 227.171 150.384 227.483C149.938 227.794 149.366 227.97 149.113 227.873C148.737 227.729 146.749 230.98 146.749 231.737C146.749 232.409 147.432 231.619 148.143 230.125V230.125ZM165.176 227.977L164.637 226.738L164.623 228.277C164.616 229.123 164.81 230.166 165.056 230.594C165.762 231.826 165.866 229.565 165.176 227.977H165.176ZM153.131 226.382C153.099 224.83 153.059 224.738 152.822 225.668C152.399 227.325 152.399 229.351 152.822 228.699C153.012 228.405 153.151 227.362 153.131 226.382ZM159.858 227.184C160.044 226.939 160.099 225.695 159.981 224.421L159.767 222.103L159.305 223.886C158.451 227.176 158.413 227.629 158.988 227.629C159.281 227.629 159.673 227.429 159.858 227.184ZM166.038 225.282C166.038 223.564 165.918 222.974 165.592 223.082C164.957 223.291 164.83 224.698 165.304 226.277C165.877 228.188 166.038 227.97 166.038 225.282ZM173.085 225.591C172.981 224.666 172.719 223.85 172.503 223.779C172.287 223.707 172.11 223.171 172.11 222.587C172.11 221.971 171.961 221.619 171.753 221.747C171.22 222.076 171.322 223.203 171.932 223.708C172.259 223.978 172.468 224.76 172.468 225.712C172.468 226.635 172.633 227.273 172.871 227.273C173.141 227.273 173.212 226.715 173.085 225.591V225.591ZM157.266 225.466C158.222 224.435 158.425 224.049 157.968 224.129C157.464 224.218 157.252 223.895 156.988 222.638L156.651 221.034L156.221 222.995C155.985 224.073 155.668 225.397 155.518 225.936C155.133 227.316 155.689 227.167 157.266 225.466ZM184.493 224.925C184.654 223.871 184.603 223.624 184.289 223.917C184.06 224.13 183.777 224.932 183.66 225.699C183.5 226.753 183.55 227 183.865 226.707C184.094 226.494 184.377 225.692 184.493 224.925ZM164.042 218.841C164.126 216.905 164.623 213.409 165.15 211.051C166.33 205.77 166.285 206.095 165.876 205.881C165.434 205.65 164.255 208.936 164.254 210.406C164.253 211.032 164.103 211.636 163.92 211.749C163.314 212.122 162.764 220.69 163.175 223.351C163.355 224.518 163.925 221.554 164.042 218.841ZM154.572 220.181C154.536 215.689 153.843 215.299 153.688 219.685C153.59 222.443 153.637 222.736 154.08 222.142C154.356 221.771 154.578 220.888 154.572 220.181ZM155.799 219.808C156.034 217.569 155.783 215.401 155.323 215.685C155.175 215.777 155.027 217.312 154.994 219.097C154.928 222.71 155.447 223.168 155.799 219.808ZM186.958 221.006C188.271 220.76 188.68 219.786 187.47 219.786C186.99 219.786 186.756 219.548 186.756 219.062C186.756 218.663 186.515 218.245 186.22 218.132C185.914 218.015 185.684 217.483 185.684 216.896C185.684 216.328 185.523 215.864 185.327 215.864C185.13 215.864 184.967 216.145 184.965 216.488C184.962 216.831 184.88 217.513 184.782 218.003C184.685 218.493 184.7 218.694 184.817 218.449C185.249 217.543 185.684 218.046 185.684 219.45C185.684 220.324 185.543 220.81 185.327 220.677C185.13 220.556 184.97 220.76 184.97 221.131C184.97 222.004 185.471 222.514 185.619 221.79C185.682 221.479 186.27 221.135 186.958 221.006H186.958ZM161.76 216.508C161.918 215.076 161.915 213.743 161.755 213.547C161.594 213.351 161.396 212.789 161.314 212.299L161.165 211.408L160.736 212.431C160.229 213.642 160.178 214.475 160.493 216.399C161.127 220.272 161.343 220.291 161.76 216.508H161.76ZM187.645 215.847C187.517 215.265 187.264 214.879 187.084 214.991C186.702 215.227 186.639 217.411 187.004 217.776C187.452 218.223 187.883 216.928 187.645 215.847V215.847ZM165.836 214.078C165.99 212.166 165.95 211.637 165.697 212.216C165.204 213.339 164.814 217.992 165.272 217.286C165.464 216.99 165.718 215.546 165.836 214.078ZM167.373 213.816C167.558 212.591 167.62 211.501 167.512 211.393C167.285 211.166 166.447 214.9 166.429 216.221C166.408 217.776 167.007 216.25 167.373 213.816ZM159.173 211.496C158.676 207.958 158.044 208.271 158.375 211.891C158.648 214.876 158.846 215.504 159.276 214.739C159.431 214.461 159.385 213.002 159.173 211.496ZM179.01 212.042L180.708 210.85L181.217 212.02L181.727 213.19L181.741 211.344C181.753 209.799 181.612 209.386 180.876 208.809C179.359 207.617 177.906 207.154 177.29 207.664C176.397 208.404 176.68 208.955 178.183 209.405C178.969 209.64 179.612 210.055 179.612 210.328C179.612 210.949 178.504 211.324 177.608 211.007C177.055 210.811 177.013 210.855 177.379 211.248C178.061 211.981 177.913 212.405 177.054 212.181C176.629 212.07 175.976 212.142 175.602 212.342C175.121 212.599 174.77 212.579 174.401 212.273C173.696 211.689 173.319 212.139 173.914 212.854C174.914 214.058 176.907 214.729 177.122 213.935C177.226 213.549 178.076 212.698 179.01 212.042H179.01ZM156.58 211.695C156.157 210.655 155.522 212.36 155.866 213.613L156.141 214.616L156.492 213.478C156.685 212.851 156.725 212.049 156.58 211.695ZM160.69 209.411C161.1 207.892 160.886 207.12 160.309 208.031C159.972 208.562 159.827 210.873 160.131 210.873C160.221 210.873 160.473 210.215 160.69 209.411V209.411ZM168.318 205.614C169.748 201.093 170.909 198.191 171.646 197.297C172.308 196.494 172.22 195.899 171.44 195.899C170.749 195.899 169.778 198.055 168.873 201.601C168.648 202.482 168.164 203.791 167.797 204.508C167.102 205.869 166.322 209.803 166.748 209.803C166.883 209.803 167.59 207.918 168.318 205.614V205.614ZM184.61 209.001C184.609 208.56 184.368 207.739 184.074 207.178C183.367 205.824 183.387 205.766 184.464 206.035C185.062 206.185 185.306 206.136 185.157 205.896C184.871 205.434 182.469 205.402 182.469 205.86C182.469 206.045 182.608 206.281 182.777 206.386C182.947 206.491 183.289 207.302 183.538 208.19C184.017 209.896 184.614 210.348 184.61 209.001V209.001ZM182.469 208.037C182.469 206.912 181.575 205.852 180.71 205.953C179.361 206.11 179.388 207.068 180.76 207.749C182.15 208.439 182.469 208.493 182.469 208.037ZM160.17 206.047C160.4 204.827 161.037 204.311 161.037 205.347C161.037 206.091 161.672 206.019 161.824 205.258C162.19 203.437 161.746 202.71 160.65 203.333C159.633 203.912 158.793 206.12 159.173 207.216C159.426 207.947 159.923 207.365 160.17 206.047V206.047ZM171.052 204.197C171.603 202.194 172.413 200.814 172.871 201.097C173.051 201.208 173.451 200.69 173.762 199.948C174.149 199.023 174.203 198.556 173.933 198.466C173.717 198.394 173.539 198.108 173.539 197.83C173.539 197.552 173.298 197.325 173.003 197.325C172.699 197.325 172.468 197.645 172.468 198.066C172.468 198.474 172.083 199.798 171.614 201.008C170.032 205.083 169.668 206.465 170.275 206.09C170.445 205.985 170.795 205.134 171.052 204.197ZM165.425 204.846C166.07 203.757 166.287 202.27 165.714 202.869C165.217 203.388 164.254 205.881 164.55 205.881C164.695 205.881 165.088 205.416 165.425 204.846V204.846ZM168.498 200.152C169.148 197.982 169.586 196.112 169.471 195.998C169.112 195.639 167.728 199.498 166.854 203.297C166.269 205.837 167.502 203.48 168.498 200.152ZM165.52 200.386C165.881 198.463 165.167 199.004 164.653 201.042C164.433 201.916 164.259 202.842 164.266 203.098C164.291 203.903 165.248 201.832 165.52 200.386ZM167.443 193.587C167.418 192.604 167.513 190.997 167.654 190.016C167.99 187.685 167.373 188.294 166.812 190.846C166.169 193.775 166.256 197.004 166.954 196.083C167.284 195.647 167.472 194.689 167.443 193.587ZM165.653 191.435C165.799 190.361 165.837 189.564 165.737 189.663C165.577 189.823 163.912 194.79 163.9 195.145C163.862 196.239 165.459 192.858 165.653 191.435V191.435ZM171.536 194.265C171.656 193.955 171.748 193.193 171.741 192.572L171.728 191.442L171.217 192.334C170.644 193.335 170.514 194.829 171.001 194.829C171.176 194.829 171.417 194.576 171.536 194.265H171.536ZM164.751 189.481C166.738 183.231 166.881 182.717 166.695 182.531C166.44 182.277 164.347 187.873 163.695 190.551C163.386 191.826 163.045 193.189 162.938 193.581C162.809 194.053 162.863 194.174 163.096 193.938C163.29 193.742 164.035 191.736 164.751 189.481ZM169.093 190.741C169.377 190.061 169.594 188.978 169.575 188.334L169.539 187.164L169.094 188.59C168.04 191.963 168.039 193.257 169.092 190.741H169.093ZM170.998 189.749C171.528 188.322 171.798 186.273 171.455 186.273C171.128 186.273 170.324 188.919 170.324 189.996C170.324 190.798 170.652 190.678 170.998 189.749ZM173.366 188.268C173.675 187.208 173.833 185.965 173.717 185.505C173.602 185.045 173.757 183.962 174.063 183.098C174.368 182.234 174.548 181.456 174.461 181.37C174.121 181.031 172.661 184.383 172.636 185.56C172.621 186.246 172.478 187.57 172.319 188.501C171.912 190.883 172.653 190.718 173.366 188.268V188.268ZM178.056 188.858C178.476 187.166 180.321 183.327 180.962 182.808C181.515 182.362 181.499 182.349 180.805 182.683C179.363 183.378 176.207 189.838 177.31 189.838C177.586 189.838 177.922 189.397 178.056 188.858ZM179.983 187.66C180.726 185.632 180.899 184.468 180.374 185.043C179.989 185.463 178.897 188.705 178.897 189.426C178.897 190.262 179.226 189.727 179.983 187.66V187.66ZM167.657 186.013C167.963 185.282 168.166 184.279 168.108 183.785C168.023 183.061 167.881 183.247 167.378 184.735C166.427 187.548 166.628 188.469 167.657 186.013ZM171.293 183.464C171.542 181.605 170.86 181.483 170.554 183.331C170.222 185.335 170.256 185.77 170.71 185.318C170.922 185.106 171.184 184.272 171.293 183.464V183.464ZM176.05 182.317C176.465 180.925 176.734 179.716 176.647 179.629C176.422 179.405 175.105 182.308 174.805 183.688C174.319 185.932 175.291 184.861 176.05 182.317V182.317ZM170.54 176.386C170.089 175.937 168.899 178.532 168.922 179.91L168.949 181.46L169.813 178.991C170.288 177.634 170.615 176.461 170.539 176.386H170.54ZM167.279 177.428C167.818 175.996 168.168 174.732 168.057 174.621C167.801 174.366 166.059 178.249 165.789 179.677C165.459 181.418 166.197 180.306 167.279 177.428V177.428ZM178.733 178.518C179.046 177.391 179.453 176.003 179.636 175.435C180.263 173.487 179.944 173.259 179.084 175.042C178.611 176.023 178.215 177.256 178.203 177.782C178.192 178.309 178.026 179.151 177.835 179.654C177.618 180.223 177.614 180.568 177.825 180.568C178.011 180.568 178.419 179.646 178.733 178.518H178.733ZM174.463 178.1C175.11 176.486 175.934 176.01 176.574 176.883C177.104 177.607 177.333 177.276 178.555 174.014C179.577 171.288 179.204 170.623 178.064 173.138C177.561 174.247 176.994 175.251 176.805 175.367C176.41 175.611 177.158 172.544 177.774 171.395C178.269 170.472 178.299 169.873 177.851 169.873C177.669 169.873 177.265 170.744 176.955 171.81C176.645 172.875 176.027 174.199 175.582 174.751C174.249 176.407 173.037 179.499 173.721 179.499C173.821 179.499 174.155 178.869 174.463 178.1V178.1ZM182.09 177.407C182.679 176.151 182.836 175.363 182.658 174.555C182.305 172.95 181.966 173.172 181.504 175.31C181.281 176.339 180.986 177.623 180.849 178.162C180.445 179.754 181.206 179.29 182.09 177.407V177.407ZM170.521 173.628C171.212 171.978 171.188 171.837 170.126 171.355C169.624 171.126 169.311 170.781 169.431 170.587C169.551 170.393 169.495 169.961 169.307 169.626C169.033 169.136 168.901 169.327 168.635 170.604C168.272 172.345 168.346 172.703 168.945 172.105C169.793 171.259 170.299 171.986 169.759 173.275C169.153 174.722 169.142 174.864 169.628 174.864C169.835 174.864 170.237 174.308 170.521 173.628V173.628ZM182.457 170.306C182.466 169.958 182.298 169.939 181.755 170.229C181.053 170.604 180.799 171.652 181.29 172.142C181.563 172.414 182.436 171.04 182.457 170.306H182.457ZM185.666 169.506C186.303 167.026 187.167 165.552 187.717 166.008C188.05 166.284 188.221 166.255 188.339 165.902C190.03 160.874 190.69 158.593 190.588 158.134C190.519 157.825 189.91 159.232 189.235 161.26C188.217 164.316 187.046 166.16 187.388 164.168C187.439 163.874 187.247 164.045 186.962 164.549C186.388 165.563 184.255 171.551 184.255 172.148C184.255 172.94 185.275 171.03 185.666 169.506ZM172.827 171.21C172.828 170.965 173.225 169.801 173.711 168.625C174.703 166.222 174.906 165.007 174.127 166.139C172.993 167.787 171.829 171.655 172.468 171.655C172.664 171.655 172.826 171.455 172.827 171.21V171.21ZM176.76 170.042C177.496 168.853 177.521 167.734 176.81 167.734C176.632 167.734 176.39 168.175 176.272 168.714C176.153 169.253 175.954 170.055 175.828 170.497C175.495 171.663 175.869 171.481 176.76 170.042V170.042ZM179.668 167.912C179.738 167.029 179.686 166.308 179.553 166.308C179.178 166.308 178.46 168.743 178.714 169.153C179.189 169.919 179.545 169.455 179.668 167.912V167.912ZM182.654 162.564C183.755 159.658 184.146 158.119 183.65 158.642C183.316 158.995 181.684 163.164 181.207 164.881C180.715 166.655 181.703 165.072 182.654 162.564V162.564ZM179.423 160.629C179.723 159.761 179.967 158.878 179.966 158.668C179.96 158.021 177.948 161.784 177.691 162.921L177.45 163.99L178.163 163.099C178.556 162.609 179.122 161.497 179.423 160.629V160.629ZM188.623 157.715C189.416 156.028 189.989 154.424 189.896 154.15C189.68 153.517 188.579 155.65 187.335 159.109C186.441 161.597 186.045 163.541 186.813 161.673C187.015 161.183 187.829 159.401 188.623 157.715V157.715ZM176.325 160.091C176.325 159.433 176.42 158.516 176.536 158.055C176.652 157.594 176.332 158.066 175.826 159.105C175.319 160.144 175.001 161.245 175.119 161.552C175.477 162.482 176.325 161.453 176.325 160.091V160.091ZM186.391 159.191C186.788 158.415 187.117 157.572 187.121 157.32C187.129 156.901 187.773 155.279 189.392 151.601C189.715 150.866 189.841 150.264 189.671 150.264C189.167 150.264 185.327 158.992 185.327 160.136C185.327 160.936 185.642 160.656 186.391 159.191ZM187.954 149.997C188.543 148.845 189.052 146.699 188.736 146.699C188.514 146.699 187.079 149.711 186.91 150.531C186.742 151.35 187.445 150.99 187.954 149.997V149.997ZM187.113 143.352C187.954 142.688 188.843 141.605 189.089 140.945C189.334 140.286 190.267 138.142 191.162 136.181C192.876 132.427 193.937 129.094 192.524 131.903C190.665 135.601 188.184 140.982 188.184 141.318C188.184 141.523 187.794 141.947 187.316 142.259C186.551 142.76 185.088 144.56 185.447 144.56C185.522 144.56 186.272 144.016 187.113 143.352ZM194.651 137.507C195.426 135.797 196.297 133.973 196.587 133.453C196.877 132.932 197.111 132.371 197.107 132.205C197.095 131.76 195.703 133.616 195.694 134.088C195.689 134.309 195.454 134.682 195.171 134.916C194.745 135.269 193.567 137.967 192.283 141.529C191.655 143.272 193.319 140.445 194.651 137.507V137.507ZM188.394 139.014C189.041 137.469 189.03 137.233 188.337 137.807C187.729 138.311 186.398 140.733 186.398 141.337C186.398 141.981 187.868 140.271 188.394 139.014ZM201.393 132.241C203.366 128.588 203.74 126.722 202.058 128.923C200.607 130.823 198.704 135.647 199.405 135.647C199.487 135.647 200.381 134.114 201.393 132.241V132.241ZM276.255 37.4135C275.874 37.1256 275.219 36.8901 274.799 36.8901C273.449 36.8901 271.055 33.3666 271.055 31.3782C271.055 30.8801 270.923 30.4727 270.762 30.4727C269.974 30.4727 266.52 31.6739 266.011 32.1252C265.429 32.6414 263.374 32.627 262.521 32.1008C261.995 31.7764 258.64 32.5395 258.32 33.0561C258.169 33.3 258.416 33.3469 259.035 33.1918C260.127 32.9183 260.227 33.1762 259.388 34.1011C258.601 34.9696 258.953 35.2699 259.829 34.4772C261.22 33.2189 265.481 32.232 264.804 33.3248C264.44 33.9121 265.631 33.7292 267.126 32.9683C269.168 31.9282 269.507 32.0476 270.509 34.1614C271.736 36.7503 271.704 37.287 270.34 37.0148C269.501 36.8474 269.269 36.9267 269.269 37.3803C269.269 37.8798 269.798 37.9581 273.109 37.9483C276.563 37.9381 276.879 37.8844 276.255 37.4135V37.4135ZM281.857 33.6814C282.646 32.2107 283.312 30.9804 283.336 30.9473C283.36 30.9142 283.821 30.7765 284.361 30.6413C285.607 30.3291 285.774 32.0061 284.628 33.3248C283.669 34.4292 283.693 35.464 284.678 35.464C285.68 35.464 286.389 34.4909 286.403 33.0969C286.417 31.7244 287.605 30.1111 288.185 30.6782C288.469 30.9569 288.469 31.5624 288.184 32.8877C287.969 33.8917 287.85 35.1629 287.921 35.7125L288.049 36.7118L288.651 35.464C288.983 34.7777 289.415 33.5709 289.612 32.7822C289.977 31.3225 292.13 29.7939 292.13 30.9948C292.13 31.2479 292.39 31.6704 292.708 31.9337C293.299 32.4237 294.981 30.9209 294.985 29.8983C294.99 28.8778 283.395 28.6279 281.86 29.6154C281.412 29.9039 281.056 29.9713 281.056 29.7678C281.056 29.5672 280.641 29.4031 280.134 29.4031C279.014 29.4031 279.137 30.2404 280.281 30.4084C281.183 30.5408 280.944 32.0852 279.426 35.9458C278.685 37.8287 280.577 36.067 281.857 33.6814V33.6814ZM251.399 35.1208C251.738 34.9072 252.01 34.9253 252.163 35.1714C252.32 35.4253 252.963 35.2734 254.074 34.7198C256.756 33.3829 256.535 33.1629 252.659 33.3099C250.48 33.3926 249.98 33.6328 249.98 34.5967C249.98 35.4988 250.498 35.69 251.399 35.1208ZM247.946 34.374C248.086 33.8384 247.904 33.5344 247.273 33.2472C245.632 32.5011 246.426 32.3062 251.677 32.1656C257.652 32.0056 263.857 31.2127 269.09 29.9407C279.893 27.3148 296.084 27.651 302.757 30.6397C306.072 32.1246 306.762 31.6 303.518 30.0609L300.796 28.7697L300.035 26.268C299.616 24.8921 299.274 23.6103 299.274 23.4197C299.274 23.229 299.045 22.8837 298.766 22.6524C298.211 22.1928 298.1 25.4982 298.652 26.0489C299.192 26.5883 298.891 27.2638 298.113 27.2585C296.943 27.2506 296.574 26.8979 296.063 25.3031C295.208 22.6359 293.175 18.7074 292.649 18.7074C291.945 18.7074 291.994 19.1661 292.906 21.1335C293.332 22.0542 293.686 23.324 293.691 23.9554C293.697 24.5867 293.91 25.1833 294.166 25.2811C294.421 25.3789 294.63 25.8651 294.63 26.3615C294.63 27.3613 294.542 27.4124 293.643 26.9335C293.302 26.7517 292.758 26.5226 292.435 26.4243C292.086 26.3181 291.525 25.2591 291.051 23.8135C290.055 20.7713 289.066 19.1033 288.275 19.1348C287.939 19.1482 287.343 19.0264 286.95 18.8642C286.333 18.6093 286.367 18.7422 287.203 19.8422C287.734 20.5423 288.063 21.2215 287.933 21.3515C287.802 21.4815 288.02 21.6724 288.416 21.7757C289.261 21.9965 290.278 23.7843 290.421 25.3031C290.56 26.7767 288.447 26.9139 287.675 25.4814C287.411 24.9911 286.529 23.425 285.715 22.001C284.9 20.5771 284.332 19.2535 284.452 19.0597C284.578 18.8564 284.198 18.7074 283.554 18.7074H282.437L283.129 19.6879C284.816 22.0741 286.404 26.7066 285.432 26.4048C284.706 26.1794 284.101 26.504 283.831 27.264C283.681 27.685 283.587 27.6471 283.391 27.0857C283.254 26.6935 282.995 26.0518 282.816 25.6596C282.502 24.9728 282.37 24.7265 281.475 23.164C280.442 21.3602 279.628 19.6021 279.628 19.1753C279.628 18.8672 279.14 18.7074 278.199 18.7074C276.426 18.7074 276.417 18.6123 278.564 22.2698C280.517 25.5952 280.735 26.3802 279.628 26.0912C279.235 25.9887 278.828 26.0441 278.722 26.2142C278.614 26.389 278.173 26.388 277.71 26.2122C277.258 26.0409 276.691 26.0228 276.449 26.172C275.383 26.8297 272.126 24.6886 272.126 23.3298C272.126 23.1406 271.936 22.9857 271.703 22.9857C270.308 22.9857 269.324 21.0573 270.217 20.0725C270.783 19.4482 270.723 19.4205 268.809 19.4205C266.853 19.4205 265.889 19.8572 266.949 20.2633C268.08 20.6963 267.556 21.7728 266.195 21.8113C264.285 21.8653 264.036 22.359 265.24 23.7041C266.092 24.6553 266.429 24.8101 267.147 24.5799L268.019 24.3001L267.036 23.9697C265.484 23.4475 265.741 22.4912 267.353 22.7931C270.711 23.4219 272.833 27.264 269.822 27.264C268.85 27.264 268.591 27.1003 268.408 26.3727C268.262 25.7936 267.933 25.4814 267.469 25.4814C266.878 25.4814 266.795 25.6413 266.989 26.4109C267.25 27.4498 266.737 27.9627 265.429 27.9716C264.987 27.9746 264.625 28.1374 264.625 28.3335C264.625 28.5296 264.947 28.6901 265.34 28.6901C266.402 28.6901 266.204 29.317 265.072 29.5395C262.592 30.0267 261.228 29.941 261.337 29.3047C261.401 28.9288 261.213 28.6901 260.852 28.6901C260.441 28.6901 260.334 28.876 260.498 29.3031C260.628 29.6403 260.626 29.8084 260.494 29.6766C260.362 29.5448 260.036 29.6548 259.769 29.921C259.463 30.226 257.994 30.4861 255.793 30.6248C253.873 30.7457 251.569 30.9228 250.674 31.0184C249.216 31.174 248.907 31.0688 247.716 30.0114C246.523 28.9524 246.191 27.7704 247.358 28.7368C247.712 29.0307 247.976 29.0185 248.373 28.6901C248.782 28.3508 249.027 28.3441 249.41 28.6618C250.051 29.1928 251.651 28.8048 252.56 27.8978C252.95 27.5086 253.494 27.3021 253.81 27.4233C254.118 27.5412 254.628 27.4149 254.943 27.1425C255.259 26.8702 256.142 26.5518 256.907 26.435C260.471 25.8909 261.757 21.7318 258.598 20.9677C256.613 20.4873 253.994 19.1102 252.03 17.5138C249.834 15.7284 246.446 14.2634 243.666 13.8972C242.718 13.7724 241.541 13.6006 241.05 13.5156C239.205 13.196 239.053 13.9006 240.64 15.4079C241.569 16.2897 242.123 17.1343 242.127 17.6718C242.129 18.1434 242.219 18.8547 242.326 19.2526C242.943 21.5438 238.428 24.5998 235.736 23.7131C233.988 23.1373 231.206 19.777 232.477 19.777C232.674 19.777 232.834 19.9482 232.834 20.1575C232.834 21.0619 235.482 23.0455 236.435 22.8553C236.951 22.7522 237.541 22.8345 237.745 23.0382C238.758 24.0488 241.495 20.6008 241.263 18.6068C241.19 17.9759 241.112 17.2837 241.09 17.0687C241.068 16.8536 240.462 16.0737 239.744 15.3356L238.438 13.9934L236.261 14.6304C235.064 14.9807 233.886 15.4176 233.643 15.6012C233.4 15.7848 232.981 15.8509 232.712 15.748C229.967 14.6964 229.336 21.2127 231.938 23.7534C234.122 25.8868 234.023 25.8464 237.156 25.8837C240.549 25.9241 242.353 26.3904 242.589 27.2878C242.692 27.6842 243.275 27.9884 244.243 28.1517C245.38 28.3434 245.818 28.6141 246.073 29.2831C246.507 30.4219 246.495 30.5686 245.996 30.2608C244.277 29.2002 240.4 30.1531 241.424 31.3846C241.644 31.6486 241.716 32.2032 241.584 32.6172C241.37 33.2909 241.418 33.3241 242.043 32.9345C242.963 32.3612 243.835 32.7303 244.272 33.8784C244.578 34.6818 244.77 34.7752 245.695 34.5723C246.368 34.4248 246.765 34.4806 246.765 34.7226C246.765 35.4159 247.749 35.1254 247.946 34.374V34.374ZM236.406 22.2221C231.551 21.3538 232.089 15.4987 237.024 15.4987C239.412 15.4987 241.711 19.2433 239.978 20.3118C239.766 20.443 239.61 19.9828 239.593 19.1741C239.578 18.4272 239.476 18.0568 239.368 18.3509C238.888 19.6525 238.074 20.1335 236.351 20.1335C234.372 20.1335 234.124 20.5547 235.715 21.2126C236.529 21.5492 237.124 21.5688 238.037 21.2892C239.378 20.8784 239.616 21.1509 238.639 21.9793C238.162 22.384 237.633 22.4415 236.406 22.2221V22.2221ZM236.342 17.7234C236.475 16.7927 235.536 16.6008 235.194 17.4888C234.831 18.4344 234.948 18.7653 235.603 18.6408C235.947 18.5754 236.279 18.1626 236.342 17.7234V17.7234ZM298.098 30.9627C298.281 30.4154 296.307 30.0716 295.984 30.5943C295.838 30.8288 295.992 31.1138 296.34 31.2539C297.158 31.5836 297.934 31.4551 298.098 30.9627ZM265.348 20.2886C265.806 19.0869 265.801 19.0621 265.072 19.0753C263.929 19.096 263.025 20.0323 263.544 20.6572C264.22 21.4697 264.956 21.3194 265.348 20.2886ZM273.198 20.6975C273.198 20.4194 273.296 19.9381 273.415 19.6279C273.584 19.1882 273.387 19.064 272.522 19.064C271.235 19.064 271.195 19.167 272.037 20.3227C272.746 21.2956 273.198 21.4416 273.198 20.6975V20.6975ZM191.31 334.054C191.948 333.534 192.471 332.897 192.471 332.638C192.471 332.379 192.885 332.064 193.392 331.937C194.465 331.668 196.294 329.902 198.504 327.001C199.367 325.868 200.155 325.023 200.254 325.123C200.525 325.393 198.797 327.694 196.362 330.308C195.174 331.582 193.965 333.074 193.675 333.624C193.286 334.36 192.969 334.566 192.466 334.406C192.091 334.287 191.416 334.372 190.966 334.595C190.445 334.854 190.569 334.658 191.31 334.054V334.054ZM202.83 327.749C202.83 327.661 203.135 326.958 203.508 326.185C203.881 325.413 204.369 324.06 204.592 323.177C205.892 318.052 206.689 316.214 207.333 316.857C207.643 317.167 204.362 325.964 203.552 326.991C203.155 327.495 202.83 327.836 202.83 327.749V327.749ZM154.25 316.959C154.25 315.696 154.397 314.572 154.577 314.461C155.062 314.162 155.157 314.729 155.022 317.11C154.861 319.979 154.25 319.86 154.25 316.959ZM210.159 317.919C210.525 317.044 210.998 314.883 211.486 311.858C211.886 309.373 212.2 308.758 212.572 309.727C212.924 310.643 210.815 318.542 210.219 318.542C210.042 318.542 210.015 318.262 210.159 317.919ZM147.821 316.816C147.821 316.65 148.142 315.582 148.535 314.442C148.928 313.303 149.266 311.633 149.285 310.732C149.373 306.703 149.809 307.828 149.798 312.054C149.789 315.606 149.678 316.725 149.35 316.6C149.111 316.509 148.82 316.588 148.704 316.775C148.443 317.197 147.821 317.225 147.821 316.816V316.816ZM151.242 311.234C151.487 307.547 152.376 302.215 152.877 301.429C153.115 301.056 153.161 301.271 153.03 302.142C152.927 302.829 152.591 305.621 152.284 308.347C151.627 314.167 150.915 316.138 151.242 311.234ZM154.608 303.818C154.608 302.186 154.721 301.786 155.184 301.786C155.668 301.786 155.721 302.056 155.512 303.479C155.141 306.005 154.608 306.205 154.608 303.818ZM217.986 301.591C218.181 298.288 218.408 297.508 219.169 297.508C219.779 297.508 219.643 302.016 219.021 302.455C218.847 302.577 218.505 303.078 218.26 303.569C217.879 304.332 217.84 304.048 217.986 301.591ZM160.888 292.962C160.628 292.137 161.142 290.283 161.682 290.103C161.976 290.006 162.109 290.526 162.109 291.774C162.109 293.618 161.334 294.372 160.888 292.962ZM158.418 290.14C158.069 289.792 158.176 282.836 158.542 281.999C158.746 281.533 158.836 282.4 158.8 284.495C158.762 286.684 158.9 287.943 159.233 288.458C159.935 289.543 159.245 290.965 158.418 290.14ZM222.118 287.011C222.118 285.771 222.663 285.048 223.172 285.613C223.525 286.007 222.925 288.238 222.465 288.238C222.275 288.238 222.118 287.686 222.118 287.011ZM161.394 286.586C161.394 285.333 162.272 283.713 162.866 283.868C163.236 283.964 163.538 284.194 163.538 284.379C163.538 284.564 163.382 284.619 163.191 284.501C163.001 284.384 162.607 284.856 162.317 285.55C161.842 286.684 161.394 287.187 161.394 286.586V286.586ZM178.545 285.653C178.557 283.994 179.971 280.991 180.496 281.514C180.677 281.696 179.766 285.561 179.404 286.145C179.038 286.737 178.54 286.452 178.545 285.653V285.653ZM222.444 284.287C222.361 282.965 222.554 280.449 222.825 279.325C223.021 278.513 223.057 279.198 222.93 281.286C222.752 284.194 222.526 285.591 222.444 284.287ZM162.477 282.427C162.46 280.924 163.955 273.621 164.28 273.621C164.905 273.621 164.304 280.812 163.637 281.317C163.254 281.607 163.179 281.803 163.448 281.809C163.694 281.816 163.895 282.008 163.895 282.237C163.895 282.465 163.79 282.548 163.662 282.42C163.534 282.293 163.218 282.467 162.959 282.807C162.534 283.365 162.488 283.329 162.477 282.427V282.427ZM177.989 277.745C178.403 275.427 179.894 271.19 179.934 272.219C179.982 273.486 178.694 278.25 178.169 278.743C177.836 279.056 177.795 278.832 177.989 277.745ZM227.476 278.432C227.476 278.16 228.777 274.912 229.474 273.442L229.982 272.373L229.759 273.621C229.637 274.307 229.416 275.029 229.268 275.225C229.12 275.421 228.805 276.181 228.569 276.914C228.195 278.072 227.476 279.07 227.476 278.432ZM166.934 273.264C167.083 268.957 167.71 265.849 168.866 263.694C169.653 262.225 169.704 263.171 168.962 265.487C168.566 266.725 168.062 269.022 167.844 270.59C166.85 277.722 166.772 277.953 166.934 273.264ZM220.199 276.428C219.84 274.641 219.937 270.055 220.332 270.055C220.544 270.055 220.69 271.353 220.69 273.235C220.69 274.984 220.787 276.668 220.906 276.978C221.026 277.289 220.965 277.542 220.773 277.542C220.58 277.542 220.321 277.041 220.199 276.428ZM176.759 275.908C176.765 275.062 178.11 270.742 178.138 271.482C178.164 272.189 177.215 276.131 176.957 276.39C176.845 276.501 176.756 276.284 176.759 275.908ZM223.201 271.036C223.194 268.949 223.333 267.56 223.547 267.56C223.98 267.56 224.004 267.779 223.91 270.947C223.791 274.93 223.213 275.003 223.201 271.036ZM234.978 273.679C234.978 273.162 237.219 268.572 238.068 267.351C238.466 266.779 238.901 266.008 239.036 265.637C239.171 265.266 239.362 265.043 239.461 265.142C239.641 265.322 239.196 266.55 238.585 267.56C238.407 267.854 237.701 269.372 237.016 270.934C235.913 273.448 234.978 274.708 234.978 273.679ZM234.978 269.309C234.978 268.514 236.488 263.986 236.822 263.78C237.553 263.33 237.457 263.989 236.383 266.795C235.326 269.558 234.978 270.181 234.978 269.309V269.309ZM244.246 263.103C244.794 260.946 245.537 257.938 245.897 256.418C246.275 254.824 246.737 253.655 246.99 253.655C247.322 253.655 247.341 253.94 247.069 254.814C246.87 255.451 246.621 256.254 246.516 256.597C246.411 256.94 246.487 257.221 246.685 257.221C246.883 257.221 247.146 256.82 247.269 256.329C247.392 255.839 247.662 255.438 247.868 255.438C248.387 255.438 248.01 256.505 246.232 260.073C245.401 261.74 244.617 263.677 244.489 264.378C244.36 265.08 244.029 265.962 243.752 266.339C243.427 266.782 243.601 265.637 244.246 263.103V263.103ZM249.293 261.743C249.278 261.584 249.685 260.541 250.197 259.426C250.71 258.311 251.576 255.955 252.123 254.19C253.28 250.454 254.196 248.237 254.237 249.072C254.275 249.834 252.967 254.056 251.993 256.315C250.774 259.141 249.323 262.059 249.293 261.743ZM194.153 238.063C193.893 237.601 194.315 235.116 194.653 235.116C195.077 235.116 195.064 237.869 194.639 238.132C194.456 238.244 194.237 238.214 194.153 238.063V238.063ZM192.114 237.601C192.114 237.398 192.382 236.636 192.711 235.907C193.414 234.348 193.854 235.322 193.21 237.011C192.856 237.942 192.114 238.341 192.114 237.601ZM198.186 233.591C198.186 233.341 198.409 232.819 198.681 232.431C198.953 232.043 199.529 230.363 199.962 228.697C201.061 224.461 201.071 224.441 201.445 225.499C202.008 227.088 199.639 234.047 198.535 234.047C198.343 234.047 198.186 233.842 198.186 233.591ZM209.779 225.399C209.354 224.293 210.127 220.335 210.793 220.207C211.372 220.096 211.423 220.353 211.329 222.872C211.226 225.604 210.385 226.975 209.779 225.399V225.399ZM207.715 222.371C207.498 222.004 208.32 216.149 208.665 215.597C209.581 214.132 209.873 215.659 209.091 217.825C208.808 218.609 208.569 220.013 208.561 220.945C208.547 222.454 208.154 223.115 207.715 222.371H207.715ZM203.269 214.895C202.053 212.058 201.801 207.664 202.854 207.664C203.037 207.664 203.187 209.033 203.187 210.706C203.187 212.615 203.388 214.229 203.727 215.039C204.025 215.749 204.207 216.391 204.133 216.464C204.059 216.538 203.67 215.832 203.269 214.895V214.895ZM195.618 214.905C195.424 211.04 195.45 209.447 195.707 209.447C196.072 209.447 196.31 215.88 195.954 216.099C195.806 216.189 195.655 215.652 195.618 214.905V214.905ZM201.2 205.971C201.761 201.135 202.412 198.929 203.081 199.596C203.268 199.783 203.057 201.156 202.076 206.149C201.565 208.743 200.893 208.606 201.2 205.971ZM198.397 206.505C197.896 203.263 197.825 202.004 198.135 201.813C198.324 201.696 198.586 202.399 198.722 203.387C198.864 204.416 199.201 205.301 199.52 205.479C199.909 205.697 200.003 206.066 199.837 206.726C199.504 208.05 198.614 207.914 198.397 206.505V206.505ZM192.828 197.774C192.828 194.722 192.788 194.55 192.118 194.725C191.224 194.958 190.808 194.015 191.329 192.938L191.708 192.155L191.732 192.919C191.746 193.34 191.998 193.776 192.292 193.889C192.909 194.125 192.973 193.688 192.845 190.148C192.789 188.605 192.909 187.691 193.189 187.518C193.522 187.313 193.567 188.774 193.389 193.966C193.145 201.064 192.828 203.214 192.828 197.774H192.828ZM200.459 197.563C200.724 195.508 200.982 194.981 201.48 195.478C201.716 195.714 201.687 196.294 201.396 197.203C200.703 199.366 200.201 199.559 200.459 197.563V197.563ZM198.275 193.864C197.738 192.71 197.694 191.852 198.186 192.155C198.387 192.279 198.543 191.995 198.543 191.507C198.543 190.58 199.415 189.584 199.751 190.126C199.861 190.304 199.796 191.395 199.607 192.55C199.417 193.706 199.261 194.691 199.26 194.74C199.25 195.18 198.632 194.63 198.275 193.864V193.864ZM197.168 192.245C197.139 191.313 197.275 190.551 197.472 190.551C197.668 190.551 197.829 190.31 197.829 190.016C197.829 189.722 197.99 189.481 198.186 189.481C198.383 189.481 198.541 189.682 198.538 189.927C198.531 190.514 197.857 191.545 197.781 191.086C197.748 190.89 197.609 191.451 197.472 192.334L197.222 193.938L197.168 192.245ZM187.846 190.908C187.841 190.195 189.47 184.682 189.923 183.877C190.743 182.418 190.674 184.379 189.844 186.102C189.374 187.079 188.87 188.439 188.725 189.125C188.404 190.636 187.851 191.757 187.846 190.908V190.908ZM198.03 188.483C197.325 186.266 197.753 183.421 198.792 183.421C199.265 183.421 199.326 183.784 199.173 185.689C198.956 188.384 198.417 189.701 198.03 188.483ZM202.472 161.35C202.472 160.489 202.351 160.345 201.758 160.5C201.278 160.625 201.044 160.511 201.044 160.152C201.044 159.857 201.348 159.537 201.72 159.44C202.46 159.247 202.661 158.528 203.015 154.81C203.374 151.033 204.018 151.816 203.749 155.701C203.344 161.53 202.472 165.39 202.472 161.35ZM205.694 155.344C205.725 152.646 206.995 146.699 207.541 146.699C207.723 146.699 207.775 146.856 207.656 147.048C207.463 147.36 206.426 154.404 206.409 155.523C206.405 155.768 206.241 155.968 206.044 155.968C205.848 155.968 205.69 155.688 205.694 155.344ZM204.519 153.384C204.85 147.603 205.925 140.522 206.424 140.83C206.591 140.933 206.656 141.213 206.568 141.452C206.205 142.442 204.973 151.877 204.973 153.671C204.973 154.738 204.842 155.612 204.682 155.612C204.522 155.612 204.449 154.609 204.519 153.384V153.384ZM229.262 152.955C229.262 152.218 230.035 150.621 230.391 150.621C230.79 150.621 230.77 151.003 230.299 152.35C229.896 153.505 229.262 153.875 229.262 152.955V152.955ZM236.593 152.059C236.262 151.526 238.209 148.838 238.925 148.838C240.451 148.838 240.768 149.201 240.134 150.218C238.974 152.077 237.181 153.009 236.593 152.059V152.059ZM232.498 150.456C232.451 149.687 234.475 144.556 234.888 144.397C236.728 143.69 236.726 145.013 234.885 147.479C234.052 148.595 233.179 149.798 232.945 150.153C232.711 150.508 232.51 150.645 232.498 150.456H232.498ZM228.352 147.234C228.829 145.014 229.323 143.495 229.629 143.306C230.236 142.931 229.963 144.32 229.066 146.164C228.589 147.144 228.268 147.626 228.352 147.234V147.234ZM219.856 146.461C219.725 146.33 219.628 145.328 219.641 144.233C219.666 142.038 220.082 142.543 220.425 145.184C220.609 146.599 220.42 147.024 219.856 146.461V146.461ZM226.076 146.455C226.028 145.741 226.761 144.104 227.311 143.697C227.598 143.485 228.04 142.59 228.294 141.708C228.648 140.475 228.946 140.076 229.578 139.985C230.476 139.856 230.406 140.919 229.442 142.064C229.194 142.358 228.727 143.12 228.403 143.758C228.08 144.395 227.592 144.916 227.318 144.916C227.045 144.916 226.66 145.357 226.463 145.897C226.265 146.436 226.091 146.687 226.076 146.455V146.455ZM209.975 140.579C209.975 139.473 211.282 134.104 212.042 132.082C212.783 130.11 212.432 135.5 211.625 138.479C210.767 141.644 209.973 142.654 209.975 140.579V140.579ZM223.22 139.747C223.193 137.825 223.526 136.716 224.132 136.716C224.672 136.716 224.556 137.565 223.695 139.925L223.24 141.173L223.22 139.747H223.22ZM219.407 135.825C219.72 130.353 220.954 125.874 222.186 125.732L223.146 125.621L222.27 127.435C221.232 129.582 219.978 134.7 219.97 136.819C219.967 137.645 219.793 138.561 219.584 138.855C219.309 139.241 219.26 138.397 219.407 135.825V135.825ZM212.843 129.65C212.836 129.391 213.336 127.947 213.954 126.441C215.179 123.454 215.947 122.29 215.527 124.059C215.388 124.647 215.403 124.999 215.56 124.842C215.718 124.684 215.873 123.7 215.904 122.655C215.969 120.515 218.758 114.069 219.791 113.673C220.618 113.357 220.911 113.82 220.4 114.637C218.793 117.204 216.378 122.576 216.732 122.795C217.361 123.182 216.195 125.664 215.384 125.664C214.712 125.664 213.903 126.999 213.903 128.108C213.903 128.85 212.86 130.367 212.843 129.65V129.65ZM208.678 127.733C209.366 125.509 210.813 121.748 210.934 121.869C211.12 122.054 209.452 126.841 208.904 127.695C208.553 128.242 208.519 128.247 208.678 127.733V127.733ZM212.474 121.577C212.474 120.969 214.018 117.464 214.286 117.464C214.858 117.464 214.651 118.384 213.694 120.093C212.863 121.577 212.474 122.05 212.474 121.577Z" fill="black"/>
<path fill-rule="evenodd" clip-rule="evenodd" d="M286.716 379.553C309.346 373.296 336.626 365.739 370.293 354.604C379.267 351.659 387.7 347.229 395.251 341.525C403.951 334.95 411.418 326.689 416.815 317.125C428.278 296.815 430.898 264.54 415.272 245.605C405.722 234.045 385.57 212.771 373.496 200.04L365.099 191.12C364.181 190.135 362.939 189.563 361.602 189.511L294.553 186.902C289.86 186.719 287.564 192.487 290.945 195.621L322.114 229.436C322.314 229.643 322.409 229.98 322.413 230.296C322.412 230.961 322.356 231.566 321.646 231.406C300.456 226.555 276.247 223.591 251.868 222.643C227.231 221.684 202.265 222.776 179.896 225.99C161.341 228.654 141.713 205.437 129.781 193.967C125.613 189.704 121.62 185.622 118.063 182.331C115.944 180.36 114.489 179.896 111.657 179.785L46.5523 177.252C41.9257 177.072 39.5852 182.705 42.8393 185.876C48.094 191.721 52.926 196.883 57.1191 201.364C69.6414 214.77 76.2703 221.858 77.659 229.141C79.2418 237.422 74.6332 248.323 64.8833 271.42C53.0605 299.468 40.3024 312.432 38.9653 346.795C38.7258 352.95 38.739 360.737 38.7611 369.148C38.8398 402.402 38.9457 446.288 21.1661 463.232L6.89436 476.827C5.89236 477.778 5.04259 479.093 4.38378 480.631C2.70924 484.542 1.77821 491.153 2.01531 497.459C2.27908 504.15 3.90571 510.876 7.42247 514.565C8.45359 515.645 9.65091 516.516 10.9928 517.092L30.8845 525.611C36.0482 527.808 42.8819 533.906 47.87 537.411C55.5871 542.827 64.9593 547.825 78.1331 548.338L90.9747 548.838C101.831 549.26 112.05 546.388 120.592 540.881C129.099 535.389 135.929 527.261 140.023 517.179C184.432 407.867 202.908 402.746 286.716 379.553Z" fill="#006699"/>
<line x1="77.832" y1="505.248" x2="50.832" y2="523.248" stroke="white" stroke-width="3"/>
<line x1="55.1485" y1="503.035" x2="76.1485" y2="528.035" stroke="white" stroke-width="3"/>
</svg>
