<?xml version="1.0" encoding="iso-8859-1"?>
<!-- Generator: Adobe Illustrator 16.0.0, SVG Export Plug-In . SVG Version: 6.00 Build 0)  -->
<!DOCTYPE svg PUBLIC "-//W3C//DTD SVG 1.1//EN" "http://www.w3.org/Graphics/SVG/1.1/DTD/svg11.dtd">
<svg version="1.1" id="Capa_1" xmlns="http://www.w3.org/2000/svg" xmlns:xlink="http://www.w3.org/1999/xlink" x="0px" y="0px"
	 width="612px" height="612px" viewBox="0 0 612 612" style="enable-background:new 0 0 612 612;" xml:space="preserve">
<g>
	<g id="Shape_19_2_">
		<g>
			<path d="M306,178.846c-169.667,0-306,139.148-306,310.183v10.281h612v-10.281C612,317.994,475.667,178.846,306,178.846z
				 M15.933,478.746c5.385-154.957,132.121-279.336,287.12-279.336c155,0,281.734,124.379,287.12,279.336H15.933z M10.2,550.719
				h591.6v-20.564H10.2V550.719z M303.052,165.8c28.59,0,51.846-23.45,51.846-52.254c0-28.815-23.256-52.265-51.846-52.265
				c-28.591,0-51.847,23.45-51.847,52.265C251.216,142.351,274.472,165.8,303.052,165.8z M303.052,81.844
				c17.34,0,31.447,14.219,31.447,31.702c0,17.473-14.106,31.691-31.447,31.691s-31.447-14.219-31.447-31.691
				C271.616,96.063,285.722,81.844,303.052,81.844z"/>
		</g>
	</g>
</g>
<g>
</g>
<g>
</g>
<g>
</g>
<g>
</g>
<g>
</g>
<g>
</g>
<g>
</g>
<g>
</g>
<g>
</g>
<g>
</g>
<g>
</g>
<g>
</g>
<g>
</g>
<g>
</g>
<g>
</g>
</svg>
