<svg width="612" height="531" viewBox="0 0 612 531" fill="none" xmlns="http://www.w3.org/2000/svg">
<path d="M167.5 158L302.5 124L435 158L570 277.5L597.5 430.5H10L18 336L74 241L167.5 158Z" fill="#FFFCFC"/>
<path d="M304.33 118.562C134.663 118.562 -1.67006 257.71 -1.67006 428.745V439.026H610.33V428.745C610.33 257.71 473.997 118.562 304.33 118.562ZM14.2629 418.462C19.6479 263.505 146.384 139.126 301.383 139.126C456.383 139.126 583.117 263.505 588.503 418.462H14.2629ZM8.52994 490.435H600.13V469.871H8.52994V490.435ZM301.382 105.516C329.972 105.516 353.228 82.0661 353.228 53.2621C353.228 24.4471 329.972 0.99707 301.382 0.99707C272.791 0.99707 249.535 24.4471 249.535 53.2621C249.546 82.0671 272.802 105.516 301.382 105.516ZM301.382 21.5601C318.722 21.5601 332.829 35.7791 332.829 53.2621C332.829 70.7351 318.723 84.9531 301.382 84.9531C284.041 84.9531 269.935 70.7341 269.935 53.2621C269.946 35.7791 284.052 21.5601 301.382 21.5601Z" fill="#0A0000"/>
</svg>
