<svg width="100" height="100" viewBox="0 0 100 100" fill="none" xmlns="http://www.w3.org/2000/svg">
<path d="M83.5 53.5C83.5 78.1 68.5 91 50 91C31.5 91 16.5 78.1 16.5 53.5C16.5 28.9 31.5 9 50 9C68.5 9 83.5 28.9 83.5 53.5Z" fill="#312323"/>
<path d="M50 81.5C61.8741 81.5 71.5 71.8741 71.5 60C71.5 48.1259 61.8741 38.5 50 38.5C38.1259 38.5 28.5 48.1259 28.5 60C28.5 71.8741 38.1259 81.5 50 81.5Z" fill="#624930"/>
<circle cx="50" cy="60" r="19" fill="#434541"/>
<circle cx="50" cy="60" r="15" fill="#624930" fill-opacity="0.32"/>
</svg>
