<svg width="440" height="440" viewBox="0 0 440 440" fill="none" xmlns="http://www.w3.org/2000/svg">
<g clip-path="url(#clip0)">
<path d="M36 88L98 46L154 54L223 88L307 46L365 54L414 108L434 182L414 263L334 340L307 388L270 381L229 371L187 366L154 388L120 371L66 304L7 202L36 88Z" fill="#AF946B"/>
<path d="M167 172C167 216.459 139 244 125.5 261C92.0868 261 77 224.459 77 180C77 135.541 92.0868 107.609 125.5 107.609C158.913 107.609 167 127.541 167 172Z" fill="white"/>
<path d="M363 157C363 189.033 352.719 264 324 264C295.281 264 295 184 268 157C268 124.967 284.281 112 313 112C341.719 112 363 124.967 363 157Z" fill="#FFFEFE"/>
<path d="M245 275C245 295.158 233.979 309 221 309C208.021 309 188 287.5 202 264C202 243.842 208.021 222 221 222C233.979 222 245 254.842 245 275Z" fill="#FFFDFD"/>
<path d="M406.945 78.142C380.365 47.581 342.037 33.304 301.806 38.964C272.317 43.114 244.761 56.8 219.765 79.672C194.904 56.931 167.315 43.126 137.744 38.964C97.507 33.298 59.189 47.575 32.607 78.14C0.889006 114.605 -8.21999 167.24 7.61701 222.548C23.458 277.872 58.805 323.081 107.493 350.569C107.323 352.447 107.162 354.321 107.016 356.189C106.134 367.457 109.693 378.394 117.037 386.985C124.381 395.576 134.631 400.793 145.896 401.674C146.997 401.76 148.121 401.804 149.235 401.804C166.06 401.804 180.867 391.705 187.622 377.122C198.171 378.527 208.948 379.248 219.776 379.248C230.602 379.248 241.379 378.527 251.928 377.122C258.683 391.705 273.49 401.804 290.315 401.804C291.431 401.804 292.554 401.76 293.652 401.674C316.911 399.854 334.353 379.449 332.534 356.189C332.388 354.321 332.227 352.447 332.057 350.569C380.745 323.08 416.092 277.871 431.933 222.548C447.77 167.241 438.662 114.607 406.945 78.142ZM88.973 199.253C81.174 172.014 83.903 148.113 96.458 133.677C104.098 124.893 114.298 121.121 125.949 122.763C140.011 124.742 154.236 133.121 167.928 147.169C164.85 152.652 161.837 158.337 158.937 164.16C144.942 192.267 133.039 224.742 124.055 258.472C107.658 242.758 95.644 222.553 88.973 199.253ZM149.235 381.805C148.64 381.805 148.044 381.782 147.459 381.736C141.518 381.271 136.112 378.52 132.239 373.99C128.367 369.46 126.49 363.693 126.956 357.75C128.969 332.026 133.292 305.25 139.502 278.965C139.533 278.846 139.561 278.726 139.588 278.606C148.527 240.878 161.353 204.177 176.841 173.074C178.449 169.844 180.099 166.671 181.769 163.544C189.802 174.373 197.55 187.201 204.859 201.879C206.201 204.574 207.518 207.323 208.813 210.113C188.985 255.714 175.414 310.506 171.444 361.232C170.542 372.768 160.786 381.805 149.235 381.805ZM237.183 293.696C231.476 294.312 225.654 294.625 219.776 294.625C213.892 294.625 208.062 294.312 202.348 293.694C207 273.969 212.873 254.572 219.77 236.305C226.635 254.508 232.518 273.923 237.183 293.696ZM191.835 357.509C193.162 342.973 195.295 328.138 198.144 313.334C205.231 314.185 212.471 314.625 219.777 314.625C227.077 314.625 234.31 314.186 241.39 313.337C244.244 328.143 246.39 342.985 247.718 357.509C229.35 359.808 210.202 359.808 191.835 357.509ZM292.089 381.736C291.507 381.782 290.91 381.805 290.316 381.805C278.765 381.805 269.009 372.768 268.107 361.232C266.549 341.322 263.486 320.743 259.155 300.351C259.152 300.336 259.152 300.321 259.149 300.305C259.132 300.206 259.103 300.113 259.082 300.016C250.934 261.78 238.324 224.216 222.763 192.965C212.257 171.866 200.667 154.123 188.381 140.072C187.958 139.473 187.472 138.911 186.912 138.408C168.606 118.004 148.799 105.781 128.739 102.958C110.32 100.36 93.496 106.608 81.368 120.551C64.283 140.193 60.047 170.886 69.746 204.758C78.501 235.337 95.359 261.345 118.667 280.388C115.039 296.498 112.108 312.737 109.952 328.783C69.671 303.597 40.409 264.415 26.843 217.042C12.906 168.368 20.507 122.524 47.697 91.265C69.751 65.907 101.553 54.064 134.955 58.768C162.92 62.704 189.103 76.882 212.661 100.54C212.681 100.56 212.697 100.582 212.718 100.602C212.746 100.63 212.778 100.654 212.806 100.681C231.172 119.163 247.939 143.413 262.708 173.074C278.201 204.188 291.03 240.903 299.97 278.643C299.992 278.739 300.014 278.834 300.039 278.929C306.253 305.225 310.58 332.013 312.594 357.748C313.555 370.016 304.356 380.776 292.089 381.736ZM315.495 258.472C306.511 224.742 294.608 192.268 280.612 164.161C277.708 158.329 274.717 152.71 271.659 147.261C285.464 133.14 299.861 124.697 313.601 122.763C325.253 121.123 335.455 124.897 343.094 133.678C355.649 148.114 358.377 172.015 350.579 199.253C343.907 222.553 331.893 242.758 315.495 258.472ZM412.707 217.042C399.142 264.415 369.88 303.597 329.598 328.783C327.442 312.737 324.511 296.498 320.883 280.388C344.192 261.345 361.05 235.336 369.805 204.757C379.503 170.886 375.267 140.194 358.183 120.552C346.059 106.613 329.236 100.366 310.813 102.958C293.711 105.365 277.02 114.332 261.057 129.61C252.495 116.306 243.427 104.365 233.889 93.86C255.691 74.104 279.436 62.309 304.593 58.768C337.999 54.068 369.803 65.913 391.854 91.267C419.043 122.526 426.644 168.37 412.707 217.042Z" fill="#A6885B"/>
<path d="M157.787 80.803C155.283 75.88 149.264 73.921 144.34 76.424C139.418 78.928 137.457 84.948 139.961 89.871L141.994 93.868C143.76 97.338 147.271 99.336 150.915 99.336C152.44 99.336 153.988 98.986 155.441 98.247C160.363 95.743 162.324 89.723 159.82 84.8L157.787 80.803Z" fill="black"/>
<path d="M184.961 98.35L181.597 101.315C177.453 104.966 177.054 111.286 180.706 115.429C182.683 117.672 185.44 118.817 188.212 118.817C190.561 118.817 192.919 117.994 194.819 116.319L198.183 113.354C202.327 109.703 202.726 103.383 199.074 99.24C195.423 95.098 189.103 94.699 184.961 98.35Z" fill="black"/>
<path d="M329.707 69.569L325.416 68.267C320.131 66.663 314.547 69.647 312.943 74.934C311.339 80.219 314.324 85.803 319.609 87.406L323.9 88.708C324.868 89.001 325.845 89.141 326.807 89.141C331.096 89.141 335.063 86.359 336.372 82.041C337.977 76.757 334.992 71.173 329.707 69.569Z" fill="black"/>
<path d="M261.039 219.846C255.544 219.53 250.794 223.73 250.471 229.243L250.208 233.72C249.884 239.234 254.091 243.965 259.605 244.289C259.804 244.301 260.002 244.307 260.2 244.307C265.455 244.307 269.862 240.206 270.174 234.892L270.437 230.415C270.76 224.901 266.553 220.17 261.039 219.846Z" fill="black"/>
<path d="M174.957 222.529C176.483 223.366 178.133 223.764 179.759 223.764C183.291 223.764 186.716 221.888 188.534 218.573L190.691 214.641C193.348 209.799 191.577 203.72 186.735 201.063C181.892 198.406 175.813 200.177 173.158 205.019L171.001 208.951C168.344 213.793 170.115 219.872 174.957 222.529Z" fill="black"/>
<path d="M87.453 75.092L83.106 76.196C77.753 77.556 74.517 82.998 75.877 88.351C77.027 92.877 81.097 95.891 85.563 95.891C86.377 95.891 87.207 95.79 88.033 95.58L92.38 94.476C97.733 93.116 100.969 87.674 99.609 82.321C98.248 76.97 92.808 73.732 87.453 75.092Z" fill="black"/>
<path d="M379.03 132.028L378.315 136.455C377.434 141.907 381.141 147.041 386.593 147.921C387.133 148.008 387.669 148.05 388.198 148.05C393.019 148.05 397.265 144.555 398.058 139.643L398.773 135.216C399.654 129.764 395.947 124.63 390.495 123.75C385.037 122.868 379.91 126.576 379.03 132.028Z" fill="black"/>
<path d="M47.589 152.211C42.117 151.446 37.064 155.258 36.298 160.727L35.676 165.168C34.909 170.637 38.723 175.692 44.192 176.459C44.663 176.525 45.13 176.557 45.592 176.557C50.499 176.557 54.782 172.941 55.483 167.943L56.105 163.502C56.871 158.032 53.058 152.977 47.589 152.211Z" fill="black"/>
<path d="M289.351 288.378C284.41 285.915 278.405 287.925 275.941 292.868L273.941 296.881C271.478 301.824 273.488 307.828 278.431 310.292C279.863 311.006 281.384 311.344 282.883 311.344C286.556 311.344 290.091 309.313 291.841 305.802L293.841 301.789C296.304 296.846 294.294 290.841 289.351 288.378Z" fill="black"/>
<path d="M236.722 147.724L233.15 145.014C228.75 141.675 222.477 142.536 219.138 146.936C215.8 151.336 216.661 157.608 221.06 160.947L224.632 163.657C226.44 165.029 228.563 165.691 230.669 165.691C233.69 165.691 236.677 164.327 238.644 161.735C241.981 157.335 241.121 151.062 236.722 147.724Z" fill="black"/>
<path d="M270.389 82.128L266.889 84.932C262.578 88.385 261.883 94.678 265.336 98.989C267.312 101.455 270.216 102.738 273.147 102.738C275.34 102.738 277.548 102.02 279.393 100.542L282.893 97.738C287.204 94.285 287.899 87.992 284.446 83.681C280.991 79.37 274.698 78.677 270.389 82.128Z" fill="black"/>
<path d="M175.894 263.558L175.885 259.074C175.874 253.557 171.4 249.093 165.885 249.093C165.879 249.093 165.871 249.093 165.865 249.093C160.343 249.104 155.874 253.59 155.885 259.113L155.894 263.597C155.905 269.114 160.379 273.577 165.894 273.577C165.9 273.577 165.908 273.577 165.914 273.577C171.436 273.566 175.905 269.08 175.894 263.558Z" fill="black"/>
</g>
<defs>
<clipPath id="clip0">
<rect width="439.551" height="439.551" fill="white"/>
</clipPath>
</defs>
</svg>
